<svg id="bge" xmlns="http://www.w3.org/2000/svg" xmlns:xlink="http://www.w3.org/1999/xlink" viewBox="0 0 254 344" shape-rendering="geometricPrecision" text-rendering="geometricPrecision"><style><![CDATA[#bge-bge3_to {animation: bge-bge3_to__to 3000ms linear infinite normal forwards}@keyframes bge-bge3_to__to { 0% {transform: translate(42.500000px,386.299997px)} 66.666667% {transform: translate(42.500000px,386.299997px)} 100% {transform: translate(42.500000px,-42.300003px)} }#bge-bge2_to {animation: bge-bge2_to__to 3000ms linear infinite normal forwards}@keyframes bge-bge2_to__to { 0% {transform: translate(126.500000px,386.299997px)} 33% {transform: translate(126.500000px,386.299997px)} 66.666667% {transform: translate(126.500000px,-42.300003px)} 100% {transform: translate(126.500000px,-42.300003px)} }#bge-bge1_to {animation: bge-bge1_to__to 3000ms linear infinite normal forwards}@keyframes bge-bge1_to__to { 0% {transform: translate(211.500000px,386.299997px)} 33% {transform: translate(211.500000px,-42.300003px)} 100% {transform: translate(211.500000px,-42.300003px)} }]]></style><g id="bge-bge3_to" transform="translate(42.500000,386.299997)"><polygon id="bge-bge3" points="85,275.800000 85,258.900000 34.500000,258.900000 34.500000,273.600000 34.500000,275.800000 34.500000,292.700000 34.500000,309.700000 34.500000,326.600000 34.500000,343.500000 85,343.500000 85,326.600000 51.400000,326.600000 51.400000,309.700000 85,309.700000 85,292.700000 51.400000,292.700000 51.400000,275.800000" transform="translate(-59.750000,-301.199997)" fill="rgb(191,191,191)" stroke="none" stroke-width="1"/></g><g id="bge-bge2_to" transform="translate(126.500000,386.299997)"><polygon id="bge-bge2" points="169,275.800000 169,258.900000 118.500000,258.900000 118.500000,273.600000 118.500000,275.800000 118.500000,292.700000 118.500000,309.700000 118.500000,326.600000 118.500000,343.500000 169,343.500000 169,326.600000 135.400000,326.600000 135.400000,309.700000 169,309.700000 169,292.700000 135.400000,292.700000 135.400000,275.800000" transform="translate(-143.750000,-301.199997)" fill="rgb(191,191,191)" stroke="none" stroke-width="1"/></g><g id="bge-bge1_to" transform="translate(211.500000,386.299997)"><polygon id="bge-bge1" points="254,275.800000 254,258.900000 203.500000,258.900000 203.500000,273.600000 203.500000,275.800000 203.500000,292.700000 203.500000,309.700000 203.500000,326.600000 203.500000,343.500000 254,343.500000 254,326.600000 220.400000,326.600000 220.400000,309.700000 254,309.700000 254,292.700000 220.400000,292.700000 220.400000,275.800000" transform="translate(-228.750000,-301.199997)" fill="rgb(191,191,191)" stroke="none" stroke-width="1"/></g></svg>