<svg id="cicd" xmlns="http://www.w3.org/2000/svg" xmlns:xlink="http://www.w3.org/1999/xlink" viewBox="0 0 200 180" shape-rendering="geometricPrecision" text-rendering="geometricPrecision"><style><![CDATA[#cicd-cicd_x5f_small_x5f_bottom_tr {animation: cicd-cicd_x5f_small_x5f_bottom_tr__tr 3000ms linear infinite normal forwards}@keyframes cicd-cicd_x5f_small_x5f_bottom_tr__tr { 0% {transform: translate(135.550003px,115.500679px) rotate(0deg)} 100% {transform: translate(135.550003px,115.500679px) rotate(-720deg)} }#cicd-cicd_x5f_small_x5f_top_tr {animation: cicd-cicd_x5f_small_x5f_top_tr__tr 3000ms linear infinite normal forwards}@keyframes cicd-cicd_x5f_small_x5f_top_tr__tr { 0% {transform: translate(135.550003px,63.500679px) rotate(0deg)} 100% {transform: translate(135.550003px,63.500679px) rotate(-720deg)} }#cicd-cicd_x5f_big_tr {animation: cicd-cicd_x5f_big_tr__tr 3000ms linear infinite normal forwards}@keyframes cicd-cicd_x5f_big_tr__tr { 0% {transform: translate(82.560093px,90.299328px) rotate(0deg)} 100% {transform: translate(82.560093px,90.299328px) rotate(360deg)} }]]></style><g id="cicd-cicd"><g id="cicd-cicd_x5f_small_x5f_bottom_tr" transform="translate(135.550003,115.500679) rotate(0)"><g id="cicd-cicd_x5f_small_x5f_bottom" transform="translate(-135.550003,-115.500679)"><path id="cicd-path1" d="M154.300000,112.400000C153.900000,110.500000,152.300000,109.100000,150.300000,109.100000L149.400000,109.100000C149.100000,108.500000,148.800000,107.900000,148.400000,107.300000L148.800000,106.500000C149.800000,104.800000,149.400000,102.600000,147.900000,101.300000C146,99.700000,144.500000,98.800000,142.200000,98C140.300000,97.400000,138.300000,98.100000,137.300000,99.800000L136.900000,100.600000C136.200000,100.500000,135.500000,100.500000,134.800000,100.600000L134.400000,99.800000C133.400000,98.100000,131.400000,97.400000,129.500000,98C127.100000,98.800000,125.600000,99.700000,123.800000,101.200000C122.300000,102.500000,121.900000,104.700000,122.900000,106.400000L123.300000,107.200000C122.900000,107.800000,122.600000,108.400000,122.300000,109L120.800000,109C118.800000,109,117.100000,110.400000,116.800000,112.300000C116.300000,114.700000,116.300000,116.500000,116.800000,118.900000C117.200000,120.800000,118.800000,122.200000,120.800000,122.200000L122.400000,122.200000C122.700000,122.800000,123,123.400000,123.400000,124L123,124.700000C122,126.400000,122.400000,128.600000,123.900000,129.900000C125.800000,131.500000,127.400000,132.300000,129.800000,133C131.600000,133.600000,133.500000,132.800000,134.500000,131.300000L134.900000,130.600000C135.600000,130.700000,136.300000,130.700000,137,130.600000L137.400000,131.300000C138.400000,132.900000,140.300000,133.600000,142.100000,133C144.500000,132.200000,146.100000,131.400000,147.900000,129.900000C149.400000,128.600000,149.800000,126.400000,148.800000,124.700000L148.400000,124C148.800000,123.400000,149.100000,122.800000,149.400000,122.200000L150.300000,122.200000C152.300000,122.200000,154,120.800000,154.300000,118.900000C154.800000,116.500000,154.800000,114.700000,154.300000,112.400000ZM149.800000,117.500000L146.200000,117.500000L145.600000,119.100000C145.200000,120.300000,144.500000,121.400000,143.700000,122.400000L142.600000,123.700000L144.400000,126.800000C143.400000,127.600000,142.400000,128.200000,141.200000,128.600000L139.400000,125.500000L137.700000,125.800000C136.500000,126,135.200000,126,133.900000,125.800000L132.200000,125.500000L130.400000,128.600000C129.300000,128.100000,128.200000,127.500000,127.200000,126.800000L129,123.700000L127.900000,122.400000C127.100000,121.400000,126.400000,120.300000,126,119.100000L125.400000,117.500000L121.800000,117.500000C121.600000,116.300000,121.600000,115,121.800000,113.800000L125.400000,113.800000L126,112.200000C126.400000,111,127.100000,109.900000,127.900000,108.900000L129,107.600000L127.200000,104.500000C128.200000,103.700000,129.200000,103.100000,130.400000,102.700000L132.200000,105.800000L133.900000,105.500000C135.100000,105.300000,136.400000,105.300000,137.700000,105.500000L139.400000,105.800000L141.200000,102.700000C142.300000,103.200000,143.400000,103.800000,144.400000,104.500000L142.600000,107.600000L143.700000,108.900000C144.500000,109.900000,145.200000,111,145.600000,112.200000L146.200000,113.800000L149.800000,113.800000C149.900000,115,149.900000,116.300000,149.800000,117.500000Z" fill="rgb(68,79,109)" stroke="none" stroke-width="1"/><circle id="cicd-circle1" r="5.500000" transform="matrix(1 0 0 1 135.59999999999999 115.50000000000000)" fill="rgb(68,79,109)" stroke="none" stroke-width="1"/></g></g><g id="cicd-cicd_x5f_small_x5f_top_tr" transform="translate(135.550003,63.500679) rotate(0)"><g id="cicd-cicd_x5f_small_x5f_top" transform="translate(-135.550003,-63.500679)"><path id="cicd-path2" d="M154.300000,60.400000C153.900000,58.500000,152.300000,57.100000,150.300000,57.100000L149.400000,57.100000C149.100000,56.500000,148.800000,55.900000,148.400000,55.300000L148.800000,54.500000C149.800000,52.800000,149.400000,50.600000,147.900000,49.300000C146,47.700000,144.500000,46.800000,142.200000,46C140.300000,45.400000,138.300000,46.100000,137.300000,47.800000L136.900000,48.600000C136.200000,48.500000,135.500000,48.500000,134.800000,48.600000L134.400000,47.800000C133.400000,46.100000,131.400000,45.400000,129.500000,46C127.100000,46.800000,125.600000,47.700000,123.800000,49.200000C122.300000,50.500000,121.900000,52.700000,122.900000,54.400000L123.300000,55.200000C122.900000,55.800000,122.600000,56.400000,122.300000,57L120.800000,57C118.800000,57,117.100000,58.400000,116.800000,60.300000C116.300000,62.700000,116.300000,64.500000,116.800000,66.900000C117.200000,68.800000,118.800000,70.200000,120.800000,70.200000L122.400000,70.200000C122.700000,70.800000,123,71.400000,123.400000,72L123,72.700000C122,74.400000,122.400000,76.600000,123.900000,77.900000C125.800000,79.500000,127.400000,80.300000,129.800000,81C131.600000,81.600000,133.500000,80.800000,134.500000,79.300000L134.900000,78.600000C135.600000,78.700000,136.300000,78.700000,137,78.600000L137.400000,79.300000C138.400000,80.900000,140.300000,81.600000,142.100000,81C144.500000,80.200000,146.100000,79.400000,147.900000,77.900000C149.400000,76.600000,149.800000,74.400000,148.800000,72.700000L148.400000,72C148.800000,71.400000,149.100000,70.800000,149.400000,70.200000L150.300000,70.200000C152.300000,70.200000,154,68.800000,154.300000,66.900000C154.800000,64.600000,154.800000,62.800000,154.300000,60.400000ZM149.800000,65.600000L146.200000,65.600000L145.600000,67.200000C145.200000,68.400000,144.500000,69.500000,143.700000,70.500000L142.600000,71.800000L144.400000,74.900000C143.400000,75.700000,142.400000,76.300000,141.200000,76.700000L139.400000,73.600000L137.700000,73.900000C136.500000,74.100000,135.200000,74.100000,133.900000,73.900000L132.200000,73.600000L130.400000,76.700000C129.300000,76.200000,128.200000,75.600000,127.200000,74.900000L129,71.800000L127.900000,70.500000C127.100000,69.500000,126.400000,68.400000,126,67.200000L125.400000,65.600000L121.800000,65.600000C121.600000,64.400000,121.600000,63.100000,121.800000,61.900000L125.400000,61.900000L126,60.300000C126.400000,59.100000,127.100000,58,127.900000,57L129,55.700000L127.200000,52.600000C128.200000,51.800000,129.200000,51.200000,130.400000,50.800000L132.200000,53.900000L133.900000,53.600000C135.100000,53.400000,136.400000,53.400000,137.700000,53.600000L139.400000,53.900000L141.200000,50.800000C142.300000,51.300000,143.400000,51.900000,144.400000,52.600000L142.600000,55.700000L143.700000,57C144.500000,58,145.200000,59.100000,145.600000,60.300000L146.200000,61.900000L149.800000,61.900000C149.900000,63.100000,149.900000,64.400000,149.800000,65.600000Z" fill="rgb(68,79,109)" stroke="none" stroke-width="1"/><circle id="cicd-circle2" r="5.500000" transform="matrix(1 0 0 1 135.59999999999999 63.60000000000000)" fill="rgb(68,79,109)" stroke="none" stroke-width="1"/></g></g><g id="cicd-cicd_x5f_big_tr" transform="translate(82.560093,90.299328) rotate(0)"><g id="cicd-cicd_x5f_big" transform="translate(-82.560093,-90.299328)"><path id="cicd-path3" d="M82.300000,104.400000C74.500000,104.400000,68.200000,98.100000,68.200000,90.300000C68.200000,82.500000,74.500000,76.200000,82.300000,76.200000C90.100000,76.200000,96.400000,82.500000,96.400000,90.300000C96.400000,98.100000,90.100000,104.400000,82.300000,104.400000ZM82.300000,81.600000C77.500000,81.600000,73.600000,85.500000,73.600000,90.300000C73.600000,95.100000,77.500000,99,82.300000,99C87.100000,99,91,95.100000,91,90.300000C91,85.500000,87.100000,81.600000,82.300000,81.600000L82.300000,81.600000Z" fill="rgb(68,79,109)" stroke="none" stroke-width="1"/><path id="cicd-path4" d="M117.700000,96.900000L112.900000,93.900000C113.200000,91.500000,113.200000,89.100000,112.900000,86.700000L117.200000,84C118.800000,83,119.500000,81.100000,118.900000,79.300000C117.100000,73.700000,114.600000,69.300000,110,64.200000C108.700000,62.800000,106.600000,62.500000,104.900000,63.400000L100.200000,66.100000C98.300000,64.700000,96.200000,63.500000,94,62.500000L94,57.100000C94,55.200000,92.700000,53.500000,90.800000,53.100000C84,51.600000,79.400000,51.800000,73.400000,53.100000C71.500000,53.500000,70.200000,55.200000,70.200000,57.100000L70.200000,62.500000C68,63.500000,65.900000,64.600000,64,66.100000L59.300000,63.400000C57.600000,62.400000,55.500000,62.800000,54.200000,64.200000C50,68.700000,47.600000,72.700000,45.600000,79.200000C45.100000,81,45.900000,83,47.500000,84L52.200000,86.700000C51.900000,89.100000,51.900000,91.500000,52.200000,93.900000L47.500000,96.600000C45.800000,97.600000,45.100000,99.600000,45.700000,101.400000C47.800000,108,50.200000,111.900000,54.300000,116.400000C55.600000,117.800000,57.700000,118.100000,59.400000,117.200000L64.100000,114.500000C66,116,68.100000,117.200000,70.300000,118.100000L70.300000,123.500000C70.300000,125.400000,71.600000,127.100000,73.500000,127.500000C79.800000,128.900000,84.500000,128.900000,90.900000,127.500000C92.800000,127.100000,94.100000,125.400000,94.100000,123.500000L94.100000,118.100000C96.300000,117.100000,98.400000,116,100.300000,114.500000L105,117.200000C106.700000,118.200000,108.800000,117.800000,110.100000,116.400000C114,112.200000,118.500000,106.500000,119.600000,101.200000C119.900000,99.500000,119.200000,97.800000,117.700000,96.900000ZM106.800000,111.900000L99.700000,107.800000L98.200000,109.100000C95.900000,111.100000,93.200000,112.600000,90.400000,113.600000L88.600000,114.200000L88.600000,122.300000C84.400000,123.200000,80,123.200000,75.800000,122.300000L75.800000,114.200000L74,113.600000C71.100000,112.600000,68.500000,111.100000,66.200000,109.100000L64.700000,107.800000L57.600000,111.900000C54.700000,108.700000,52.500000,104.900000,51.200000,100.800000L58.300000,96.700000L57.900000,94.800000C57.400000,91.800000,57.400000,88.700000,57.900000,85.700000L58.300000,83.800000L51.200000,79.700000C52.600000,75.600000,54.800000,71.800000,57.600000,68.600000L64.700000,72.700000L66.200000,71.400000C68.500000,69.400000,71.200000,67.900000,74,66.900000L75.800000,66.300000L75.800000,58.200000C80,57.300000,84.400000,57.300000,88.600000,58.200000L88.600000,66.300000L90.400000,66.900000C93.300000,67.900000,95.900000,69.400000,98.200000,71.400000L99.700000,72.700000L106.800000,68.600000C109.700000,71.800000,112.600000,75.600000,114,79.700000L106.900000,83.800000L107.300000,85.700000C107.800000,88.700000,107.800000,91.800000,107.300000,94.800000L106.900000,96.700000L114,100.800000C112.600000,104.800000,109.600000,108.600000,106.800000,111.900000Z" fill="rgb(68,79,109)" stroke="none" stroke-width="1"/></g></g></g></svg>