<?xml version="1.0" encoding="utf-8"?>
<!-- Generator: Adobe Illustrator 25.0.1, SVG Export Plug-In . SVG Version: 6.00 Build 0)  -->
<svg version="1.1" id="Layer_1" xmlns="http://www.w3.org/2000/svg" xmlns:xlink="http://www.w3.org/1999/xlink" x="0px" y="0px"
	 viewBox="0 0 200 180" enable-background="new 0 0 200 180" xml:space="preserve">
<g id="css3_1_">
	<polygon id="css3_x5F_shield" fill="#2062AF" points="142.8,137.7 100,149.2 57.2,137.7 47.4,30.8 152.6,30.8 	"/>
	<polygon id="css3_x5F_shield_x5F_highlight" fill="#3C9CD7" points="100,39.4 100,140 100.1,140.1 134.7,130.8 142.7,39.4 	"/>
	<g id="css3_x5F_three">
		<polygon id="css3_x5F_three_x5F_bottom_x5F_right" fill="#F9F9F8" points="100,91.6 115.8,91.7 114.8,108.5 100,112.7 100,126.8 
			100,126.8 126.9,119 130.3,78.9 100,78.9 		"/>
		<polygon id="css3_x5F_three_x5F_top_x5F_right" fill="#F9F9F8" points="100,52.5 100,65.4 101.7,65.4 100,66.1 100,78.9 
			131.5,65.4 132.7,52.5 		"/>
		<polygon id="css3_x5F_three_x5F_top_x5F_left" fill="#D6D5D3" points="100,52.5 66.6,52.5 68.2,65.4 100,65.4 		"/>
		<polygon id="css3_x5F_three_x5F_middle_x5F_left" fill="#D6D5D3" points="100,78.9 99.9,78.9 100,78.9 100,78.9 100,66.1 
			100,66.2 69.3,78.9 70.4,91.5 70.4,91.5 70.4,91.5 100,91.6 		"/>
		<polygon id="css3_x5F_three_x5F_bottom_x5F_left" fill="#D6D5D3" points="100,112.7 99.9,112.7 85.5,109.1 84.6,98.7 71.3,98.7 
			73,118.8 100,126.8 		"/>
	</g>
</g>
</svg>
