<?xml version="1.0" encoding="utf-8"?>
<!-- Generator: Adobe Illustrator 25.0.1, SVG Export Plug-In . SVG Version: 6.00 Build 0)  -->
<svg version="1.1" id="Layer_1" xmlns="http://www.w3.org/2000/svg" xmlns:xlink="http://www.w3.org/1999/xlink" x="0px" y="0px"
	 viewBox="0 0 200 180" enable-background="new 0 0 200 180" xml:space="preserve">
<g id="css3_2_">
	<polygon id="shield_6_" fill="#2062AF" points="142.8,137.7 100,149.2 57.2,137.7 47.4,30.8 152.6,30.8 	"/>
	<polygon id="shield-highlight_6_" fill="#3C9CD7" points="100,39.4 100,140 100.1,140.1 134.7,130.8 142.7,39.4 	"/>
	<path fill="#F9F9F8" d="M100,54v6h8v16h16v17h-16v16h-8v6h8h22V93V76V54h-22H100z M124,109h-13V96h13V109z M111,60h13v13h-13V60z"
		/>
	<path fill="#D6D5D3" d="M100,109h-9V93H75V76h16V60h9v-6h-9H69v22v17v22h22h9V109z M75,60h13v13H75V60z M88,109H75V96h13V109z"/>
</g>
</svg>
