<?xml version="1.0" encoding="utf-8"?>
<!-- Generator: Adobe Illustrator 25.0.1, SVG Export Plug-In . SVG Version: 6.00 Build 0)  -->
<svg version="1.1" id="Layer_1" xmlns="http://www.w3.org/2000/svg" xmlns:xlink="http://www.w3.org/1999/xlink" x="0px" y="0px"
	 viewBox="0 0 200 180" enable-background="new 0 0 200 180" xml:space="preserve">
<g id="css3">
	<polygon id="shield_1_" fill="#2062AF" points="142.8,137.7 100,149.2 57.2,137.7 47.4,30.8 152.6,30.8 	"/>
	<polygon id="shield-highlight_1_" fill="#3C9CD7" points="100,39.4 100,140 100.1,140.1 134.7,130.8 142.7,39.4 	"/>
	<path fill="#D6D5D3" d="M100,114v-3h-9V95h9v-3h-9V76h9v-3h-9V54H69v19v3v19h19v19H100z M72,57h16v16H72V57z M72,92V76h16v16H72z"
		/>
	<path fill="#F9F9F8" d="M107,73h-7v3h7v16h-7v3h7v16h-7v3h7h3h19V92h-19V76h19V54h-22V73z M110,57h16v16h-16V57z M110,95h16v16h-16
		V95z"/>
</g>
</svg>
