<svg id="csstt" xmlns="http://www.w3.org/2000/svg" xmlns:xlink="http://www.w3.org/1999/xlink" viewBox="0 0 200 180" shape-rendering="geometricPrecision" text-rendering="geometricPrecision"><style><![CDATA[#csstt-css3tt_x5f_stars_tr {animation: csstt-css3tt_x5f_stars_tr__tr 3500ms linear infinite normal forwards}@keyframes csstt-css3tt_x5f_stars_tr__tr { 0% {transform: translate(100.100002px,82.769693px) rotate(0deg)} 100% {transform: translate(100.100002px,82.769693px) rotate(360deg)} }#csstt-css3tt_x5f_star3_tr {animation: csstt-css3tt_x5f_star3_tr__tr 3500ms linear infinite normal forwards}@keyframes csstt-css3tt_x5f_star3_tr__tr { 0% {transform: translate(100.099991px,67.419699px) rotate(0deg)} 100% {transform: translate(100.099991px,67.419699px) rotate(-360deg)} }#csstt-css3tt_x5f_star3_ts {animation: csstt-css3tt_x5f_star3_ts__ts 3500ms linear infinite normal forwards}@keyframes csstt-css3tt_x5f_star3_ts__ts { 0% {transform: scale(1,1)} 45.714286% {transform: scale(2,2)} 100% {transform: scale(1,1)} }#csstt-css3tt_x5f_star3 {animation: csstt-css3tt_x5f_star3_c_o 3500ms linear infinite normal forwards}@keyframes csstt-css3tt_x5f_star3_c_o { 0% {opacity: 0} 25.714286% {opacity: 1} 65.714286% {opacity: 1} 100% {opacity: 0} }#csstt-css3tt_x5f_star2_tr {animation: csstt-css3tt_x5f_star2_tr__tr 3500ms linear infinite normal forwards}@keyframes csstt-css3tt_x5f_star2_tr__tr { 0% {transform: translate(82.399986px,98.119701px) rotate(0deg)} 100% {transform: translate(82.399986px,98.119701px) rotate(-360deg)} }#csstt-css3tt_x5f_star2_ts {animation: csstt-css3tt_x5f_star2_ts__ts 3500ms linear infinite normal forwards}@keyframes csstt-css3tt_x5f_star2_ts__ts { 0% {transform: scale(1,1)} 45.714286% {transform: scale(1,1)} 100% {transform: scale(1,1)} }#csstt-css3tt_x5f_star2 {animation: csstt-css3tt_x5f_star2_c_o 3500ms linear infinite normal forwards}@keyframes csstt-css3tt_x5f_star2_c_o { 0% {opacity: 0} 25.714286% {opacity: 0} 42.857143% {opacity: 1} 54.285714% {opacity: 1} 71.428571% {opacity: 0} 100% {opacity: 0} }#csstt-css3tt_x5f_star1_tr {animation: csstt-css3tt_x5f_star1_tr__tr 3500ms linear infinite normal forwards}@keyframes csstt-css3tt_x5f_star1_tr__tr { 0% {transform: translate(117.799992px,98.119701px) rotate(0deg)} 100% {transform: translate(117.799992px,98.119701px) rotate(-360deg)} }#csstt-css3tt_x5f_star1_ts {animation: csstt-css3tt_x5f_star1_ts__ts 3500ms linear infinite normal forwards}@keyframes csstt-css3tt_x5f_star1_ts__ts { 0% {transform: scale(1,1)} 45.714286% {transform: scale(1,1)} 100% {transform: scale(1,1)} }#csstt-css3tt_x5f_star1 {animation: csstt-css3tt_x5f_star1_c_o 3500ms linear infinite normal forwards}@keyframes csstt-css3tt_x5f_star1_c_o { 0% {opacity: 0} 25.714286% {opacity: 0} 42.857143% {opacity: 1} 54.285714% {opacity: 1} 71.428571% {opacity: 0} 100% {opacity: 0} }]]></style><g id="csstt-css3tt"><polygon id="csstt-css3tt_x5f_shield" points="142.800000,137.700000 100,149.200000 57.200000,137.700000 47.400000,30.800000 152.600000,30.800000" fill="rgb(32,98,175)" stroke="none" stroke-width="1"/><polygon id="csstt-css3tt_x5f_shield_x5f_highlight" points="100,39.400000 100,140 100.100000,140.100000 134.700000,130.800000 142.700000,39.400000" fill="rgb(60,156,215)" stroke="none" stroke-width="1"/><g id="csstt-css3tt_x5f_stars_tr" transform="translate(100.100002,82.769693) rotate(0)"><g id="csstt-css3tt_x5f_stars" transform="translate(-100.100002,-82.769693)"><g id="csstt-css3tt_x5f_star3_tr" transform="translate(100.099991,67.419699) rotate(0)"><g id="csstt-css3tt_x5f_star3_ts" transform="scale(1,1)"><g id="csstt-css3tt_x5f_star3" transform="translate(-100.099991,-67.419699)" opacity="0"><polygon id="csstt-css3tt_x5f_star3_x5f_inner" points="99.700000,57 96.500000,63.200000 88.800000,64.600000 93.700000,70.200000 92.900000,78.100000 100,74.400000 106.800000,78.100000 106,70.500000 111.300000,64.600000 103.600000,63.300000" fill="rgb(255,255,0)" stroke="none" stroke-width="1"/><path id="csstt-css3tt_x5f_star3_x5f_outer" d="M106.900000,79.100000C106.700000,79.100000,106.500000,79.100000,106.400000,79L100.100000,75.700000L93.800000,79C93.400000,79.200000,92.900000,79.200000,92.600000,78.900000C92.200000,78.600000,92.100000,78.200000,92.100000,77.800000L93.300000,70.700000L88.200000,65.700000C87.900000,65.400000,87.800000,64.900000,87.900000,64.500000C88,64.100000,88.400000,63.800000,88.800000,63.700000L95.900000,62.700000L99.100000,56.300000C99.300000,55.900000,99.700000,55.700000,100.100000,55.700000C100.500000,55.700000,100.900000,55.900000,101.100000,56.300000L104.300000,62.700000L111.400000,63.700000C111.800000,63.800000,112.200000,64.100000,112.300000,64.500000C112.400000,64.900000,112.300000,65.400000,112,65.700000L106.900000,70.700000L108.100000,77.800000C108.200000,78.200000,108,78.700000,107.600000,78.900000C107.400000,79,107.100000,79.100000,106.900000,79.100000ZM100,73.800000C100.200000,73.800000,100.400000,73.800000,100.500000,73.900000L106.100000,76.800000L105,70.600000C104.900000,70.200000,105.100000,69.800000,105.300000,69.600000L109.800000,65.200000L103.600000,64.300000C103.200000,64.200000,102.900000,64,102.700000,63.700000L100,58L97.200000,63.600000C97,63.900000,96.700000,64.200000,96.300000,64.200000L90.100000,65.100000L94.600000,69.500000C94.900000,69.800000,95,70.100000,94.900000,70.500000L93.800000,76.700000L99.400000,73.800000C99.600000,73.800000,99.800000,73.800000,100,73.800000ZM99.700000,75.500000C99.700000,75.500000,99.700000,75.500000,99.700000,75.500000L99.700000,75.500000ZM100.300000,75.500000L100.300000,75.500000C100.300000,75.500000,100.300000,75.500000,100.300000,75.500000Z" fill="rgb(68,79,109)" stroke="none" stroke-width="1"/></g></g></g><g id="csstt-css3tt_x5f_star2_tr" transform="translate(82.399986,98.119701) rotate(0)"><g id="csstt-css3tt_x5f_star2_ts" transform="scale(1,1)"><g id="csstt-css3tt_x5f_star2" transform="translate(-82.399986,-98.119701)" opacity="0"><polygon id="csstt-css3tt_x5f_star2_x5f_inner" points="82.100000,87.800000 78.800000,94 71.100000,95.400000 76.100000,101 75.200000,108.900000 82.300000,105.200000 89.100000,108.900000 88.300000,101.300000 93.600000,95.400000 86,94.100000" fill="rgb(255,255,0)" stroke="none" stroke-width="1"/><path id="csstt-css3tt_x5f_star2_x5f_outer" d="M89.200000,109.800000C89,109.800000,88.800000,109.800000,88.700000,109.700000L82.400000,106.400000L76.100000,109.700000C75.700000,109.900000,75.200000,109.900000,74.900000,109.600000C74.500000,109.300000,74.400000,108.900000,74.400000,108.500000L75.600000,101.400000L70.500000,96.400000C70.200000,96.100000,70.100000,95.600000,70.200000,95.200000C70.300000,94.800000,70.700000,94.500000,71.100000,94.400000L78.200000,93.400000L81.400000,87C81.600000,86.600000,82,86.400000,82.400000,86.400000C82.800000,86.400000,83.200000,86.600000,83.400000,87L86.600000,93.400000L93.700000,94.400000C94.100000,94.500000,94.500000,94.800000,94.600000,95.200000C94.700000,95.600000,94.600000,96.100000,94.300000,96.400000L89.200000,101.400000L90.400000,108.500000C90.500000,108.900000,90.300000,109.400000,89.900000,109.600000C89.700000,109.800000,89.400000,109.800000,89.200000,109.800000ZM82.300000,104.600000C82.500000,104.600000,82.700000,104.600000,82.800000,104.700000L88.400000,107.600000L87.300000,101.400000C87.200000,101,87.400000,100.600000,87.600000,100.400000L92.100000,96L86,95.100000C85.600000,95,85.300000,94.800000,85.100000,94.500000L82.300000,88.900000L79.500000,94.500000C79.300000,94.800000,79,95.100000,78.600000,95.100000L72.400000,96L76.900000,100.400000C77.200000,100.700000,77.300000,101,77.200000,101.400000L76.100000,107.600000L81.700000,104.700000C82,104.600000,82.100000,104.600000,82.300000,104.600000ZM82.100000,106.200000C82.100000,106.200000,82.100000,106.200000,82.100000,106.200000L82.100000,106.200000ZM82.600000,106.200000L82.600000,106.200000C82.600000,106.200000,82.600000,106.200000,82.600000,106.200000Z" fill="rgb(68,79,109)" stroke="none" stroke-width="1"/></g></g></g><g id="csstt-css3tt_x5f_star1_tr" transform="translate(117.799992,98.119701) rotate(0)"><g id="csstt-css3tt_x5f_star1_ts" transform="scale(1,1)"><g id="csstt-css3tt_x5f_star1" transform="translate(-117.799992,-98.119701)" opacity="0"><polygon id="csstt-css3tt_x5f_star1_x5f_inner" points="117.400000,87.800000 114.200000,94 106.500000,95.400000 111.400000,101 110.600000,108.900000 117.700000,105.200000 124.500000,108.900000 123.700000,101.300000 129,95.400000 121.300000,94.100000" fill="rgb(255,255,0)" stroke="none" stroke-width="1"/><path id="csstt-css3tt_x5f_star1_x5f_outer" d="M124.600000,109.800000C124.400000,109.800000,124.200000,109.800000,124.100000,109.700000L117.800000,106.400000L111.500000,109.700000C111.100000,109.900000,110.600000,109.900000,110.300000,109.600000C109.900000,109.300000,109.800000,108.900000,109.800000,108.500000L111,101.400000L105.900000,96.400000C105.600000,96.100000,105.500000,95.600000,105.600000,95.200000C105.700000,94.800000,106.100000,94.500000,106.500000,94.400000L113.600000,93.400000L116.800000,87C117,86.600000,117.400000,86.400000,117.800000,86.400000C118.200000,86.400000,118.600000,86.600000,118.800000,87L122,93.400000L129.100000,94.400000C129.500000,94.500000,129.900000,94.800000,130,95.200000C130.100000,95.600000,130,96.100000,129.700000,96.400000L124.600000,101.400000L125.800000,108.500000C125.900000,108.900000,125.700000,109.400000,125.300000,109.600000C125.100000,109.800000,124.800000,109.800000,124.600000,109.800000ZM117.700000,104.600000C117.900000,104.600000,118.100000,104.600000,118.200000,104.700000L123.800000,107.600000L122.700000,101.400000C122.600000,101,122.800000,100.600000,123,100.400000L127.500000,96L121.300000,95.100000C120.900000,95,120.600000,94.800000,120.400000,94.500000L117.600000,88.900000L114.800000,94.500000C114.600000,94.800000,114.300000,95.100000,113.900000,95.100000L107.700000,96L112.200000,100.400000C112.500000,100.700000,112.600000,101,112.500000,101.400000L111.400000,107.600000L117,104.700000C117.300000,104.600000,117.500000,104.600000,117.700000,104.600000ZM117.400000,106.200000C117.400000,106.200000,117.400000,106.200000,117.400000,106.200000L117.400000,106.200000ZM118,106.200000L118,106.200000C118,106.200000,118,106.200000,118,106.200000Z" fill="rgb(68,79,109)" stroke="none" stroke-width="1"/></g></g></g></g></g></g></svg>