<svg id="emaildesign" xmlns="http://www.w3.org/2000/svg" xmlns:xlink="http://www.w3.org/1999/xlink" viewBox="0 0 200 180" shape-rendering="geometricPrecision" text-rendering="geometricPrecision"><style><![CDATA[#emaildesign-path2_ts {animation: emaildesign-path2_ts__ts 1500ms linear infinite normal forwards}@keyframes emaildesign-path2_ts__ts { 0% {transform: translate(165.550011px,81.750000px) scale(0.650000,0.650000)} 46.666667% {transform: translate(165.550011px,81.750000px) scale(1,1)} 100% {transform: translate(165.550011px,81.750000px) scale(0.650000,0.650000)} }#emaildesign-path3_ts {animation: emaildesign-path3_ts__ts 1500ms linear infinite normal forwards}@keyframes emaildesign-path3_ts__ts { 0% {transform: translate(107.050003px,48.949999px) scale(1,1)} 46.666667% {transform: translate(107.050003px,48.949999px) scale(0.650000,0.650000)} 100% {transform: translate(107.050003px,48.949999px) scale(1,1)} }#emaildesign-path4_ts {animation: emaildesign-path4_ts__ts 1500ms linear infinite normal forwards}@keyframes emaildesign-path4_ts__ts { 0% {transform: translate(34.150004px,63.849998px) scale(0.650000,0.650000)} 46.666667% {transform: translate(34.150004px,63.849998px) scale(1,1)} 100% {transform: translate(34.150004px,63.849998px) scale(0.650000,0.650000)} }]]></style><g id="emaildesign-emaildesign"><path id="emaildesign-path1" d="M139.600000,67.300000L60.100000,67.300000C55,67.300000,50.900000,71.400000,50.900000,76.500000L50.900000,131.500000C50.900000,136.600000,55,140.700000,60.100000,140.700000L139.600000,140.700000C144.700000,140.700000,148.800000,136.600000,148.800000,131.500000L148.800000,76.500000C148.700000,71.400000,144.600000,67.300000,139.600000,67.300000ZM60.100000,73.400000L139.600000,73.400000C141.300000,73.400000,142.700000,74.800000,142.700000,76.500000L142.700000,84.400000C138.500000,87.900000,132.500000,92.800000,113.900000,107.600000C110.700000,110.200000,104.300000,116.300000,99.900000,116.300000C95.500000,116.400000,89.100000,110.200000,85.900000,107.600000C67.200000,92.800000,61.200000,87.900000,57.100000,84.400000L57.100000,76.500000C57.100000,74.800000,58.400000,73.400000,60.100000,73.400000ZM139.600000,134.600000L60.100000,134.600000C58.400000,134.600000,57,133.200000,57,131.500000L57,92.300000C61.400000,95.900000,68.200000,101.400000,82,112.300000C85.900000,115.400000,92.800000,122.300000,99.800000,122.300000C106.800000,122.400000,113.600000,115.500000,117.600000,112.300000C131.300000,101.400000,138.200000,95.900000,142.600000,92.300000L142.600000,131.500000C142.600000,133.200000,141.300000,134.600000,139.600000,134.600000Z" fill="rgb(68,79,109)" stroke="none" stroke-width="1"/><g id="emaildesign-path2_ts" transform="translate(165.550011,81.750000) scale(0.650000,0.650000)"><path id="emaildesign-path2" d="M174.300000,81.100000L168.600000,78.700000L166.200000,73C166,72.600000,165.600000,72.500000,165.200000,72.700000C165,72.800000,164.900000,72.900000,164.900000,73L162.500000,78.700000L156.800000,81.100000C156.400000,81.300000,156.300000,81.700000,156.500000,82.100000C156.600000,82.300000,156.700000,82.400000,156.800000,82.400000L162.500000,84.800000L164.900000,90.500000C165.100000,90.900000,165.500000,91,165.900000,90.800000C166.100000,90.700000,166.200000,90.600000,166.200000,90.500000L168.600000,84.800000L174.300000,82.400000C174.700000,82.200000,174.800000,81.800000,174.600000,81.400000C174.600000,81.300000,174.500000,81.200000,174.300000,81.100000L174.300000,81.100000Z" transform="translate(-165.550011,-81.750000)" fill="rgb(68,79,109)" stroke="none" stroke-width="1"/></g><g id="emaildesign-path3_ts" transform="translate(107.050003,48.949999) scale(1,1)"><path id="emaildesign-path3" d="M115.800000,48.300000L110.100000,45.900000L107.700000,40.200000C107.500000,39.800000,107.100000,39.700000,106.700000,39.900000C106.500000,40,106.400000,40.100000,106.400000,40.200000L104.100000,45.900000L98.400000,48.300000C98,48.500000,97.900000,48.900000,98.100000,49.300000C98.200000,49.500000,98.300000,49.600000,98.400000,49.600000L104,52L106.400000,57.700000C106.600000,58.100000,107,58.200000,107.400000,58C107.600000,57.900000,107.700000,57.800000,107.700000,57.700000L110,52L115.700000,49.600000C116.100000,49.400000,116.200000,49,116,48.600000C116.100000,48.500000,116,48.400000,115.800000,48.300000L115.800000,48.300000Z" transform="translate(-107.050003,-48.949999)" fill="rgb(68,79,109)" stroke="none" stroke-width="1"/></g><g id="emaildesign-path4_ts" transform="translate(34.150004,63.849998) scale(0.650000,0.650000)"><path id="emaildesign-path4" d="M37.200000,60.800000L34.800000,55.100000C34.600000,54.700000,34.200000,54.600000,33.800000,54.800000C33.600000,54.900000,33.500000,55,33.500000,55.100000L31.100000,60.800000L25.400000,63.200000C25,63.400000,24.900000,63.800000,25.100000,64.200000C25.200000,64.400000,25.300000,64.500000,25.400000,64.500000L31.100000,66.900000L33.500000,72.600000C33.700000,73,34.100000,73.100000,34.500000,72.900000C34.700000,72.800000,34.800000,72.700000,34.800000,72.600000L37.200000,66.900000L42.900000,64.500000C43.300000,64.300000,43.400000,63.900000,43.200000,63.500000C43.100000,63.300000,43,63.200000,42.900000,63.200000L37.200000,60.800000Z" transform="translate(-34.150004,-63.849998)" fill="rgb(68,79,109)" stroke="none" stroke-width="1"/></g></g></svg>