<svg id="emaildev" xmlns="http://www.w3.org/2000/svg" xmlns:xlink="http://www.w3.org/1999/xlink" viewBox="0 0 200 180" shape-rendering="geometricPrecision" text-rendering="geometricPrecision"><style><![CDATA[#emaildev-emaildev_x5f_gear_tr {animation: emaildev-emaildev_x5f_gear_tr__tr 3000ms linear infinite normal forwards}@keyframes emaildev-emaildev_x5f_gear_tr__tr { 0% {transform: translate(128.034485px,73.899342px) rotate(0deg)} 100% {transform: translate(128.034485px,73.899342px) rotate(360deg)} }]]></style><g id="emaildev-emaildev"><g id="emaildev-emaildev_x5f_gear_tr" transform="translate(128.034485,73.899342) rotate(0)"><g id="emaildev-emaildev_x5f_gear" transform="translate(-128.034485,-73.899342)"><path id="emaildev-emaildev_x5f_gear_x5f_inner" d="M127.800000,88.100000C120,88.100000,113.700000,81.800000,113.700000,74C113.700000,66.200000,120,59.900000,127.800000,59.900000C135.600000,59.900000,142,66.100000,142,73.900000C142,81.700000,135.600000,88.100000,127.800000,88.100000ZM127.800000,65.200000C123,65.200000,119.100000,69.100000,119.100000,73.900000C119.100000,78.700000,123,82.600000,127.800000,82.600000C132.600000,82.600000,136.500000,78.700000,136.500000,73.900000C136.500000,69.100000,132.600000,65.200000,127.800000,65.200000L127.800000,65.200000Z" fill="rgb(68,79,109)" stroke="none" stroke-width="1"/><path id="emaildev-emaildev_x5f_gear_x5f_outer" d="M163.200000,80.500000L158.400000,77.500000C158.700000,75.100000,158.700000,72.700000,158.400000,70.300000L162.700000,67.600000C164.300000,66.600000,165,64.700000,164.400000,62.900000C162.600000,57.300000,160.100000,52.900000,155.500000,47.800000C154.200000,46.400000,152.100000,46.100000,150.400000,47L145.700000,49.700000C143.800000,48.300000,141.700000,47.100000,139.500000,46.100000L139.500000,40.700000C139.500000,38.800000,138.200000,37.100000,136.300000,36.700000C129.500000,35.200000,124.900000,35.400000,118.900000,36.700000C117,37.100000,115.700000,38.800000,115.700000,40.700000L115.700000,46.100000C113.500000,47.100000,111.400000,48.200000,109.500000,49.700000L104.800000,47C103.100000,46,101,46.400000,99.700000,47.800000C95.500000,52.300000,93.100000,56.300000,91.100000,62.800000C90.500000,64.600000,91.300000,66.600000,92.900000,67.600000L97.600000,70.300000C97.300000,72.700000,97.300000,75.100000,97.600000,77.500000L93,80.200000C91.300000,81.200000,90.600000,83.200000,91.200000,85C93.300000,91.600000,95.700000,95.500000,99.800000,100C101.100000,101.400000,103.200000,101.700000,104.900000,100.800000L109.600000,98.100000C111.500000,99.600000,113.600000,100.800000,115.800000,101.700000L115.800000,107.100000C115.800000,109,117.100000,110.700000,119,111.100000C125.300000,112.500000,130,112.500000,136.400000,111.100000C138.300000,110.700000,139.600000,109,139.600000,107.100000L139.600000,101.700000C141.800000,100.700000,143.900000,99.600000,145.800000,98.100000L150.500000,100.800000C152.200000,101.800000,154.300000,101.400000,155.600000,100C159.500000,95.800000,164,90.100000,165.100000,84.800000C165.400000,83.200000,164.700000,81.400000,163.200000,80.500000ZM152.300000,95.500000L145.200000,91.400000L143.700000,92.700000C141.400000,94.700000,138.700000,96.200000,135.900000,97.200000L134.100000,97.800000L134.100000,105.900000C129.900000,106.800000,125.500000,106.800000,121.300000,105.900000L121.300000,97.800000L119.500000,97.200000C116.600000,96.200000,114,94.700000,111.700000,92.700000L110.200000,91.400000L103.100000,95.500000C100.200000,92.300000,98,88.500000,96.700000,84.400000L103.800000,80.300000L103.400000,78.400000C102.900000,75.400000,102.900000,72.300000,103.400000,69.300000L103.800000,67.400000L96.700000,63.300000C98.100000,59.200000,100.300000,55.400000,103.100000,52.200000L110.200000,56.300000L111.700000,55C114,53,116.700000,51.500000,119.500000,50.500000L121.300000,49.900000L121.300000,41.800000C125.500000,40.900000,129.900000,40.900000,134.100000,41.800000L134.100000,49.900000L135.900000,50.500000C138.800000,51.500000,141.400000,53,143.700000,55L145.200000,56.300000L152.300000,52.200000C155.200000,55.400000,158.100000,59.200000,159.500000,63.300000L152.400000,67.400000L152.800000,69.300000C153.300000,72.300000,153.300000,75.400000,152.800000,78.400000L152.400000,80.300000L159.500000,84.400000C158.100000,88.500000,155.200000,92.300000,152.300000,95.500000Z" fill="rgb(68,79,109)" stroke="none" stroke-width="1"/></g></g><path id="emaildev-emaildev_x5f_hider" d="M131.600000,115.300000L89.600000,115.300000L89.600000,71.300000L123.600000,71.300000C128,71.300000,131.600000,74.900000,131.600000,79.300000L131.600000,115.300000Z" fill="rgb(255,255,255)" stroke="none" stroke-width="1"/><path id="emaildev-emaildev_x5f_body" d="M123.500000,70.900000L44,70.900000C38.900000,70.900000,34.800000,75,34.800000,80.100000L34.800000,135.100000C34.800000,140.200000,38.900000,144.300000,44,144.300000L123.500000,144.300000C128.600000,144.300000,132.700000,140.200000,132.700000,135.100000L132.700000,80.100000C132.600000,75.100000,128.500000,70.900000,123.500000,70.900000ZM44,77.100000L123.500000,77.100000C125.200000,77.100000,126.600000,78.500000,126.600000,80.200000L126.600000,88C122.400000,91.500000,116.400000,96.400000,97.800000,111.200000C94.600000,113.800000,88.200000,119.900000,83.800000,119.900000C79.400000,120,73,113.800000,69.800000,111.200000C51.100000,96.400000,45.100000,91.600000,41,88L41,80.100000C41,78.400000,42.300000,77.100000,44,77.100000ZM123.500000,138.200000L44,138.200000C42.300000,138.200000,40.900000,136.800000,40.900000,135.100000L40.900000,96C45.300000,99.600000,52.100000,105.100000,65.900000,116C69.800000,119.100000,76.700000,126,83.700000,126C90.700000,126.100000,97.500000,119.200000,101.500000,116C115.200000,105.100000,122.100000,99.600000,126.500000,96L126.500000,135.200000C126.500000,136.800000,125.200000,138.200000,123.500000,138.200000Z" fill="rgb(68,79,109)" stroke="none" stroke-width="1"/></g></svg>