<svg id="generalui" xmlns="http://www.w3.org/2000/svg" xmlns:xlink="http://www.w3.org/1999/xlink" viewBox="0 0 200 180" shape-rendering="geometricPrecision" text-rendering="geometricPrecision"><style><![CDATA[#generalui-slider4_to {animation: generalui-slider4_to__to 4000ms linear infinite normal forwards}@keyframes generalui-slider4_to__to { 0% {transform: translate(119.353521px,110.700002px)} 5% {transform: translate(119.353521px,110.700002px)} 15% {transform: translate(119.353521px,110.700002px)} 20% {transform: translate(138.353521px,110.900002px)} 50% {transform: translate(138.353521px,110.900002px)} 65% {transform: translate(138.353521px,110.900002px)} 70% {transform: translate(119.353521px,110.700002px)} 100% {transform: translate(119.353521px,110.700002px)} }#generalui-slider3_to {animation: generalui-slider3_to__to 4000ms linear infinite normal forwards}@keyframes generalui-slider3_to__to { 0% {transform: translate(62.115293px,110.900002px)} 5% {transform: translate(62.115293px,110.900002px)} 10% {transform: translate(62.115293px,110.900002px)} 15% {transform: translate(80.700005px,110.900002px)} 50% {transform: translate(80.700005px,110.900002px)} 60% {transform: translate(80.700005px,110.900002px)} 65% {transform: translate(62.115293px,110.900002px)} 100% {transform: translate(62.115293px,110.900002px)} }#generalui-slider2_to {animation: generalui-slider2_to__to 4000ms linear infinite normal forwards}@keyframes generalui-slider2_to__to { 0% {transform: translate(119.353518px,69.299996px)} 5% {transform: translate(119.353518px,69.299996px)} 10% {transform: translate(138.353518px,69.299996px)} 50% {transform: translate(138.353518px,69.299996px)} 55% {transform: translate(138.353518px,69.299996px)} 60% {transform: translate(119.353518px,69.299996px)} 100% {transform: translate(119.353518px,69.299996px)} }#generalui-slider1_to {animation: generalui-slider1_to__to 4000ms linear infinite normal forwards}@keyframes generalui-slider1_to__to { 0% {transform: translate(62.115290px,69.499996px)} 5% {transform: translate(80.700002px,69.499996px)} 50% {transform: translate(80.700002px,69.499996px)} 55% {transform: translate(62.115290px,69.499996px)} 100% {transform: translate(62.115290px,69.499996px)} }]]></style><g id="generalui-generalui"><path id="generalui-toggle4" d="M102.700000,110.900000C102.700000,120.400000,110.400000,128.100000,119.900000,128.100000L137,128.100000C146.500000,128.100000,154.200000,120.400000,154.200000,110.900000C154.200000,101.400000,146.500000,93.700000,137,93.700000L119.800000,93.700000C110.300000,93.800000,102.700000,101.400000,102.700000,110.900000Z" fill="rgb(68,79,109)" stroke="none" stroke-width="1"/><path id="generalui-toggle3" d="M45.600000,110.900000C45.600000,120.400000,53.300000,128.100000,62.800000,128.100000L80,128.100000C89.500000,128.100000,97.200000,120.400000,97.200000,110.900000C97.200000,101.400000,89.500000,93.700000,80,93.700000L62.700000,93.700000C53.300000,93.800000,45.600000,101.400000,45.600000,110.900000Z" fill="rgb(68,79,109)" stroke="none" stroke-width="1"/><path id="generalui-toggle2" d="M137,52.300000L119.800000,52.300000C110.300000,52.300000,102.600000,60,102.600000,69.500000C102.600000,79,110.300000,86.700000,119.800000,86.700000L137,86.700000C146.500000,86.700000,154.200000,79,154.200000,69.500000C154.200000,60,146.400000,52.300000,137,52.300000Z" fill="rgb(68,79,109)" stroke="none" stroke-width="1"/><path id="generalui-toggle1" d="M79.900000,52.300000L62.700000,52.300000C53.200000,52.300000,45.500000,60,45.500000,69.500000C45.500000,79,53.200000,86.700000,62.700000,86.700000L79.900000,86.700000C89.400000,86.700000,97.100000,79,97.100000,69.500000C97.100000,60,89.400000,52.300000,79.900000,52.300000Z" fill="rgb(68,79,109)" stroke="none" stroke-width="1"/><g id="generalui-slider4_to" transform="translate(119.353521,110.700002)"><circle id="generalui-slider4" r="11.400000" transform="translate(0.000001,-0.000002)" fill="rgb(255,255,255)" stroke="none" stroke-width="1"/></g><g id="generalui-slider3_to" transform="translate(62.115293,110.900002)"><circle id="generalui-slider3" r="11.400000" transform="translate(-0.000005,-0.000002)" fill="rgb(255,255,255)" stroke="none" stroke-width="1"/></g><g id="generalui-slider2_to" transform="translate(119.353518,69.299996)"><circle id="generalui-slider2" r="11.400000" transform="translate(0.000004,0.000004)" fill="rgb(255,255,255)" stroke="none" stroke-width="1"/></g><g id="generalui-slider1_to" transform="translate(62.115290,69.499996)"><circle id="generalui-slider1" r="11.400000" transform="translate(-0.000002,0.000004)" fill="rgb(255,255,255)" stroke="none" stroke-width="1"/></g></g></svg>