<?xml version="1.0" encoding="utf-8"?>
<!-- Generator: Adobe Illustrator 25.0.1, SVG Export Plug-In . SVG Version: 6.00 Build 0)  -->
<svg version="1.1" id="Layer_1" xmlns="http://www.w3.org/2000/svg" xmlns:xlink="http://www.w3.org/1999/xlink" x="0px" y="0px"
	 viewBox="0 0 200 180" enable-background="new 0 0 200 180" xml:space="preserve">
<g id="html5_1_">
	<polygon id="html5_x5F_shield_1_" fill="#E44D26" points="57.4,137.3 47.9,30.9 152.1,30.9 142.6,137.3 99.9,149.1 	"/>
	<polygon id="html5_x5F_shield_x5F_highlight_1_" fill="#F16529" points="100,140.1 134.5,130.5 142.6,39.6 100,39.6 	"/>
	<g id="html5_x5F_five">
		<polygon id="html5_x5F_five_x5F_top_x5F_left" fill="#EBEBEB" points="100,79.1 82.7,79.1 81.5,65.7 100,65.7 100,52.6 100,52.6 
			67.3,52.6 67.6,56.2 70.8,92.1 100,92.1 		"/>
		<polygon id="html5_x5F_five_x5F_bottom_x5F_left" fill="#EBEBEB" points="100,112.9 99.9,113 85.4,109 84.5,98.6 77.4,98.6 
			71.4,98.6 73.2,119.1 99.9,126.5 100,126.5 		"/>
		<polygon id="html5_x5F_five_x5F_bottom_x5F_right" fill="#FFFFFF" points="100,79.1 100,92.1 116,92.1 114.5,109 100,112.9 
			100,126.5 126.7,119.1 126.9,116.9 130,82.6 130.3,79.1 126.8,79.1 		"/>
		<polygon id="html5_x5F_five_x5F_top_x5F_right" fill="#FFFFFF" points="100,52.6 100,60.8 100,65.7 100,65.7 131.4,65.7 
			131.4,65.7 131.5,65.7 131.7,62.8 132.3,56.2 132.6,52.6 		"/>
	</g>
</g>
</svg>
