<?xml version="1.0" encoding="utf-8"?>
<!-- Generator: Adobe Illustrator 25.0.1, SVG Export Plug-In . SVG Version: 6.00 Build 0)  -->
<svg version="1.1" id="Layer_1" xmlns="http://www.w3.org/2000/svg" xmlns:xlink="http://www.w3.org/1999/xlink" x="0px" y="0px"
	 viewBox="0 0 200 180" enable-background="new 0 0 200 180" xml:space="preserve">
<path fill="#F7DF1E" d="M47.3,37.3h105.4v105.4H47.3V37.3z"/>
<path d="M75,125.4l8.1-4.9c1.6,2.8,3,5.1,6.4,5.1c3.3,0,5.3-1.3,5.3-6.2V85.7h9.9v33.8c0,10.3-6,14.9-14.8,14.9
	C81.9,134.4,77.3,130.3,75,125.4 M110,124.3l8.1-4.7c2.1,3.5,4.9,6,9.8,6c4.1,0,6.7-2.1,6.7-4.9c0-3.4-2.7-4.6-7.2-6.6l-2.5-1.1
	c-7.1-3-11.9-6.9-11.9-14.9c0-7.4,5.7-13.1,14.5-13.1c6.3,0,10.8,2.2,14.1,7.9l-7.7,5c-1.7-3-3.5-4.2-6.4-4.2
	c-2.9,0-4.7,1.8-4.7,4.2c0,3,1.8,4.2,6.1,6l2.5,1.1c8.4,3.6,13.2,7.3,13.2,15.6c0,8.9-7,13.8-16.4,13.8
	C118.9,134.4,112.9,130,110,124.3"/>
</svg>
