<svg id="lightbulb" xmlns="http://www.w3.org/2000/svg" xmlns:xlink="http://www.w3.org/1999/xlink" viewBox="0 0 200 180" shape-rendering="geometricPrecision" text-rendering="geometricPrecision"><style><![CDATA[#lightbulb-lightbulb_x5f_string_to {animation: lightbulb-lightbulb_x5f_string_to__to 5200ms linear infinite normal forwards}@keyframes lightbulb-lightbulb_x5f_string_to__to { 0% {transform: translate(100.800000px,107.200000px)} 46.153846% {transform: translate(100.800000px,107.200000px)} 48.076923% {transform: translate(100.800000px,123px)} 50% {transform: translate(100.800000px,107.200000px)} 96.153846% {transform: translate(100.800000px,107.200000px)} 98.076923% {transform: translate(100.800000px,123px)} 100% {transform: translate(100.800000px,107.200000px)} }#lightbulb-lightbulb_x5f_color {animation: lightbulb-lightbulb_x5f_color_f_o 5200ms linear infinite normal forwards}@keyframes lightbulb-lightbulb_x5f_color_f_o { 0% {fill-opacity: 0} 46.153846% {fill-opacity: 0} 48.076923% {fill-opacity: 1} 96.153846% {fill-opacity: 1} 98.076923% {fill-opacity: 0} 100% {fill-opacity: 0} }]]></style><g id="lightbulb-lightbulb"><g id="lightbulb-lightbulb_x5f_string_to" transform="translate(100.800000,107.200000)"><path id="lightbulb-lightbulb_x5f_string" d="M101.800000,142.900000L101.800000,107.200000L99.800000,107.200000L99.800000,142.900000C98.400000,143.300000,97.300000,144.700000,97.300000,146.200000C97.300000,148.100000,98.900000,149.700000,100.800000,149.700000C102.700000,149.700000,104.300000,148.100000,104.300000,146.200000C104.300000,144.700000,103.200000,143.300000,101.800000,142.900000Z" transform="translate(-100.800000,-107.200000)" fill="rgb(68,79,109)" stroke="none" stroke-width="1"/></g><rect id="lightbulb-lightbulb_x5f_base" width="22" height="21" rx="0" ry="0" transform="matrix(1 0 0 1 88.80000000000000 100.20000000000000)" fill="rgb(255,255,255)" stroke="none" stroke-width="1"/><polygon id="lightbulb-lightbulb_x5f_color" points="99.900000,33.700000 86.700000,36.600000 74.800000,46.200000 69.800000,62.200000 72.900000,76.700000 83.800000,91.200000 88.800000,100.200000 110.800000,100.200000 115.700000,93.600000 121.800000,85.200000 126.800000,76.400000 130.400000,66.500000 127.800000,52.200000 119.800000,40.200000 110.800000,34.800000" fill="rgb(255,255,0)" fill-opacity="0" stroke="none" stroke-width="1"/><path id="lightbulb-lightbulb_x5f_outline" d="M99.900000,30.600000C80.600000,30.600000,67,46.200000,67,63.600000C67,71.900000,70.100000,79.400000,75.100000,85.200000C79.900000,90.700000,84.500000,99.600000,84.900000,102.500000L84.900000,116.600000C84.900000,117.200000,85.100000,117.800000,85.400000,118.300000L90,125.200000C90.600000,126,91.500000,126.500000,92.500000,126.500000L107.300000,126.500000C108.300000,126.500000,109.200000,126,109.800000,125.200000L114.400000,118.300000C114.700000,117.800000,114.900000,117.200000,114.900000,116.600000L114.900000,102.500000C115.300000,99.600000,119.900000,90.700000,124.700000,85.200000C129.800000,79.400000,132.800000,71.800000,132.800000,63.500000C132.800000,45.400000,118,30.600000,99.900000,30.600000ZM108.800000,115.600000L105.600000,120.400000L94.100000,120.400000L90.900000,115.600000L90.900000,114.400000L108.800000,114.400000L108.800000,115.600000L108.800000,115.600000ZM108.800000,108.500000L90.800000,108.500000L90.800000,102.500000L108.800000,102.500000L108.800000,108.500000ZM120.100000,81.300000C117.500000,84.300000,113.300000,90.300000,110.600000,96.500000L89,96.500000C86.300000,90.300000,82.200000,84.300000,79.500000,81.300000C75.200000,76.400000,72.900000,70.100000,72.800000,63.600000C72.800000,49.200000,84.100000,36.700000,99.700000,36.700000C114.600000,36.700000,126.600000,48.800000,126.600000,63.600000C126.800000,70.100000,124.400000,76.400000,120.100000,81.300000ZM99.900000,42.600000C88.300000,42.600000,78.900000,52,78.900000,63.600000C78.900000,65.300000,80.200000,66.600000,81.900000,66.600000C83.600000,66.600000,84.900000,65.300000,84.900000,63.600000C84.900000,55.300000,91.600000,48.600000,99.900000,48.600000C101.600000,48.600000,102.900000,47.300000,102.900000,45.600000C102.800000,43.900000,101.500000,42.600000,99.900000,42.600000Z" fill="rgb(68,79,109)" stroke="none" stroke-width="1"/></g></svg>