<svg id="mock2" xmlns="http://www.w3.org/2000/svg" xmlns:xlink="http://www.w3.org/1999/xlink" viewBox="0 0 200 180" shape-rendering="geometricPrecision" text-rendering="geometricPrecision"><style><![CDATA[#mock2-mock_x5f_mountains_1__to {animation: mock2-mock_x5f_mountains_1__to__to 5000ms linear infinite normal forwards}@keyframes mock2-mock_x5f_mountains_1__to__to { 0% {transform: translate(104.426008px,99.969656px);animation-timing-function: cubic-bezier(0.230000,1,0.320000,1)} 4% {transform: translate(104.426008px,99.969656px);animation-timing-function: cubic-bezier(0.230000,1,0.320000,1)} 8% {transform: translate(131.744095px,112.693149px);animation-timing-function: cubic-bezier(0.230000,1,0.320000,1)} 12% {transform: translate(131.744095px,112.693149px);animation-timing-function: cubic-bezier(0.230000,1,0.320000,1)} 16% {transform: translate(100.350607px,101.813893px);animation-timing-function: cubic-bezier(0.230000,1,0.320000,1)} 50% {transform: translate(100.350607px,101.813893px);animation-timing-function: cubic-bezier(0.230000,1,0.320000,1)} 54% {transform: translate(84.795731px,99.445909px);animation-timing-function: cubic-bezier(0.230000,1,0.320000,1)} 58% {transform: translate(84.795731px,99.445909px);animation-timing-function: cubic-bezier(0.230000,1,0.320000,1)} 62% {transform: translate(84.795731px,99.445909px);animation-timing-function: cubic-bezier(0.230000,1,0.320000,1)} 66% {transform: translate(104.426008px,99.969656px)} 100% {transform: translate(104.426008px,99.969656px)} }#mock2-mock_x5f_mountains_1__tr {animation: mock2-mock_x5f_mountains_1__tr__tr 5000ms linear infinite normal forwards}@keyframes mock2-mock_x5f_mountains_1__tr__tr { 0% {transform: rotate(14deg)} 4% {transform: rotate(14deg)} 8% {transform: rotate(2deg)} 12% {transform: rotate(2deg)} 16% {transform: rotate(14deg)} 50% {transform: rotate(14deg)} 54% {transform: rotate(48deg)} 58% {transform: rotate(48deg)} 62% {transform: rotate(48deg)} 66% {transform: rotate(14deg)} 100% {transform: rotate(14deg)} }#mock2-mock_x5f_sun_1__to {animation: mock2-mock_x5f_sun_1__to__to 5000ms linear infinite normal forwards}@keyframes mock2-mock_x5f_sun_1__to__to { 0% {transform: translate(152.171555px,43.448489px);animation-timing-function: cubic-bezier(0.230000,1,0.320000,1)} 4% {transform: translate(171.762123px,24.462970px);animation-timing-function: cubic-bezier(0.230000,1,0.320000,1)} 16% {transform: translate(171.762123px,24.462970px);animation-timing-function: cubic-bezier(0.230000,1,0.320000,1)} 20% {transform: translate(209.135672px,42.307678px);animation-timing-function: cubic-bezier(0.230000,1,0.320000,1)} 54% {transform: translate(209.135672px,42.307678px);animation-timing-function: cubic-bezier(0.230000,1,0.320000,1)} 58% {transform: translate(163.630180px,28.736329px);animation-timing-function: cubic-bezier(0.230000,1,0.320000,1)} 66% {transform: translate(163.630180px,28.736329px);animation-timing-function: cubic-bezier(0.230000,1,0.320000,1)} 70% {transform: translate(152.171555px,43.448489px)} 100% {transform: translate(152.171555px,43.448489px)} }]]></style><g id="mock2-mock"><g id="mock2-mock_x5f_bg"><polygon id="mock2-mock_x5f_bg_x5f_inner" points="58,56 54,60 54,119 60,125 139.400000,125 148,119 147,61 142.300000,56" fill="rgb(255,255,255)" stroke="none" stroke-width="1"/><path id="mock2-mock_x5f_bg_x5f_outer" d="M140.700000,53L60,53C54.900000,53,50.700000,57.200000,50.700000,62.300000L50.700000,118.200000C50.700000,123.300000,54.900000,127.500000,60,127.500000L140.700000,127.500000C145.800000,127.500000,150,123.300000,150,118.200000L150,62.300000C150,57.200000,145.800000,53,140.700000,53ZM143.800000,118.200000C143.800000,119.900000,142.400000,121.300000,140.700000,121.300000L60,121.300000C58.300000,121.300000,56.900000,119.900000,56.900000,118.200000L56.900000,62.300000C56.900000,60.600000,58.300000,59.200000,60,59.200000L140.700000,59.200000C142.400000,59.200000,143.800000,60.600000,143.800000,62.300000L143.800000,118.200000Z" fill="rgb(68,79,109)" stroke="none" stroke-width="1"/></g><g id="mock2-mock_x5f_mountains_1__to" transform="translate(104.426008,99.969656)"><g id="mock2-mock_x5f_mountains_1__tr" transform="rotate(14)"><g id="mock2-mock_x5f_mountains_1_" transform="translate(-159.312721,-143.455605)"><polygon id="mock2-mock_x5f_mountains_x5f_inner" points="164.600000,121.300000 150,145.200000 139,140 126,162 127,167 192,150 189.100000,132.900000" transform="matrix(1 0 0 1 -0.97029572627599 0.24192189559966)" fill="rgb(255,255,255)" stroke="none" stroke-width="1"/><path id="mock2-mock_x5f_mountains_x5f_outer" d="M189.500000,129.700000L168.700000,117.400000C166.500000,116.100000,163.600000,116.800000,162.300000,119L149.100000,141.500000L141.800000,137.200000C139.600000,135.900000,136.700000,136.600000,135.400000,138.800000L123.100000,159.600000C122.500000,160.700000,122.300000,161.900000,122.600000,163.100000L124,168.400000C124.300000,169.600000,125.600000,170.400000,126.800000,170.100000L194.400000,152.700000C195.600000,152.400000,196.400000,151.100000,196.100000,149.900000L191.600000,132.600000C191.300000,131.400000,190.500000,130.400000,189.500000,129.700000ZM189.100000,147.700000L129,163.200000L128.800000,162.300000L139.900000,143.400000L151.200000,150.100000L166.800000,123.600000L185.700000,134.700000L189.100000,147.700000Z" transform="matrix(1 0 0 1 -0.25940149554737 -1.03788432428740)" fill="rgb(68,79,109)" stroke="none" stroke-width="1"/></g></g></g><g id="mock2-mock_x5f_sun_1__to" transform="translate(152.171555,43.448489)"><g id="mock2-mock_x5f_sun_1_" transform="translate(-38.400002,-40.799998)"><circle id="mock2-mock_x5f_sun_x5f_inner" r="8" transform="matrix(1 0 0 1 -39.83672434000000 72.25182936999997)" fill="rgb(255,255,255)" stroke="none" stroke-width="1"/><path id="mock2-mock_x5f_sun_x5f_outer" d="M38.400000,29.900000C32.400000,29.900000,27.500000,34.800000,27.500000,40.800000C27.500000,46.800000,32.400000,51.700000,38.400000,51.700000C44.400000,51.700000,49.300000,46.800000,49.300000,40.800000C49.300000,34.800000,44.400000,29.900000,38.400000,29.900000ZM38.400000,45.400000C35.800000,45.400000,33.700000,43.300000,33.700000,40.700000C33.700000,38.100000,35.800000,36,38.400000,36C41,36,43.100000,38.100000,43.100000,40.700000C43.100000,43.300000,41,45.400000,38.400000,45.400000Z" transform="matrix(1 0 0 1 -78.23672434500000 31.53702821000002)" fill="rgb(68,79,109)" stroke="none" stroke-width="1"/></g></g></g></svg>