<svg id="rapidproto" xmlns="http://www.w3.org/2000/svg" xmlns:xlink="http://www.w3.org/1999/xlink" viewBox="0 0 200 180" shape-rendering="geometricPrecision" text-rendering="geometricPrecision"><style><![CDATA[#rapidproto-rapidproto_x5f_leftstar_ts {animation: rapidproto-rapidproto_x5f_leftstar_ts__ts 1500ms linear infinite normal forwards}@keyframes rapidproto-rapidproto_x5f_leftstar_ts__ts { 0% {transform: translate(60.950001px,50.599998px) scale(1,1)} 46.666667% {transform: translate(60.950001px,50.599998px) scale(0.650000,0.650000)} 100% {transform: translate(60.950001px,50.599998px) scale(1,1)} }#rapidproto-rapidproto_x5f_rightstar_ts {animation: rapidproto-rapidproto_x5f_rightstar_ts__ts 1500ms linear infinite normal forwards}@keyframes rapidproto-rapidproto_x5f_rightstar_ts__ts { 0% {transform: translate(138.949989px,68.650002px) scale(0.650000,0.650000)} 46.666667% {transform: translate(138.949989px,68.650002px) scale(1,1)} 100% {transform: translate(138.949989px,68.650002px) scale(0.650000,0.650000)} }]]></style><g id="rapidproto-rapidproto"><path id="rapidproto-rapidproto_x5f_man" d="M101.400000,119.600000L111.900000,119.600000L111.900000,113.600000L101.400000,113.600000L101.400000,119.600000ZM111.900000,101.600000L101.400000,101.600000L101.400000,107.600000L111.900000,107.600000L111.900000,101.600000ZM111.900000,89.600000L87.900000,89.600000L87.900000,95.600000L111.900000,95.600000L111.900000,89.600000ZM121.900000,93.900000C123.400000,95.900000,126.300000,96.200000,128.200000,94.700000C129.700000,93.500000,130.300000,91.500000,129.600000,89.700000L118.500000,89.700000L121.900000,93.900000ZM99.900000,59.600000L99.900000,59.600000L99.900000,59.600000C104.900000,59.600000,108.900000,55.600000,108.900000,50.600000C108.900000,45.600000,104.900000,41.600000,99.900000,41.600000L99.900000,41.600000L99.900000,41.600000C94.900000,41.600000,90.900000,45.600000,90.900000,50.600000C90.900000,55.600000,95,59.600000,99.900000,59.600000ZM87.900000,81.200000L87.900000,83.600000L111.900000,83.600000L111.900000,81.200000L113.800000,83.600000L125.200000,83.600000L114.200000,69.600000C112.200000,67.100000,109.200000,65.600000,105.900000,65.600000L93.900000,65.600000C90.700000,65.600000,87.600000,67.100000,85.600000,69.600000L74.600000,83.600000L86,83.600000L87.900000,81.200000ZM98.400000,101.600000L87.900000,101.600000L87.900000,107.600000L98.400000,107.600000L98.400000,101.600000ZM74.400000,95.600000C75.800000,95.600000,77.100000,95,77.900000,93.900000L81.300000,89.600000L70.300000,89.600000C69.400000,91.900000,70.600000,94.500000,72.900000,95.300000C73.400000,95.500000,73.900000,95.600000,74.400000,95.600000ZM87.900000,119.600000L98.400000,119.600000L98.400000,113.600000L87.900000,113.600000L87.900000,119.600000ZM123.900000,128.600000L111.900000,128.600000L111.900000,125.600000L101.400000,125.600000L101.400000,128.600000L98.400000,128.600000L98.400000,125.600000L87.900000,125.600000L87.900000,128.600000L75.900000,128.600000C72.600000,128.600000,69.900000,131.300000,69.900000,134.600000C69.900000,134.600000,69.900000,134.600000,69.900000,134.600000L69.900000,137.600000L129.900000,137.600000L129.900000,134.600000C129.900000,131.300000,127.300000,128.600000,123.900000,128.600000C123.900000,128.600000,123.900000,128.600000,123.900000,128.600000Z" fill="rgb(68,79,109)" stroke="none" stroke-width="1"/><g id="rapidproto-rapidproto_x5f_leftstar_ts" transform="translate(60.950001,50.599998) scale(1,1)"><path id="rapidproto-rapidproto_x5f_leftstar" d="M63.900000,47.600000L61.600000,42C61.400000,41.600000,61,41.500000,60.600000,41.700000C60.500000,41.800000,60.300000,41.900000,60.300000,42L58,47.600000L52.400000,50C52,50.200000,51.900000,50.600000,52.100000,51C52.200000,51.100000,52.300000,51.300000,52.400000,51.300000L58,53.600000L60.300000,59.200000C60.500000,59.600000,60.900000,59.700000,61.300000,59.500000C61.400000,59.400000,61.600000,59.300000,61.600000,59.200000L63.900000,53.600000L69.500000,51.300000C69.900000,51.100000,70,50.700000,69.800000,50.300000C69.700000,50.200000,69.600000,50,69.500000,50L63.900000,47.600000Z" transform="translate(-60.950001,-50.599998)" fill="rgb(68,79,109)" stroke="none" stroke-width="1"/></g><g id="rapidproto-rapidproto_x5f_rightstar_ts" transform="translate(138.949989,68.650002) scale(0.650000,0.650000)"><path id="rapidproto-rapidproto_x5f_rightstar" d="M147.500000,68L141.900000,65.700000L139.600000,60.100000C139.400000,59.700000,139,59.600000,138.600000,59.800000C138.500000,59.900000,138.300000,60,138.300000,60.100000L136,65.700000L130.400000,68C130,68.200000,129.900000,68.600000,130.100000,69C130.200000,69.100000,130.300000,69.300000,130.400000,69.300000L136,71.600000L138.300000,77.200000C138.500000,77.600000,138.900000,77.700000,139.300000,77.500000C139.400000,77.400000,139.600000,77.300000,139.600000,77.200000L141.900000,71.600000L147.500000,69.300000C147.900000,69.100000,148,68.700000,147.800000,68.300000C147.800000,68.100000,147.700000,68,147.500000,68L147.500000,68Z" transform="translate(-138.949989,-68.650002)" fill="rgb(68,79,109)" stroke="none" stroke-width="1"/></g></g></svg>