<svg id="responsivedesign" xmlns="http://www.w3.org/2000/svg" xmlns:xlink="http://www.w3.org/1999/xlink" viewBox="0 0 200 180" shape-rendering="geometricPrecision" text-rendering="geometricPrecision"><style><![CDATA[#responsivedesign-responsivedesign_x5f_bottom_to {animation: responsivedesign-responsivedesign_x5f_bottom_to__to 2000ms linear infinite alternate forwards}@keyframes responsivedesign-responsivedesign_x5f_bottom_to__to { 0% {transform: translate(137.899994px,118.299992px)} 50% {transform: translate(137.899994px,118.299992px)} 75% {transform: translate(147px,118.299992px)} 100% {transform: translate(147px,118.299992px)} }#responsivedesign-responsivedesign_x5f_top_to {animation: responsivedesign-responsivedesign_x5f_top_to__to 2000ms linear infinite alternate forwards}@keyframes responsivedesign-responsivedesign_x5f_top_to__to { 0% {transform: translate(71.199995px,51.599998px)} 25% {transform: translate(71.199995px,51.599998px)} 50% {transform: translate(71.199995px,42px)} 100% {transform: translate(71.199995px,42px)} }]]></style><g id="responsivedesign-responsivedesign"><g id="responsivedesign-responsivedesign_x5f_bottom_to" transform="translate(137.899994,118.299992)"><path id="responsivedesign-responsivedesign_x5f_bottom" d="M140.200000,101.100000L129.900000,101.100000L129.900000,106.800000L140.200000,106.800000L140.200000,129.800000L129.900000,129.800000L129.900000,135.500000L140.200000,135.500000C143.400000,135.500000,145.900000,132.900000,145.900000,129.800000L145.900000,106.800000C145.900000,103.600000,143.400000,101.100000,140.200000,101.100000Z" transform="translate(-137.899994,-118.299992)" fill="rgb(68,79,109)" stroke="none" stroke-width="1"/></g><g id="responsivedesign-responsivedesign_x5f_top_to" transform="translate(71.199995,51.599998)"><path id="responsivedesign-responsivedesign_x5f_top" d="M59.700000,59.600000L59.700000,49.300000L82.700000,49.300000L82.700000,59.500000L88.400000,59.500000L88.400000,49.300000C88.400000,46.100000,85.800000,43.600000,82.700000,43.600000L59.700000,43.600000C56.500000,43.600000,54,46.200000,54,49.300000L54,59.500000L59.700000,59.500000Z" transform="translate(-71.199995,-51.599998)" fill="rgb(68,79,109)" stroke="none" stroke-width="1"/></g><path id="responsivedesign-responsivedesign_x5f_ruler" d="M139.900000,129.800000L63.800000,129.800000L86.800000,106.800000L94.200000,106.800000L94.200000,116.900000C94.200000,117.700000,94.800000,118.300000,95.600000,118.300000L98.500000,118.300000C99.300000,118.300000,99.900000,117.700000,99.900000,116.900000L99.900000,106.800000L108.500000,106.800000L108.500000,116.900000C108.500000,117.700000,109.100000,118.300000,109.900000,118.300000L112.800000,118.300000C113.600000,118.300000,114.200000,117.700000,114.200000,116.900000L114.200000,106.800000L122.800000,106.800000L122.800000,116.900000C122.800000,117.700000,123.400000,118.300000,124.200000,118.300000L127.100000,118.300000C127.900000,118.300000,128.500000,117.700000,128.500000,116.900000L128.500000,106.800000L139.700000,106.800000L139.700000,101.100000L88.500000,101.100000L88.500000,49.600000L82.800000,49.600000L82.800000,60.900000L72.600000,60.900000C71.800000,60.900000,71.200000,61.500000,71.200000,62.300000L71.200000,65.200000C71.200000,66,71.800000,66.600000,72.600000,66.600000L82.700000,66.600000L82.700000,75.200000L72.600000,75.200000C71.800000,75.200000,71.200000,75.800000,71.200000,76.600000L71.200000,79.500000C71.200000,80.300000,71.800000,80.900000,72.600000,80.900000L82.700000,80.900000L82.700000,89.500000L72.600000,89.500000C71.800000,89.500000,71.200000,90.100000,71.200000,90.900000L71.200000,93.800000C71.200000,94.600000,71.800000,95.200000,72.600000,95.200000L82.700000,95.200000L82.700000,102.600000L59.700000,125.600000L59.700000,49.600000L54,49.600000L54,129.900000C54,133.100000,56.600000,135.600000,59.700000,135.600000L139.900000,135.600000L139.900000,129.800000Z" fill="rgb(68,79,109)" stroke="none" stroke-width="1"/></g></svg>