<svg id="versioncontrol" xmlns="http://www.w3.org/2000/svg" xmlns:xlink="http://www.w3.org/1999/xlink" viewBox="0 0 200 180" shape-rendering="geometricPrecision" text-rendering="geometricPrecision"><style><![CDATA[#versioncontrol-git_x5f_right_ts {animation: versioncontrol-git_x5f_right_ts__ts 4000ms linear infinite normal forwards}@keyframes versioncontrol-git_x5f_right_ts__ts { 0% {transform: translate(102.500000px,90px) scale(1,1)} 50% {transform: translate(102.500000px,90px) scale(1,1)} 62.500000% {transform: translate(102.500000px,90px) scale(0.200000,1)} 100% {transform: translate(102.500000px,90px) scale(0.200000,1)} }#versioncontrol-git_x5f_right {animation: versioncontrol-git_x5f_right_c_o 4000ms linear infinite normal forwards}@keyframes versioncontrol-git_x5f_right_c_o { 0% {opacity: 0} 20% {opacity: 0} 32.500000% {opacity: 1} 50% {opacity: 1} 62.500000% {opacity: 0} 100% {opacity: 0} }#versioncontrol-git_x5f_left_ts {animation: versioncontrol-git_x5f_left_ts__ts 4000ms linear infinite normal forwards}@keyframes versioncontrol-git_x5f_left_ts__ts { 0% {transform: translate(98.300000px,90px) scale(1,1)} 20% {transform: translate(98.300000px,90px) scale(1,1)} 50% {transform: translate(98.300000px,90px) scale(1,1)} 62.500000% {transform: translate(98.300000px,90px) scale(0.200000,1)} 100% {transform: translate(98.300000px,90px) scale(0.200000,1)} }#versioncontrol-git_x5f_left {animation: versioncontrol-git_x5f_left_c_o 4000ms linear infinite normal forwards}@keyframes versioncontrol-git_x5f_left_c_o { 0% {opacity: 0} 12.500000% {opacity: 1} 20% {opacity: 1} 50% {opacity: 1} 62.500000% {opacity: 0} 100% {opacity: 0} }]]></style><g id="versioncontrol-git"><g id="versioncontrol-git_x5f_right_ts" transform="translate(102.500000,90) scale(1,1)"><path id="versioncontrol-git_x5f_right" d="M139.300000,78.100000C131.800000,78.100000,125.700000,83.800000,125,91.200000C120.500000,91,114,89.800000,109.100000,85.500000C105.600000,82.400000,103.400000,78.200000,102.500000,72.800000L102.500000,86.900000C103.400000,88,104.300000,89,105.300000,89.900000C111.800000,95.600000,120.200000,96.900000,125.600000,97C127.500000,102.700000,132.900000,106.900000,139.200000,106.900000C147.100000,106.900000,153.500000,100.500000,153.500000,92.600000C153.600000,84.500000,147.200000,78.100000,139.300000,78.100000ZM139.300000,101C134.500000,101,130.700000,97.100000,130.700000,92.400000C130.700000,87.600000,134.600000,83.800000,139.300000,83.800000C144.100000,83.800000,147.900000,87.700000,147.900000,92.400000C147.900000,97.200000,144,101,139.300000,101Z" transform="translate(-102.500000,-90)" opacity="0" fill="rgb(68,79,109)" stroke="none" stroke-width="1"/></g><g id="versioncontrol-git_x5f_left_ts" transform="translate(98.300000,90) scale(1,1)"><path id="versioncontrol-git_x5f_left" d="M46.300000,92.400000C46.300000,100.300000,52.700000,106.700000,60.600000,106.700000C67,106.700000,72.300000,102.600000,74.200000,96.800000C79.600000,96.600000,88,95.400000,94.500000,89.700000C95.500000,88.800000,96.500000,87.800000,97.300000,86.700000L97.300000,72.700000C96.400000,78.100000,94.200000,82.400000,90.700000,85.400000C85.800000,89.700000,79.300000,90.900000,74.800000,91.100000C74.100000,83.800000,68,78,60.500000,78C52.700000,78.100000,46.300000,84.500000,46.300000,92.400000ZM52,92.400000C52,87.600000,55.900000,83.800000,60.600000,83.800000C65.400000,83.800000,69.200000,87.700000,69.200000,92.400000C69.200000,97.200000,65.300000,101,60.600000,101C55.900000,101,52,97.200000,52,92.400000Z" transform="translate(-97.300000,-90)" opacity="0" fill="rgb(68,79,109)" stroke="none" stroke-width="1"/></g><path id="versioncontrol-git_x5f_center" d="M103,107.100000L103,95.800000L103,86.200000L103,72L103.500000,72C109.800000,70.500000,114.500000,64.800000,114.500000,58.100000C114.500000,50.200000,108.100000,43.800000,100.200000,43.800000C92.300000,43.800000,85.900000,50.200000,85.900000,58.100000C85.900000,65,90.800000,70.800000,97.400000,72.200000L97.400000,107.200000C90.900000,108.500000,85.900000,114.300000,85.900000,121.300000C85.900000,129.200000,92.300000,135.600000,100.200000,135.600000C108.100000,135.600000,114.500000,129.200000,114.500000,121.300000C114.400000,114.200000,109.500000,108.400000,103,107.100000ZM91.500000,58C91.500000,53.200000,95.400000,49.400000,100.100000,49.400000C104.900000,49.400000,108.700000,53.300000,108.700000,58C108.700000,62.800000,104.800000,66.600000,100.100000,66.600000C95.300000,66.600000,91.500000,62.700000,91.500000,58ZM100.100000,129.700000C95.300000,129.700000,91.500000,125.800000,91.500000,121.100000C91.500000,116.300000,95.400000,112.500000,100.100000,112.500000C104.900000,112.500000,108.700000,116.400000,108.700000,121.100000C108.700000,125.900000,104.800000,129.700000,100.100000,129.700000Z" fill="rgb(68,79,109)" stroke="none" stroke-width="1"/></g></svg>