<svg id="wireframe" xmlns="http://www.w3.org/2000/svg" xmlns:xlink="http://www.w3.org/1999/xlink" viewBox="0 0 200 180" shape-rendering="geometricPrecision" text-rendering="geometricPrecision"><style><![CDATA[#wireframe-wireframe_x5f_top {animation: wireframe-wireframe_x5f_top_s_do 2000ms linear infinite normal forwards}@keyframes wireframe-wireframe_x5f_top_s_do { 0% {stroke-dashoffset: 0} 100% {stroke-dashoffset: 46} }#wireframe-wireframe_x5f_bottom {animation: wireframe-wireframe_x5f_bottom_s_do 2000ms linear infinite normal forwards}@keyframes wireframe-wireframe_x5f_bottom_s_do { 0% {stroke-dashoffset: 0} 100% {stroke-dashoffset: 46} }#wireframe-wireframe_x5f_background {animation: wireframe-wireframe_x5f_background_s_do 2000ms linear infinite normal forwards}@keyframes wireframe-wireframe_x5f_background_s_do { 0% {stroke-dashoffset: 0} 100% {stroke-dashoffset: 46} }]]></style><g id="wireframe-wireframe"><path id="wireframe-wireframe_x5f_top" d="M132.300000,82.700000L66.800000,82.700000C65.700000,82.700000,64.800000,81.800000,64.800000,80.700000L64.800000,69.200000C64.800000,68.100000,65.700000,67.200000,66.800000,67.200000L132.300000,67.200000C133.400000,67.200000,134.300000,68.100000,134.300000,69.200000L134.300000,80.700000C134.300000,81.800000,133.400000,82.700000,132.300000,82.700000Z" fill="none" stroke="rgb(68,79,109)" stroke-width="3" stroke-miterlimit="10" stroke-dasharray="15,8"/><path id="wireframe-wireframe_x5f_bottom" d="M132.300000,124.200000L66.800000,124.200000C65.700000,124.200000,64.800000,123.300000,64.800000,122.200000L64.800000,93.200000C64.800000,92.100000,65.700000,91.200000,66.800000,91.200000L132.300000,91.200000C133.400000,91.200000,134.300000,92.100000,134.300000,93.200000L134.300000,122.200000C134.300000,123.300000,133.400000,124.200000,132.300000,124.200000Z" fill="none" stroke="rgb(68,79,109)" stroke-width="3" stroke-miterlimit="10" stroke-dasharray="15,8"/><rect id="wireframe-wireframe_x5f_hider" width="75" height="6" rx="0" ry="0" transform="matrix(1 0 0 1 62.30000000000000 120.70000000000000)" fill="rgb(255,255,255)" stroke="none" stroke-width="1"/><path id="wireframe-wireframe_x5f_background" d="M138.900000,124.200000L60.800000,124.200000C57,124.200000,53.900000,121.100000,53.900000,117.300000L53.900000,63.100000C53.900000,59.300000,57,56.200000,60.800000,56.200000L138.900000,56.200000C142.700000,56.200000,145.800000,59.300000,145.800000,63.100000L145.800000,117.200000C145.800000,121.100000,142.700000,124.200000,138.900000,124.200000Z" fill="none" stroke="rgb(68,79,109)" stroke-width="6.500000" stroke-miterlimit="10" stroke-dasharray="15,8"/></g></svg>