<?xml version="1.0" encoding="utf-8"?>
<!-- Generator: Adobe Illustrator 25.0.1, SVG Export Plug-In . SVG Version: 6.00 Build 0)  -->
<svg version="1.1" id="Layer_1" xmlns="http://www.w3.org/2000/svg" xmlns:xlink="http://www.w3.org/1999/xlink" x="0px" y="0px"
	 viewBox="0 0 200 180" enable-background="new 0 0 200 180" xml:space="preserve">
<g id="aftereffects">
	<path id="aftereffects_x5F_bg" fill="#00005B" d="M63.6,35h72.9c11,0,20,8.9,20,20v70c0,11-8.9,20-20,20H63.6c-11,0-20-8.9-20-20
		V55C43.6,43.9,52.5,35,63.6,35z"/>
	<path id="aftereffects_x5F_e" fill="#9999FF" d="M131.7,96.5h-14.9c0.2,1.5,0.7,2.9,1.5,4.2c0.8,1.3,2,2.3,3.4,2.8
		c1.9,0.8,3.9,1.2,6,1.2c1.6,0,3.3-0.2,4.9-0.5c1.5-0.2,2.9-0.6,4.2-1.1c0.2-0.2,0.4-0.1,0.4,0.4v7.2c0,0.2,0,0.4-0.1,0.6
		c-0.1,0.1-0.2,0.2-0.3,0.3c-1.5,0.7-3.1,1.1-4.7,1.4c-2.2,0.4-4.4,0.6-6.7,0.6c-3.6,0-6.6-0.6-9-1.6c-2.3-1-4.3-2.5-5.9-4.5
		c-1.5-1.8-2.6-3.9-3.2-6.2c-0.7-2.2-1-4.5-1-6.9c0-2.5,0.4-5,1.2-7.5c0.8-2.4,1.9-4.5,3.5-6.4c1.6-1.9,3.5-3.4,5.7-4.5
		c2.2-1.1,4.8-1.5,7.9-1.5c2.5,0,5,0.4,7.3,1.5c1.9,0.8,3.6,2.1,4.9,3.8c1.2,1.6,2.2,3.4,2.8,5.4c0.6,1.9,0.9,3.8,0.9,5.7
		c0,1.1,0,2.1-0.1,3c-0.1,0.9-0.1,1.6-0.2,2c0,0.3-0.3,0.6-0.7,0.6c-0.3,0-0.8,0-1.6,0.1c-0.8,0.1-1.6,0.1-2.7,0.1
		C134,96.7,132.9,96.5,131.7,96.5z M116.8,89.6h9.9c1.2,0,2.1,0,2.7,0c0.4,0,0.8-0.1,1.1-0.4v-0.5c0-0.6-0.1-1.2-0.3-1.7
		c-0.8-2.6-3.3-4.4-6.1-4.3c-2.6-0.1-5,1.2-6.3,3.6C117.3,87.3,116.9,88.4,116.8,89.6z"/>
	<path id="aftereffects_x5F_a" fill="#9999FF" d="M88.9,100.8H71.4l-3.6,11.1c-0.1,0.4-0.5,0.7-0.9,0.7h-8.8c-0.5,0-0.7-0.3-0.5-0.8
		l15.1-43.4c0.1-0.5,0.3-0.9,0.5-1.5c0.2-1,0.3-2,0.3-3.1c0-0.2,0.1-0.5,0.4-0.5c0,0,0.1,0,0.1,0h12c0.3,0,0.6,0.1,0.6,0.4
		l17.2,48.2c0.1,0.5,0,0.8-0.5,0.8h-9.8c-0.3,0-0.7-0.2-0.8-0.5L88.9,100.8z M74.1,91.5h11.9c-0.3-1-0.7-2.2-1.1-3.4
		c-0.4-1.3-0.8-2.6-1.3-4c-0.5-1.5-0.9-2.9-1.4-4.3c-0.5-1.5-0.9-2.8-1.3-4.2c-0.4-1.3-0.7-2.5-1-3.7H80c-0.4,2-0.9,4-1.6,6.1
		c-0.7,2.3-1.4,4.6-2.2,7C75.6,87.3,74.9,89.5,74.1,91.5z"/>
</g>
</svg>
