<?xml version="1.0" encoding="utf-8"?>
<!-- Generator: Adobe Illustrator 25.0.1, SVG Export Plug-In . SVG Version: 6.00 Build 0)  -->
<svg version="1.1" id="Layer_1" xmlns="http://www.w3.org/2000/svg" xmlns:xlink="http://www.w3.org/1999/xlink" x="0px" y="0px"
	 viewBox="0 0 200 180" enable-background="new 0 0 200 180" xml:space="preserve">
<g id="angular">
	<path id="angular_x5F_shield" fill-rule="evenodd" clip-rule="evenodd" fill="#E23237" d="M47,52.4l52.3-18.7L153,52.1l-8.7,69.2
		l-45,24.9L55,121.6L47,52.4L47,52.4z"/>
	<path id="angular_x5F_shield_x5F_highlight" fill-rule="evenodd" clip-rule="evenodd" fill="#B52E31" d="M153,52.1L99.3,33.8v112.4
		l45-24.9L153,52.1L153,52.1z"/>
	<path id="angular_x5F_a" fill-rule="evenodd" clip-rule="evenodd" fill="#FFFFFF" d="M99.4,46.9L99.4,46.9l-32.6,72.5l12.2-0.2
		l6.6-16.4h13.9h15.2l7.1,16.5l11.6,0.2L99.4,46.9L99.4,46.9z M99.5,70.2l11,23H100h-0.6h-9.6L99.5,70.2L99.5,70.2z"/>
</g>
</svg>
