<?xml version="1.0" encoding="utf-8"?>
<!-- Generator: Adobe Illustrator 25.0.1, SVG Export Plug-In . SVG Version: 6.00 Build 0)  -->
<svg version="1.1" id="Layer_1" xmlns="http://www.w3.org/2000/svg" xmlns:xlink="http://www.w3.org/1999/xlink" x="0px" y="0px"
	 viewBox="0 0 200 180" enable-background="new 0 0 200 180" xml:space="preserve">
<path id="apple_1_" fill="#444F6D" d="M133.5,93.7c-0.1-9.7,4.3-17,13.2-22.3c-4.9-7.1-12.4-11-22.3-11.7
	c-9.3-0.7-19.6,5.4-23.3,5.4c-3.9,0-13-5.2-20.1-5.2C66.3,60.1,50.7,71.6,50.7,95c0,6.9,1.3,14,3.8,21.4c3.4,9.7,15.5,33.4,28.2,33
	c6.6-0.2,11.3-4.7,20-4.7c8.4,0,12.7,4.7,20.1,4.7c12.8-0.2,23.8-21.7,27-31.4C132.6,109.8,133.5,94.2,133.5,93.7L133.5,93.7z
	 M118.6,50.5c7.2-8.5,6.5-16.3,6.3-19.1c-6.3,0.4-13.7,4.3-17.9,9.2c-4.6,5.2-7.3,11.7-6.7,18.9C107.2,60,113.5,56.5,118.6,50.5z"/>
</svg>
