<?xml version="1.0" encoding="utf-8"?>
<!-- Generator: Adobe Illustrator 25.0.1, SVG Export Plug-In . SVG Version: 6.00 Build 0)  -->
<svg version="1.1" id="Layer_1" xmlns="http://www.w3.org/2000/svg" xmlns:xlink="http://www.w3.org/1999/xlink" x="0px" y="0px"
	 viewBox="0 0 200 180" enable-background="new 0 0 200 180" xml:space="preserve">
<g id="bootstrap">
	<path id="bootstrap_x5F_bg" fill="#563D7C" d="M45,130.8c0,7.8,6.4,14.2,14.2,14.2h81.6c7.8,0,14.2-6.4,14.2-14.2V49.2
		c0-7.8-6.4-14.2-14.2-14.2H59.2C51.3,35,45,41.4,45,49.2V130.8L45,130.8z"/>
	<path id="bootstrap_x5F_b" fill="#FFFFFF" d="M90.6,83.7V68.1h13.7c1.3,0,2.6,0.1,3.8,0.3c1.2,0.2,2.3,0.6,3.2,1.2
		c0.9,0.6,1.7,1.3,2.2,2.3c0.6,1,0.8,2.3,0.8,3.8c0,2.8-0.8,4.8-2.5,6.1c-1.7,1.2-3.8,1.9-6.4,1.9L90.6,83.7L90.6,83.7z M76,56.7
		v66.6h32.3c3,0,5.9-0.4,8.7-1.1c2.8-0.7,5.3-1.9,7.6-3.5c2.2-1.6,4-3.6,5.3-6c1.3-2.5,2-5.4,2-8.7c0-4.2-1-7.7-3-10.7
		c-2-3-5.1-5-9.2-6.2c3-1.4,5.2-3.3,6.8-5.5c1.5-2.2,2.3-5,2.3-8.4c0-3.1-0.5-5.7-1.5-7.8c-1-2.1-2.5-3.8-4.3-5.1
		c-1.9-1.3-4.1-2.2-6.7-2.8c-2.6-0.6-5.5-0.8-8.7-0.8H76L76,56.7z M90.6,111.9V93.6h16c3.2,0,5.7,0.7,7.6,2.2
		c1.9,1.5,2.9,3.9,2.9,7.3c0,1.7-0.3,3.2-0.9,4.3c-0.6,1.1-1.4,2-2.4,2.7c-1,0.7-2.1,1.1-3.5,1.4c-1.3,0.3-2.7,0.4-4.1,0.4H90.6
		L90.6,111.9z"/>
</g>
</svg>
