<?xml version="1.0" encoding="utf-8"?>
<!-- Generator: Adobe Illustrator 25.0.1, SVG Export Plug-In . SVG Version: 6.00 Build 0)  -->
<svg version="1.1" id="Layer_1" xmlns="http://www.w3.org/2000/svg" xmlns:xlink="http://www.w3.org/1999/xlink" x="0px" y="0px"
	 viewBox="0 0 200 180" enable-background="new 0 0 200 180" xml:space="preserve">
<g id="chrome">
	<circle fill="#FFFFFF" cx="100.1" cy="90.2" r="47.3"/>
	<path fill-opacity="0.1" d="M130.2,98.8c0-16.6-13.5-30.1-30.1-30.1C83.5,68.7,70,82.2,70,98.8h8.6c0-11.9,9.6-21.5,21.5-21.5
		s21.5,9.6,21.5,21.5"/>
	<circle fill-opacity="0.1" cx="102.3" cy="96.2" r="16.3"/>
	
		<linearGradient id="SVGID_1_" gradientUnits="userSpaceOnUse" x1="-149.038" y1="253.6497" x2="-149.038" y2="253.5393" gradientTransform="matrix(318.7238 0 0 -318.7238 47602.0781 80916.8359)">
		<stop  offset="0" style="stop-color:#81B4E0"/>
		<stop  offset="1" style="stop-color:#0C5A94"/>
	</linearGradient>
	<circle fill="url(#SVGID_1_)" cx="100.1" cy="90.2" r="17.6"/>
	
		<linearGradient id="SVGID_2_" gradientUnits="userSpaceOnUse" x1="-175.7531" y1="-420.8992" x2="-175.7531" y2="-430.959" gradientTransform="matrix(3.8869 0 0 -3.8869 784.7498 -1593.9246)">
		<stop  offset="0" style="stop-color:#F06B59"/>
		<stop  offset="1" style="stop-color:#DF2227"/>
	</linearGradient>
	<path fill="url(#SVGID_2_)" d="M143.1,68.7C131.3,44.9,102.4,35.2,78.6,47c-7.4,3.7-13.8,9.2-18.4,16.1l19.3,33.5
		c-3.6-11.3,2.7-23.4,14-26.9c2-0.6,4.1-1,6.1-1"/>
	
		<linearGradient id="SVGID_3_" gradientUnits="userSpaceOnUse" x1="-185.5065" y1="-442.0809" x2="-180.4215" y2="-433.6797" gradientTransform="matrix(3.8869 0 0 -3.8869 784.7498 -1593.9246)">
		<stop  offset="0" style="stop-color:#388B41"/>
		<stop  offset="1" style="stop-color:#4CB749"/>
	</linearGradient>
	<path fill="url(#SVGID_3_)" d="M60.2,63.1c-14.8,22.1-8.9,52,13.2,66.8c6.8,4.6,14.7,7.3,22.9,8l20.2-34.4
		c-7.6,9.2-21.1,10.5-30.2,2.9c-3.1-2.6-5.4-6-6.7-9.8"/>
	
		<linearGradient id="SVGID_4_" gradientUnits="userSpaceOnUse" x1="-168.4719" y1="-442.9745" x2="-173.8885" y2="-429.9302" gradientTransform="matrix(3.8869 0 0 -3.8869 784.7498 -1593.9246)">
		<stop  offset="0" style="stop-color:#E4B022"/>
		<stop  offset="0.3" style="stop-color:#FCD209"/>
	</linearGradient>
	<path fill="url(#SVGID_4_)" d="M96.2,137.9c26.5,2,49.6-17.9,51.6-44.4c0.6-8.6-1-17.1-4.8-24.8H99.7c11.9,0.1,21.4,9.7,21.4,21.6
		c0,4.8-1.7,9.5-4.6,13.2"/>
	
		<linearGradient id="SVGID_5_" gradientUnits="userSpaceOnUse" x1="-183.8229" y1="-434.6071" x2="-183.8229" y2="-425.7636" gradientTransform="matrix(3.8869 0 0 -3.8869 784.7498 -1593.9246)">
		<stop  offset="0" style="stop-color:#000000;stop-opacity:0.15"/>
		<stop  offset="0.3" style="stop-color:#000000;stop-opacity:6.000000e-02"/>
		<stop  offset="1" style="stop-color:#000000;stop-opacity:3.000000e-02"/>
	</linearGradient>
	<path fill="url(#SVGID_5_)" d="M60.2,63.1l19.3,33.5c-1.4-4.8-1.1-10,0.9-14.6L61,61.8"/>
	
		<linearGradient id="SVGID_6_" gradientUnits="userSpaceOnUse" x1="-171.6163" y1="-437.4628" x2="-177.696" y2="-443.6532" gradientTransform="matrix(3.8869 0 0 -3.8869 784.7498 -1593.9246)">
		<stop  offset="0" style="stop-color:#000000;stop-opacity:0.15"/>
		<stop  offset="0.3" style="stop-color:#000000;stop-opacity:6.000000e-02"/>
		<stop  offset="1" style="stop-color:#000000;stop-opacity:3.000000e-02"/>
	</linearGradient>
	<path fill="url(#SVGID_6_)" d="M96.2,137.9l20.2-34.4c-3.2,3.8-7.6,6.4-12.5,7.3l-8.6,27.1"/>
	
		<linearGradient id="SVGID_7_" gradientUnits="userSpaceOnUse" x1="-171.7045" y1="-439.2437" x2="-170.8201" y2="-430.5111" gradientTransform="matrix(3.8869 0 0 -3.8869 784.7498 -1593.9246)">
		<stop  offset="0" style="stop-color:#000000;stop-opacity:0.15"/>
		<stop  offset="0.3" style="stop-color:#000000;stop-opacity:6.000000e-02"/>
		<stop  offset="1" style="stop-color:#000000;stop-opacity:3.000000e-02"/>
	</linearGradient>
	<path fill="url(#SVGID_7_)" d="M143.1,68.7H99.7c6.5,0,12.7,3,16.8,8.2l27.5-6.9"/>
</g>
</svg>
