<?xml version="1.0" encoding="utf-8"?>
<!-- Generator: Adobe Illustrator 25.0.1, SVG Export Plug-In . SVG Version: 6.00 Build 0)  -->
<svg version="1.1" id="Layer_1" xmlns="http://www.w3.org/2000/svg" xmlns:xlink="http://www.w3.org/1999/xlink" x="0px" y="0px"
	 viewBox="0 0 200 180" enable-background="new 0 0 200 180" xml:space="preserve">
<g id="codesandbox">
	<path fill-rule="evenodd" clip-rule="evenodd" fill="#151515" d="M100,90.5v48.3c0.8,0,1.4-0.2,2.1-0.6l38.7-22.1
		c1.5-0.9,2.2-2.2,2.2-4V67.3c0-0.9-0.2-1.4-0.6-2.1l-41.1,23.2C100.5,88.8,100,89.6,100,90.5z M121.5,118.3c0,1.2-0.5,1.8-1.5,2.5
		l-12.9,7.4c-0.9,0.6-2.1,0.3-2.1-0.9V94.3c0-0.9,0.8-2,1.5-2.5L135.9,75c0.8-0.5,1.5,0.3,1.5,1.2v17.5c0,0.9-0.4,1.7-1.2,2.2
		l-13.2,7.1c-0.8,0.4-1.5,1.2-1.5,2.1V118.3z"/>
	<path fill-rule="evenodd" clip-rule="evenodd" fill="#151515" d="M57,112.1V67.3c0-1.8,0.9-3.4,2.5-4.3l37.5-21.2
		c0.8-0.4,2.2-0.6,3.1-0.6s2.3,0.2,3.1,0.6L140.2,63c0.7,0.4,1.7,1.4,2.1,2.2l-41.2,23.3c-0.8,0.4-1.2,1.3-1.2,2.2v48.2
		c-0.8,0-1.7-0.2-2.5-0.6l-37.8-21.8C58.2,115.5,57,113.9,57,112.1z M62.5,76.2v17.5c0,1.2,0.3,1.8,1.5,2.5l12.9,7.4
		c1.2,0.6,1.5,1.5,1.5,2.5v12.3c0,1.2,0.3,1.8,1.5,2.5l12.9,7.4c1.2,0.6,2.2,0.3,2.2-0.9V94.3c0-0.9-0.3-1.8-1.5-2.5L64.7,75.3
		C63.8,74.6,62.5,75,62.5,76.2z M112.9,55.3l-11.4,6.4c-0.9,0.6-2.1,0.6-3.1,0l-11.4-6.4c-0.7-0.4-1.7-0.4-2.5,0l-14.1,8
		c-1.2,0.6-1.2,1.8,0,2.5L98.8,82c0.8,0.4,1.7,0.4,2.5,0l28.3-16.3c0.9-0.6,1.2-1.8,0-2.5l-14.1-8C114.6,54.9,113.6,54.9,112.9,55.3
		z"/>
</g>
</svg>
