<?xml version="1.0" encoding="utf-8"?>
<!-- Generator: Adobe Illustrator 25.0.1, SVG Export Plug-In . SVG Version: 6.00 Build 0)  -->
<svg version="1.1" id="Layer_1" xmlns="http://www.w3.org/2000/svg" xmlns:xlink="http://www.w3.org/1999/xlink" x="0px" y="0px"
	 viewBox="0 0 200 180" enable-background="new 0 0 200 180" xml:space="preserve">
<g id="codepen">
	<path id="codepen_x5F_outer" fill="#231F20" d="M100,36c-29.8,0-54,24.2-54,54s24.2,54,54,54c29.8,0,54-24.2,54-54S129.8,36,100,36
		z M100,135.1c-24.9,0-45.1-20.2-45.1-45.1S75.1,44.9,100,44.9c24.9,0,45.1,20.2,45.1,45.1S124.9,135.1,100,135.1z"/>
	<path id="codepen_x5F_inner" fill="#231F20" d="M133.4,79.5c0,0,0-0.1,0-0.1c0-0.1,0-0.2-0.1-0.2c0,0,0-0.1,0-0.1
		c0-0.1,0-0.1-0.1-0.2c0,0,0-0.1-0.1-0.1c0-0.1-0.1-0.1-0.1-0.2c0,0-0.1-0.1-0.1-0.1c0-0.1-0.1-0.1-0.1-0.2c0,0-0.1-0.1-0.1-0.1
		c0-0.1-0.1-0.1-0.1-0.2c0,0-0.1-0.1-0.1-0.1c-0.1,0-0.1-0.1-0.2-0.1c0,0-0.1-0.1-0.1-0.1c0,0,0,0,0,0l-30.5-20.3
		c-1-0.6-2.2-0.6-3.2,0L67.9,77.4c0,0,0,0,0,0c0,0-0.1,0.1-0.1,0.1c-0.1,0-0.1,0.1-0.2,0.1c0,0-0.1,0.1-0.1,0.1c0,0-0.1,0.1-0.1,0.2
		c0,0-0.1,0.1-0.1,0.1c0,0.1-0.1,0.1-0.1,0.2c0,0-0.1,0.1-0.1,0.1c0,0.1-0.1,0.1-0.1,0.2c0,0,0,0.1-0.1,0.1c0,0.1-0.1,0.1-0.1,0.2
		c0,0,0,0.1,0,0.1c0,0.1,0,0.2-0.1,0.2c0,0,0,0.1,0,0.1c0,0.1,0,0.2,0,0.4v20.3c0,0.1,0,0.3,0,0.4c0,0,0,0.1,0,0.1
		c0,0.1,0,0.2,0.1,0.2c0,0,0,0.1,0,0.1c0,0.1,0,0.1,0.1,0.2c0,0,0,0.1,0.1,0.1c0,0.1,0.1,0.1,0.1,0.2c0,0,0.1,0.1,0.1,0.1
		c0,0.1,0.1,0.1,0.1,0.2c0,0,0.1,0.1,0.1,0.1c0,0.1,0.1,0.1,0.1,0.2c0,0,0.1,0.1,0.1,0.1c0.1,0,0.1,0.1,0.2,0.1c0,0,0.1,0.1,0.1,0.1
		c0,0,0,0,0,0l30.5,20.3c0.5,0.3,1,0.5,1.6,0.5c0.6,0,1.1-0.2,1.6-0.5l30.5-20.3c0,0,0,0,0,0c0,0,0.1-0.1,0.1-0.1
		c0.1,0,0.1-0.1,0.2-0.1c0,0,0.1-0.1,0.1-0.1c0.1,0,0.1-0.1,0.1-0.2c0,0,0.1-0.1,0.1-0.1c0-0.1,0.1-0.1,0.1-0.2c0,0,0.1-0.1,0.1-0.1
		c0-0.1,0.1-0.1,0.1-0.2c0,0,0-0.1,0.1-0.1c0-0.1,0.1-0.1,0.1-0.2c0,0,0-0.1,0-0.1c0-0.1,0-0.2,0.1-0.2c0,0,0-0.1,0-0.1
		c0-0.1,0-0.2,0-0.4V79.8C133.4,79.7,133.4,79.6,133.4,79.5z M102.9,64.8l22.5,15l-10,6.7l-12.4-8.3V64.8z M97.1,64.8v13.4
		l-12.4,8.3l-10-6.7L97.1,64.8z M72.3,85.2l7.2,4.8l-7.2,4.8V85.2z M97.1,115.2l-22.5-15l10-6.7l12.4,8.3V115.2z M100,96.8L89.9,90
		l10.1-6.8l10.1,6.8L100,96.8z M102.9,115.2v-13.4l12.4-8.3l10,6.7L102.9,115.2z M127.7,94.8l-7.2-4.8l7.2-4.8V94.8z"/>
</g>
</svg>
