<?xml version="1.0" encoding="utf-8"?>
<!-- Generator: Adobe Illustrator 25.0.1, SVG Export Plug-In . SVG Version: 6.00 Build 0)  -->
<svg version="1.1" id="Layer_1" xmlns="http://www.w3.org/2000/svg" xmlns:xlink="http://www.w3.org/1999/xlink" x="0px" y="0px"
	 viewBox="0 0 200 180" enable-background="new 0 0 200 180" xml:space="preserve">
<g id="edge">
	
		<linearGradient id="SVGID_1_" gradientUnits="userSpaceOnUse" x1="79.7312" y1="346.5299" x2="143.8013" y2="346.5299" gradientTransform="matrix(1 0 0 1 -4.63 -238.92)">
		<stop  offset="0" style="stop-color:#0C59A4"/>
		<stop  offset="1" style="stop-color:#114A8B"/>
	</linearGradient>
	<path fill="url(#SVGID_1_)" d="M137,112.5c-1.2,0.6-2.5,1.2-3.8,1.7c-4.1,1.5-8.5,2.3-12.9,2.3c-17,0-31.8-11.7-31.8-26.7
		c0-4.1,2.3-7.9,5.9-9.8C79.1,80.6,75.1,96.6,75.1,106c0,26.5,24.5,29.2,29.7,29.2c2.8,0,7.1-0.8,9.7-1.6l0.5-0.2
		c9.9-3.4,18.3-10.1,23.9-19c0.4-0.7,0.2-1.6-0.4-2C138.1,112.2,137.5,112.2,137,112.5z"/>
	
		<radialGradient id="SVGID_2_" cx="115.1274" cy="365.4233" r="34.275" gradientTransform="matrix(1 0 0 0.95 -4.63 -239.03)" gradientUnits="userSpaceOnUse">
		<stop  offset="0.72" style="stop-color:#000000;stop-opacity:0"/>
		<stop  offset="0.95" style="stop-color:#000000;stop-opacity:0.53"/>
		<stop  offset="1" style="stop-color:#000000"/>
	</radialGradient>
	<path opacity="0.35" fill="url(#SVGID_2_)" enable-background="new    " d="M137,112.5c-1.2,0.6-2.5,1.2-3.8,1.7
		c-4.1,1.5-8.5,2.3-12.9,2.3c-17,0-31.8-11.7-31.8-26.7c0-4.1,2.3-7.9,5.9-9.8C79.1,80.6,75.1,96.6,75.1,106
		c0,26.5,24.5,29.2,29.7,29.2c2.8,0,7.1-0.8,9.7-1.6l0.5-0.2c9.9-3.4,18.3-10.1,23.9-19c0.4-0.7,0.2-1.6-0.4-2
		C138.1,112.2,137.5,112.2,137,112.5z"/>
	
		<linearGradient id="SVGID_3_" gradientUnits="userSpaceOnUse" x1="113.5384" y1="318.7568" x2="73.5101" y2="362.357" gradientTransform="matrix(1 0 0 1 -4.63 -238.92)">
		<stop  offset="0" style="stop-color:#1B9DE2"/>
		<stop  offset="0.16" style="stop-color:#1595DF"/>
		<stop  offset="0.67" style="stop-color:#0680D7"/>
		<stop  offset="1" style="stop-color:#0078D4"/>
	</linearGradient>
	<path fill="url(#SVGID_3_)" d="M92,130.7c-3.2-2-6-4.6-8.2-7.7c-9.4-12.9-6.6-31.1,6.3-40.5c1.4-1,2.8-1.9,4.3-2.6
		c1.1-0.5,3-1.5,5.6-1.4c3.6,0,7.1,1.8,9.2,4.7c1.5,1.9,2.3,4.3,2.3,6.7c0-0.1,8.8-28.6-28.7-28.6C67,61.3,54,76.3,54,89.4
		c-0.1,6.9,1.4,13.8,4.4,20.1c9.9,21.1,34.1,31.5,56.2,24.1C107,136,98.8,135,92,130.7L92,130.7z"/>
	
		<radialGradient id="SVGID_4_" cx="-540.4807" cy="484.8505" r="51.4737" gradientTransform="matrix(0.15 -0.99 0.8 0.12 -227.44 -477.75)" gradientUnits="userSpaceOnUse">
		<stop  offset="0.76" style="stop-color:#000000;stop-opacity:0"/>
		<stop  offset="0.95" style="stop-color:#000000;stop-opacity:0.5"/>
		<stop  offset="1" style="stop-color:#000000"/>
	</radialGradient>
	<path opacity="0.41" fill="url(#SVGID_4_)" enable-background="new    " d="M92,130.7c-3.2-2-6-4.6-8.2-7.7
		c-9.4-12.9-6.6-31.1,6.3-40.5c1.4-1,2.8-1.9,4.3-2.6c1.1-0.5,3-1.5,5.6-1.4c3.6,0,7.1,1.8,9.2,4.7c1.5,1.9,2.3,4.3,2.3,6.7
		c0-0.1,8.8-28.6-28.7-28.6C67,61.3,54,76.3,54,89.4c-0.1,6.9,1.4,13.8,4.4,20.1c9.9,21.1,34.1,31.5,56.2,24.1
		C107,136,98.8,135,92,130.7L92,130.7z"/>
	
		<radialGradient id="SVGID_5_" cx="129.7606" cy="-319.8517" r="72.7437" gradientTransform="matrix(-4.000000e-02 1 -2.13 -8.000000e-02 -612.8 -94.33)" gradientUnits="userSpaceOnUse">
		<stop  offset="0" style="stop-color:#35C1F1"/>
		<stop  offset="0.11" style="stop-color:#34C1ED"/>
		<stop  offset="0.23" style="stop-color:#2FC2DF"/>
		<stop  offset="0.31" style="stop-color:#2BC3D2"/>
		<stop  offset="0.67" style="stop-color:#36C752"/>
	</radialGradient>
	<path fill="url(#SVGID_5_)" d="M108.7,97.5c-0.3,0.4-1.2,0.9-1.2,2c0,0.9,0.6,1.8,1.7,2.6c5.2,3.6,14.9,3.1,14.9,3.1
		c3.8,0,7.6-1,10.9-3c6.8-3.9,10.9-11.2,10.9-19c0.1-8.1-2.9-13.4-4.1-15.8C134.3,52.6,117.9,44,100,44c-25.2,0-45.6,20.2-46,45.4
		c0.2-13.1,13.2-23.7,28.7-23.7c1.3,0,8.4,0.1,15.1,3.6c5.9,3.1,8.9,6.8,11.1,10.5c2.2,3.8,2.6,8.7,2.6,10.6S110.6,95.1,108.7,97.5z
		"/>
	
		<radialGradient id="SVGID_6_" cx="388.5814" cy="-232.2536" r="34.9794" gradientTransform="matrix(0.28 0.96 -0.78 0.23 -149.69 -247.81)" gradientUnits="userSpaceOnUse">
		<stop  offset="0" style="stop-color:#66EB6E"/>
		<stop  offset="1" style="stop-color:#66EB6E;stop-opacity:0"/>
	</radialGradient>
	<path fill="url(#SVGID_6_)" d="M108.7,97.5c-0.3,0.4-1.2,0.9-1.2,2c0,0.9,0.6,1.8,1.7,2.6c5.2,3.6,14.9,3.1,14.9,3.1
		c3.8,0,7.6-1,10.9-3c6.8-3.9,10.9-11.2,10.9-19c0.1-8.1-2.9-13.4-4.1-15.8C134.3,52.6,117.9,44,100,44c-25.2,0-45.6,20.2-46,45.4
		c0.2-13.1,13.2-23.7,28.7-23.7c1.3,0,8.4,0.1,15.1,3.6c5.9,3.1,8.9,6.8,11.1,10.5c2.2,3.8,2.6,8.7,2.6,10.6S110.6,95.1,108.7,97.5z
		"/>
</g>
</svg>
