<?xml version="1.0" encoding="utf-8"?>
<!-- Generator: Adobe Illustrator 25.0.1, SVG Export Plug-In . SVG Version: 6.00 Build 0)  -->
<svg version="1.1" id="Layer_1" xmlns="http://www.w3.org/2000/svg" xmlns:xlink="http://www.w3.org/1999/xlink" x="0px" y="0px"
	 viewBox="0 0 200 180" enable-background="new 0 0 200 180" xml:space="preserve">
<g id="firefox">
	
		<radialGradient id="SVGID_1_" cx="-15539.751" cy="-9294.8506" r="48.5704" fx="-15542.8496" fy="-9294.8506" gradientTransform="matrix(0.76 3.000000e-02 -5.000000e-02 1.12 11495.0801 10946.2002)" gradientUnits="userSpaceOnUse">
		<stop  offset="0.1" style="stop-color:#FFEA00"/>
		<stop  offset="0.17" style="stop-color:#FFDE00"/>
		<stop  offset="0.28" style="stop-color:#FFBF00"/>
		<stop  offset="0.43" style="stop-color:#FF8E00"/>
		<stop  offset="0.77" style="stop-color:#FF272D"/>
		<stop  offset="0.87" style="stop-color:#E0255A"/>
		<stop  offset="0.95" style="stop-color:#CC2477"/>
		<stop  offset="1" style="stop-color:#C42482"/>
	</radialGradient>
	<path fill="url(#SVGID_1_)" d="M131.6,46.9c-2.6,3-3.8,9.8-1.2,16.6c2.6,6.9,6.6,5.4,9.1,12.4c3.3,9.2,1.8,21.6,1.8,21.6
		s4,11.5,6.7-0.7C154.2,73.8,131.6,52.5,131.6,46.9z"/>
	
		<radialGradient id="_Path__1_" cx="-8001.3574" cy="-8764.4707" r="85.2341" gradientTransform="matrix(1.23 0 0 1.23 9957.6797 10833.8203)" gradientUnits="userSpaceOnUse">
		<stop  offset="0" style="stop-color:#00CCDA"/>
		<stop  offset="0.22" style="stop-color:#0083FF"/>
		<stop  offset="0.26" style="stop-color:#007AF9"/>
		<stop  offset="0.33" style="stop-color:#0060E8"/>
		<stop  offset="0.33" style="stop-color:#005FE7"/>
		<stop  offset="0.44" style="stop-color:#2639AD"/>
		<stop  offset="0.52" style="stop-color:#401E84"/>
		<stop  offset="0.57" style="stop-color:#4A1475"/>
	</radialGradient>
	<path id="_Path_" fill="url(#_Path__1_)" d="M100.1,142c26.4,0,47.8-21.5,47.8-48s-21.4-48-47.8-48s-47.8,21.5-47.8,48
		C52.3,120.5,73.8,142,100.1,142z"/>
	
		<linearGradient id="SVGID_2_" gradientUnits="userSpaceOnUse" x1="106.8902" y1="-688.4481" x2="86.2676" y2="-755.9078" gradientTransform="matrix(1 0 0 1 0 804)">
		<stop  offset="0" style="stop-color:#000F43;stop-opacity:0.4"/>
		<stop  offset="0.48" style="stop-color:#001962;stop-opacity:0.17"/>
		<stop  offset="1" style="stop-color:#002079;stop-opacity:0"/>
	</linearGradient>
	<path fill="url(#SVGID_2_)" d="M136,123.6c-1,0.7-2.1,1.4-3.2,2c1.5-2.2,2.9-4.5,4.1-6.8c1-1.1,2-2.2,2.7-3.4
		c0.4-0.6,0.8-1.3,1.2-2.1c2.7-4.8,5.6-12.7,5.7-20.7v-0.6c0-2-0.2-4-0.6-6c0,0.2,0,0.3,0.1,0.5c0-0.1,0-0.2-0.1-0.4
		c0,0.2,0.1,0.4,0.1,0.6c0.5,4.7,0.2,9.2-1.8,12.5c0,0-0.1,0.1-0.1,0.1c1-5.1,1.4-10.7,0.2-16.3c0,0-0.5-2.7-3.8-11
		c-1.9-4.8-5.4-8.7-8.4-11.5c-2.7-3.3-5.1-5.5-6.4-6.9c-2.8-2.9-3.9-5.1-4.4-6.6c-0.4-0.2-5.7-5.4-6.1-5.6
		c-2.3,3.6-9.6,14.8-6.1,25.3c1.6,4.8,5.5,9.7,9.7,12.5c0.2,0.2,2.5,2.7,3.6,8.3c1.1,5.8,0.5,10.3-1.8,17
		c-2.7,5.9-9.7,11.7-16.2,12.3c-14,1.3-19.1-7-19.1-7c5,2,10.5,1.6,13.9-0.5c3.4-2.1,5.4-3.6,7.1-3c1.6,0.6,2.9-1.2,1.8-3
		c-1.8-2.8-5.2-4.3-8.6-3.7c-3.4,0.6-6.5,3.2-10.9,0.6c-0.3-0.2-0.6-0.3-0.8-0.5c-0.3-0.2,1,0.3,0.7,0.1c-0.9-0.5-2.4-1.5-2.8-1.9
		c-0.1-0.1,0.7,0.2,0.6,0.2c-4.1-3.4-3.6-5.7-3.5-7.2c0.1-1.2,0.9-2.6,2.1-3.2c0.6,0.3,1,0.6,1,0.6s-0.3-0.5-0.4-0.8
		c0,0,0.1,0,0.1,0c0.5,0.2,1.6,0.9,2.2,1.3c0.8,0.5,1,1,1,1s0.2-0.1,0.1-0.6c-0.1-0.2-0.3-0.8-1-1.4h0c0.5,0.3,0.9,0.6,1.3,0.9
		c0.2-0.8,0.6-1.6,0.5-3c-0.1-1,0-1.3-0.2-1.7c-0.2-0.3,0.1-0.5,0.4-0.1c0-0.3-0.1-0.5-0.2-0.8v0c0.3-1.2,7.4-4.4,7.9-4.7
		c0.8-0.6,1.5-1.4,2.1-2.2c0.4-0.6,0.7-1.5,0.8-2.8c0-1-0.4-1.6-7.5-2.3c-1.9-0.2-3.1-1.6-3.7-2.9c-0.1-0.3-0.2-0.5-0.4-0.8
		c-0.1-0.3-0.2-0.6-0.3-0.9c1.2-3.3,3.1-6.1,6-8.3c0.2-0.1-0.6,0-0.5-0.1c0.2-0.2,1.4-0.6,1.6-0.8c0.3-0.1-1.2-0.7-2.4-0.6
		c-1.3,0.1-1.6,0.3-2.3,0.6c0.3-0.3,1.2-0.7,1-0.7c-1.4,0.2-3.1,1-4.6,2c0-0.2,0-0.3,0.1-0.5c-0.7,0.3-2.4,1.5-2.9,2.5
		c0-0.2,0-0.4,0-0.6c-0.5,0.4-1,0.9-1.4,1.5l0,0c-4-1.6-7.6-1.7-10.6-1c-0.7-0.7-1-0.2-2.5-3.5c-0.1-0.2,0.1,0.2,0,0
		c-0.2-0.6,0.1,0.8,0,0c-2.5,2-5.8,4.2-7.4,5.8c0,0.1,1.8-0.5,0,0c-0.6,0.2-0.6,0.6-0.7,4c0,0.3,0,0.6,0,0.8c-1.3,1.6-2.1,3-2.5,3.7
		c-1.6,2.8-3.4,7.2-5.2,14.2c0.8-1.9,1.7-3.7,2.8-5.4c-1.5,3.7-2.9,9.5-3.1,18.4c0.4-1.8,0.8-3.7,1.3-5.5
		c-0.3,7.4,0.9,14.8,3.7,21.7c1,2.5,2.7,6.2,5.5,10.3c8.9,9.4,21.4,15.2,35.3,15.2C114,140,127,133.6,136,123.6z"/>
	
		<radialGradient id="SVGID_3_" cx="-9040.6943" cy="-7666.3169" r="28.7503" gradientTransform="matrix(1.22 0.12 -0.12 1.22 10262.2803 10545.2197)" gradientUnits="userSpaceOnUse">
		<stop  offset="0" style="stop-color:#FFEA00"/>
		<stop  offset="0.5" style="stop-color:#FF272D"/>
		<stop  offset="1" style="stop-color:#C42482"/>
	</radialGradient>
	<path fill="url(#SVGID_3_)" d="M125.3,130.4c17.5-2,25.3-20.1,15.3-20.5C131.6,109.6,116.9,131.3,125.3,130.4z"/>
	
		<radialGradient id="SVGID_4_" cx="-9043.2959" cy="-7693.8843" r="48.0102" gradientTransform="matrix(1.22 0.12 -0.12 1.22 10262.2803 10545.2197)" gradientUnits="userSpaceOnUse">
		<stop  offset="0" style="stop-color:#FFE900"/>
		<stop  offset="0.16" style="stop-color:#FFAF0E"/>
		<stop  offset="0.32" style="stop-color:#FF7A1B"/>
		<stop  offset="0.47" style="stop-color:#FF4E26"/>
		<stop  offset="0.62" style="stop-color:#FF2C2E"/>
		<stop  offset="0.76" style="stop-color:#FF1434"/>
		<stop  offset="0.89" style="stop-color:#FF0538"/>
		<stop  offset="1" style="stop-color:#FF0039"/>
	</radialGradient>
	<path fill="url(#SVGID_4_)" d="M141.9,106.2c12.1-7,8.9-22.2,8.9-22.2s-4.7,5.4-7.8,14C139.8,106.6,134.6,110.4,141.9,106.2z"/>
	
		<radialGradient id="SVGID_5_" cx="-9036.5049" cy="-7649.3794" r="44.0546" gradientTransform="matrix(1.22 0.12 -0.12 1.22 10262.2803 10545.2197)" gradientUnits="userSpaceOnUse">
		<stop  offset="0" style="stop-color:#FF272D"/>
		<stop  offset="0.5" style="stop-color:#C42482"/>
		<stop  offset="0.99" style="stop-color:#620700"/>
	</radialGradient>
	<path fill="url(#SVGID_5_)" d="M103.5,139.3c16.8,5.4,31.3-7.9,22.4-12.3C117.8,123,95.5,136.8,103.5,139.3z"/>
	
		<radialGradient id="SVGID_6_" cx="125.6929" cy="-724.5526" r="84.2592" fx="128.7066" fy="-726.0422" gradientTransform="matrix(1 0 0 1 0 804)" gradientUnits="userSpaceOnUse">
		<stop  offset="0.16" style="stop-color:#FFEA00"/>
		<stop  offset="0.23" style="stop-color:#FFDE00"/>
		<stop  offset="0.37" style="stop-color:#FFBF00"/>
		<stop  offset="0.54" style="stop-color:#FF8E00"/>
		<stop  offset="0.76" style="stop-color:#FF272D"/>
		<stop  offset="0.8" style="stop-color:#F92433"/>
		<stop  offset="0.84" style="stop-color:#E91C45"/>
		<stop  offset="0.89" style="stop-color:#CF0E62"/>
		<stop  offset="0.94" style="stop-color:#B5007F"/>
	</radialGradient>
	<path fill="url(#SVGID_6_)" d="M143.1,112.6c0.4-0.6,1-2.4,1.5-3.3c3-4.8,3-8.6,3-8.7c1.8-9,1.6-12.6,0.5-19.4
		c-0.9-5.5-4.8-13.3-8.1-17c-3.5-3.9-1-2.6-4.4-5.4c-2.9-3.3-5.8-6.5-7.4-7.8c-11.2-9.4-11-11.4-10.8-11.7c0,0-0.1,0.1-0.2,0.2
		c-0.1-0.5-0.2-1-0.2-1s-6.1,6.1-7.4,16.4c-0.8,6.7,1.7,13.6,5.3,18.1c1.9,2.3,4,4.4,6.4,6.2l0,0c2.7,3.9,4.2,8.8,4.2,14
		c0,13.1-10.6,23.6-23.7,23.6c-1.8,0-3.6-0.2-5.3-0.6c-6.2-1.2-9.7-4.3-11.5-6.4c-1-1.2-1.4-2.1-1.4-2.1c5.5,2,11.6,1.6,15.3-0.5
		c3.7-2.1,6-3.6,7.8-3c1.8,0.6,3.3-1.1,2-3c-1.3-1.8-4.6-4.4-9.5-3.7c-3.7,0.5-7.2,3.2-12.1,0.6c-0.3-0.2-0.6-0.3-0.9-0.5
		c-0.3-0.2,1.1,0.3,0.7,0.1c-1-0.5-2.6-1.5-3.1-1.8c-0.1-0.1,0.7,0.2,0.7,0.2c-4.6-3.4-4-5.7-3.9-7.1c0.1-1.1,0.9-2.6,2.4-3.2
		c0.7,0.3,1.1,0.6,1.1,0.6s-0.3-0.5-0.4-0.8c0.1,0,0.1,0,0.2,0c0.6,0.2,1.8,0.9,2.4,1.2c0.8,0.5,1.1,1,1.1,1s0.2-0.1,0.1-0.6
		c-0.1-0.2-0.3-0.8-1.2-1.4h0.1c0.5,0.3,1,0.5,1.4,0.9c0.2-0.8,0.7-1.6,0.6-3c-0.1-1,0-1.3-0.2-1.7c-0.2-0.3,0.1-0.5,0.4-0.1
		c-0.1-0.3-0.1-0.5-0.3-0.8v0c0.4-1.2,8.1-4.3,8.7-4.7c0.9-0.6,1.7-1.3,2.3-2.2c0.4-0.6,0.8-1.5,0.8-2.8c0-0.6-0.2-1.1-2.2-1.5
		c-1.2-0.3-3.1-0.5-6.1-0.8c-2.1-0.2-3.4-1.6-4.1-2.9c-0.1-0.3-0.3-0.5-0.4-0.8c-0.1-0.3-0.2-0.6-0.3-0.9c1.3-3.4,3.6-6.2,6.6-8.2
		c0.2-0.1-0.7,0-0.5-0.1c0.2-0.2,1.5-0.6,1.8-0.7c0.3-0.1-1.3-0.7-2.7-0.6c-1.4,0.1-1.7,0.3-2.5,0.6c0.3-0.3,1.3-0.7,1.1-0.7
		c-1.6,0.2-3.5,1-5.1,1.9c0-0.2,0-0.3,0.1-0.5c-0.8,0.3-2.7,1.5-3.2,2.5c0-0.2,0-0.4,0-0.6c-0.6,0.4-1.1,0.9-1.6,1.5l0,0
		c-4.4-1.6-8.4-1.7-11.7-1c-0.7-0.7-1.9-1.6-3.5-4.9c-0.1-0.2-0.2,0.4-0.3,0.2c-0.6-1.5-1-3.9-1-5.6c0,0-1.3,0.6-2.4,3.1
		c-0.2,0.5-0.3,0.7-0.5,1c-0.1,0.1,0.1-0.8,0.1-0.8c-0.2,0.3-0.7,0.8-0.9,1.4c-0.1,0.4-0.4,0.7-0.5,1.2l0,0c0-0.2,0-0.7,0-0.6
		c-0.5,1-1,2.1-1.3,3.2c-0.6,1.9-1.3,4.6-1.4,8c0,0.3,0,0.6,0,0.8c-1.4,1.6-2.4,3-2.7,3.7C53,72.3,51,76.7,49,83.6
		c0.9-1.9,1.9-3.7,3.1-5.4c-1.6,3.7-3.2,9.4-3.5,18.3c0.4-1.8,0.9-3.6,1.5-5.4c-0.3,5.9,0.4,13.2,4.1,21.5
		c2.2,4.8,7.3,14.7,19.8,22.4l0,0c0,0,4.2,3.2,11.5,5.5c0.5,0.2,1.1,0.4,1.6,0.6c-0.2-0.1-0.3-0.1-0.5-0.2c4.9,1.5,9.9,2.2,15,2.2
		c18.9,0,24.4-7.6,24.4-7.6l-0.1,0c0.3-0.3,0.5-0.5,0.8-0.8c-3,2.8-9.8,3-12.3,2.8c4.3-1.3,7.2-2.3,12.7-4.5c0.6-0.2,1.3-0.5,2-0.8
		l0.2-0.1c0.1-0.1,0.3-0.1,0.4-0.2c2.7-1.3,5.2-2.9,7.6-4.7c5.6-4.4,6.8-8.8,7.4-11.6c-0.1,0.3-0.4,0.9-0.6,1.3
		c-1.4,3.1-4.6,5-8.1,6.6c1.6-2.2,3.2-4.4,4.6-6.7C141.9,115.6,142.3,113.8,143.1,112.6z"/>
	
		<radialGradient id="SVGID_7_" cx="120.8615" cy="-763.6293" r="96.0302" gradientTransform="matrix(1 0 0 1 0 804)" gradientUnits="userSpaceOnUse">
		<stop  offset="0.28" style="stop-color:#FFEA00"/>
		<stop  offset="0.4" style="stop-color:#FFDD00"/>
		<stop  offset="0.63" style="stop-color:#FFBA00"/>
		<stop  offset="0.86" style="stop-color:#FF9100"/>
		<stop  offset="0.93" style="stop-color:#FF6711"/>
		<stop  offset="0.99" style="stop-color:#FF4A1D"/>
	</radialGradient>
	<path fill="url(#SVGID_7_)" d="M136.3,123.3c2.3-2.5,4.3-5.4,5.9-8.6c4-8.4,10.1-22.3,5.3-36.8c-3.8-11.5-9.1-17.7-15.7-23.9
		c-10.8-9.9-13.9-14.4-13.9-17c0,0-12.5,13.9-7.1,28.5s16.5,14,23.9,29.2c8.6,17.9-7,37.3-19.9,42.8c0.8-0.2,28.8-6.5,30.2-22.5
		C144.9,115.2,144.3,119.7,136.3,123.3z"/>
	
		<linearGradient id="SVGID_8_" gradientUnits="userSpaceOnUse" x1="-9114.5615" y1="-7684.5254" x2="-9081.4873" y2="-7692.9561" gradientTransform="matrix(1.22 0.12 -0.12 1.22 10262.2803 10545.2197)">
		<stop  offset="0" style="stop-color:#C42482;stop-opacity:0.5"/>
		<stop  offset="0.47" style="stop-color:#FF272D;stop-opacity:0.5"/>
		<stop  offset="0.49" style="stop-color:#FF2C2C;stop-opacity:0.51"/>
		<stop  offset="0.68" style="stop-color:#FF7A1A;stop-opacity:0.72"/>
		<stop  offset="0.83" style="stop-color:#FFB20D;stop-opacity:0.87"/>
		<stop  offset="0.94" style="stop-color:#FFD605;stop-opacity:0.96"/>
		<stop  offset="1" style="stop-color:#FFE302"/>
	</linearGradient>
	<path fill="url(#SVGID_8_)" d="M100.1,71.4c0-0.9-0.4-1.6-8.3-2.3c-3.2-0.3-4.4-3.3-4.8-4.5c-1.1,3-1.6,6.1-1.4,9.9
		c0.2,2.5,1.8,5.1,2.6,6.7c0,0,0.2-0.2,0.3-0.3c1.5-1.6,7.7-3.9,8.3-4.3C97.5,76.1,100,74.3,100.1,71.4z"/>
	
		<linearGradient id="SVGID_9_" gradientUnits="userSpaceOnUse" x1="87.9245" y1="-2092.0674" x2="82.0461" y2="-2107.1326" gradientTransform="matrix(0.99 0.1 -0.1 0.99 -231.98 2127.8599)">
		<stop  offset="0" style="stop-color:#891551;stop-opacity:0.6"/>
		<stop  offset="1" style="stop-color:#C42482;stop-opacity:0"/>
	</linearGradient>
	<path fill="url(#SVGID_9_)" d="M65.7,53.9c-0.1-0.2-0.2,0.4-0.3,0.2c-0.6-1.5-1-3.9-0.9-5.6c0,0-1.3,0.6-2.4,3.1
		c-0.2,0.5-0.3,0.7-0.5,1c-0.1,0.1,0.1-0.8,0.1-0.8c-0.2,0.3-0.7,0.8-0.9,1.3c-0.2,0.5-0.4,0.7-0.5,1.3c0,0.2,0-0.7,0-0.6
		c-2.6,4.9-3,12.4-2.8,12.1c5.4-5.8,11.7-7.2,11.7-7.2C68.6,58.2,67.1,56.8,65.7,53.9L65.7,53.9z"/>
	
		<linearGradient id="SVGID_10_" gradientUnits="userSpaceOnUse" x1="-223.4107" y1="-462.4659" x2="-213.2728" y2="-450.9524" gradientTransform="matrix(0.99 0.1 -0.1 0.99 247.15 567.45)">
		<stop  offset="1.000000e-02" style="stop-color:#891551;stop-opacity:0.5"/>
		<stop  offset="0.48" style="stop-color:#FF272D;stop-opacity:0.5"/>
		<stop  offset="1" style="stop-color:#FF272D;stop-opacity:0"/>
	</linearGradient>
	<path fill="url(#SVGID_10_)" d="M86.3,114.6c-7.5-3.2-16.1-7.7-15.7-18C71,83,83.2,85.7,83.2,85.7c-0.5,0.1-1.7,1-2.1,1.9
		c-0.5,1.2-1.3,3.8,1.2,6.6c4,4.3-8.2,10.3,10.6,21.5C93.5,115.9,88.6,115.5,86.3,114.6L86.3,114.6z"/>
	
		<linearGradient id="SVGID_11_" gradientUnits="userSpaceOnUse" x1="-203.9243" y1="-442.6058" x2="-203.9168" y2="-450.6614" gradientTransform="matrix(0.99 0.1 -0.1 0.99 247.15 567.45)">
		<stop  offset="0" style="stop-color:#C42482"/>
		<stop  offset="8.000000e-02" style="stop-color:#C42482;stop-opacity:0.81"/>
		<stop  offset="0.21" style="stop-color:#C42482;stop-opacity:0.57"/>
		<stop  offset="0.33" style="stop-color:#C42482;stop-opacity:0.36"/>
		<stop  offset="0.45" style="stop-color:#C42482;stop-opacity:0.2"/>
		<stop  offset="0.56" style="stop-color:#C42482;stop-opacity:9.000000e-02"/>
		<stop  offset="0.67" style="stop-color:#C42482;stop-opacity:2.000000e-02"/>
		<stop  offset="0.77" style="stop-color:#C42482;stop-opacity:0"/>
	</linearGradient>
	<path fill="url(#SVGID_11_)" d="M83.7,107.8c5.3,1.9,11.5,1.5,15.2-0.5c2.5-1.4,5.7-3.6,7.6-3.1c-1.7-0.7-3-1-4.5-1.1
		c-0.3,0-0.6,0-0.9,0c-0.6,0-1.1,0-1.7,0.1c-1,0.1-2,0.7-3,0.6c-0.1,0,0.9-0.4,0.9-0.4c-0.5,0.1-1.1,0.1-1.7,0.2
		c-0.4,0-0.7,0.1-1.1,0.1c-11.1,0.9-20.5-6-20.5-6C73.3,100.4,77.7,105.8,83.7,107.8L83.7,107.8z"/>
	
		<linearGradient id="SVGID_12_" gradientUnits="userSpaceOnUse" x1="115.4947" y1="-763.109" x2="148.4214" y2="-689.4811" gradientTransform="matrix(1 0 0 1 0 804)">
		<stop  offset="0" style="stop-color:#FFF14F"/>
		<stop  offset="0.27" style="stop-color:#FFEE4C"/>
		<stop  offset="0.45" style="stop-color:#FFE643"/>
		<stop  offset="0.61" style="stop-color:#FFD834"/>
		<stop  offset="0.76" style="stop-color:#FFC41E"/>
		<stop  offset="0.89" style="stop-color:#FFAB02"/>
		<stop  offset="0.9" style="stop-color:#FFA900"/>
		<stop  offset="0.95" style="stop-color:#FFA000"/>
		<stop  offset="1" style="stop-color:#FF9100"/>
	</linearGradient>
	<path fill="url(#SVGID_12_)" d="M136.3,123.4c11.2-11,16.9-24.4,14.5-39.4c0,0,1,7.7-2.7,15.6c1.7-7.7,1.9-17.2-2.7-27.1
		c-6.2-13.2-16.4-20.2-20.3-23.1c-5.9-4.4-8.3-8.9-8.4-9.8c-1.8,3.6-7.1,16-0.6,26.6c6.1,10,15.7,12.9,22.4,22.1
		C151.1,105,136.3,123.4,136.3,123.4z"/>
	
		<linearGradient id="SVGID_13_" gradientUnits="userSpaceOnUse" x1="121.997" y1="-720.7639" x2="106.4008" y2="-678.8864" gradientTransform="matrix(1 0 0 1 0 804)">
		<stop  offset="0" style="stop-color:#FF8E00"/>
		<stop  offset="4.000000e-02" style="stop-color:#FF8E00;stop-opacity:0.86"/>
		<stop  offset="8.000000e-02" style="stop-color:#FF8E00;stop-opacity:0.73"/>
		<stop  offset="0.13" style="stop-color:#FF8E00;stop-opacity:0.63"/>
		<stop  offset="0.18" style="stop-color:#FF8E00;stop-opacity:0.56"/>
		<stop  offset="0.23" style="stop-color:#FF8E00;stop-opacity:0.51"/>
		<stop  offset="0.28" style="stop-color:#FF8E00;stop-opacity:0.5"/>
		<stop  offset="0.39" style="stop-color:#FF8E00;stop-opacity:0.48"/>
		<stop  offset="0.52" style="stop-color:#FF8E00;stop-opacity:0.42"/>
		<stop  offset="0.68" style="stop-color:#FF8E00;stop-opacity:0.31"/>
		<stop  offset="0.84" style="stop-color:#FF8E00;stop-opacity:0.17"/>
		<stop  offset="1" style="stop-color:#FF8E00;stop-opacity:0"/>
	</linearGradient>
	<path fill="url(#SVGID_13_)" d="M134.7,94.7c-3.9-8.1-8.8-11.6-13.4-15.5c0.5,0.8,0.7,1,1,1.5c4.1,4.3,10.1,14.9,5.7,28.2
		c-8.2,25-41.1,13.2-44.5,9.9c1.4,14.5,25.6,21.4,41.4,12C133.9,122.4,141.1,108,134.7,94.7z"/>
</g>
</svg>
