<?xml version="1.0" encoding="utf-8"?>
<!-- Generator: Adobe Illustrator 25.0.1, SVG Export Plug-In . SVG Version: 6.00 Build 0)  -->
<svg version="1.1" id="Layer_1" xmlns="http://www.w3.org/2000/svg" xmlns:xlink="http://www.w3.org/1999/xlink" x="0px" y="0px"
	 viewBox="0 0 200 180" enable-background="new 0 0 200 180" xml:space="preserve">
<path id="fontawesome" fill="#339AF0" d="M142.8,34.7h-85c-6.7,0-12.3,5.5-12.3,12.3V132c0,6.7,5.5,12.3,12.3,12.3h85.1
	c6.7,0,12.3-5.5,12.3-12.3V47C155,40.2,149.5,34.7,142.8,34.7z M130.2,104.3L130.2,104.3c0,1-0.9,1.5-1.9,1.9
	c-4.1,1.7-8.5,3.4-13.2,3.4c-8.7,0-14.7-9.6-34.9,0.5v11.1c0,6.5-9.8,6.5-9.8,0V67.6c-1.9-1.5-3.2-3.8-3.2-6.5
	c0-4.5,3.7-8.2,8.2-8.2c4.5,0,8.2,3.7,8.2,8.2c0,2.6-1.2,5-3.2,6.5v4.5c7.9-2.6,14-7.4,31.3-0.7c5.7,2.4,14.7-3.4,16.4-3.4
	c1.2,0,2.2,0.9,2.2,1.9V104.3z"/>
</svg>
