<?xml version="1.0" encoding="utf-8"?>
<!-- Generator: Adobe Illustrator 25.0.1, SVG Export Plug-In . SVG Version: 6.00 Build 0)  -->
<svg version="1.1" id="Layer_1" xmlns="http://www.w3.org/2000/svg" xmlns:xlink="http://www.w3.org/1999/xlink" x="0px" y="0px"
	 viewBox="0 0 200 180" enable-background="new 0 0 200 180" xml:space="preserve">
<g id="illustrator">
	<path id="illustrator_x5F_bg" fill="#330000" d="M63.7,35.2h72.6c11,0,19.9,8.9,19.9,19.9v69.8c0,11-8.9,19.9-19.9,19.9H63.7
		c-11,0-19.9-8.9-19.9-19.9V55.1C43.8,44.1,52.7,35.2,63.7,35.2z"/>
	<path id="illustrator_x5F_i" fill="#FF9A00" d="M123.3,71.3c-1.5,0-3-0.6-4.2-1.6c-1.1-1.2-1.6-2.7-1.6-4.3c0-1.6,0.6-3.1,1.7-4.2
		c1.1-1.1,2.6-1.6,4.2-1.6c1.8,0,3.2,0.6,4.3,1.6c1,1.1,1.6,2.6,1.5,4.2c0,1.6-0.5,3.1-1.6,4.3C126.5,70.7,124.9,71.3,123.3,71.3z
		 M118.1,111.9V75.8c0-0.5,0.2-0.7,0.6-0.7h9.3c0.4,0,0.6,0.2,0.6,0.7v36.1c0,0.5-0.2,0.7-0.6,0.7h-9.2
		C118.3,112.7,118.1,112.4,118.1,111.9z"/>
	<path id="illustrator_x5F_a" fill="#FF9A00" d="M98.3,101H80.8l-3.6,11c-0.1,0.4-0.5,0.7-0.9,0.7h-8.8c-0.5,0-0.7-0.3-0.5-0.8
		l15.1-43.4c0.1-0.5,0.3-1,0.5-1.5c0.2-1,0.3-2,0.3-3c0-0.2,0.1-0.5,0.4-0.5c0,0,0.1,0,0.1,0h12c0.4,0,0.6,0.1,0.6,0.4l17.1,48.3
		c0.1,0.5,0,0.7-0.5,0.7h-9.8c-0.3,0-0.7-0.2-0.7-0.5L98.3,101z M83.6,91.5h11.9c-0.3-1-0.7-2.2-1.1-3.4c-0.4-1.3-0.8-2.6-1.3-4
		c-0.5-1.5-0.9-2.9-1.4-4.3s-0.9-2.8-1.3-4.2c-0.4-1.3-0.7-2.5-1-3.7h-0.1c-0.4,2-0.9,4-1.6,6c-0.7,2.2-1.4,4.6-2.2,6.9
		C85,87.3,84.3,89.5,83.6,91.5L83.6,91.5z"/>
</g>
</svg>
