<?xml version="1.0" encoding="utf-8"?>
<!-- Generator: Adobe Illustrator 25.0.1, SVG Export Plug-In . SVG Version: 6.00 Build 0)  -->
<svg version="1.1" id="Layer_1" xmlns="http://www.w3.org/2000/svg" xmlns:xlink="http://www.w3.org/1999/xlink" x="0px" y="0px"
	 viewBox="0 0 200 180" enable-background="new 0 0 200 180" xml:space="preserve">
<g id="mjml">
	<circle id="mjml_x5F_dot3" fill="#F0684E" cx="139.6" cy="57" r="10.4"/>
	<path id="mjml_x5F_dash3" fill="#F0684E" d="M60.4,46.6h48.2c5.7,0,10.4,4.6,10.4,10.4v0c0,5.7-4.6,10.4-10.4,10.4c0,0,0,0,0,0
		H60.4C54.6,67.4,50,62.8,50,57l0,0C50,51.3,54.7,46.6,60.4,46.6L60.4,46.6z"/>
	<circle id="mjml_x5F_dot2" fill="#F0684E" cx="60.4" cy="90.1" r="10.4"/>
	<path id="mjml_x5F_dash2" fill="#F0684E" d="M91.4,79.7h48.2c5.7,0,10.4,4.7,10.4,10.4v0c0,5.7-4.7,10.4-10.4,10.4H91.4
		c-5.7,0-10.4-4.7-10.4-10.4v0C81,84.3,85.6,79.7,91.4,79.7z"/>
	<circle id="mjml_x5F_dot1" fill="#F0684E" cx="139.6" cy="123" r="10.4"/>
	<path id="mjml_x5F_dash1" fill="#F0684E" d="M60.4,112.6h48.2c5.7,0,10.4,4.7,10.4,10.4v0c0,5.7-4.7,10.4-10.4,10.4H60.4
		c-5.7,0-10.4-4.7-10.4-10.4v0C50,117.2,54.7,112.6,60.4,112.6z"/>
</g>
</svg>
