<?xml version="1.0" encoding="utf-8"?>
<!-- Generator: Adobe Illustrator 25.0.1, SVG Export Plug-In . SVG Version: 6.00 Build 0)  -->
<svg version="1.1" id="Layer_1" xmlns="http://www.w3.org/2000/svg" xmlns:xlink="http://www.w3.org/1999/xlink" x="0px" y="0px"
	 viewBox="0 0 200 180" enable-background="new 0 0 200 180" xml:space="preserve">
<path id="mobile" fill="#444F6D" d="M124,35.1H76.4c-5.6,0-10.2,4.6-10.2,10.2v88.4c0,5.6,4.6,10.2,10.2,10.2H124
	c5.6,0,10.2-4.6,10.2-10.2V45.3C134.2,39.7,129.7,35.1,124,35.1z M100.2,137.1c-3.8,0-6.8-3-6.8-6.8c0-3.8,3-6.8,6.8-6.8
	c3.8,0,6.8,3,6.8,6.8C107,134.1,104,137.1,100.2,137.1z M124,114.2c0,1.4-1.1,2.6-2.6,2.6H79c-1.4,0-2.5-1.1-2.5-2.6V47.9
	c0-1.4,1.1-2.6,2.5-2.6h42.5c1.4,0,2.6,1.1,2.6,2.6V114.2z"/>
</svg>
