<?xml version="1.0" encoding="utf-8"?>
<!-- Generator: Adobe Illustrator 25.0.1, SVG Export Plug-In . SVG Version: 6.00 Build 0)  -->
<svg version="1.1" id="Layer_1" xmlns="http://www.w3.org/2000/svg" xmlns:xlink="http://www.w3.org/1999/xlink" x="0px" y="0px"
	 viewBox="0 0 200 180" enable-background="new 0 0 200 180" xml:space="preserve">
<path id="node" fill="#539E43" d="M100.3,145.3c-1.5,0-2.9-0.4-4.3-1.1l-13.5-8c-2-1.1-1-1.5-0.4-1.7c2.7-0.9,3.2-1.1,6.1-2.7
	c0.3-0.2,0.7-0.1,1,0.1l10.3,6.2c0.4,0.2,0.9,0.2,1.2,0l40.5-23.4c0.4-0.2,0.6-0.6,0.6-1.1V66.7c0-0.5-0.2-0.9-0.6-1.1l-40.5-23.3
	c-0.4-0.2-0.9-0.2-1.2,0L59.1,65.6c-0.4,0.2-0.6,0.7-0.6,1.1v46.8c0,0.4,0.2,0.9,0.6,1.1l11.1,6.4c6,3,9.7-0.5,9.7-4.1V70.8
	c0-0.6,0.5-1.2,1.2-1.2h5.2c0.6,0,1.2,0.5,1.2,1.2v46.2c0,8-4.4,12.7-12,12.7c-2.3,0-4.2,0-9.3-2.5L55.5,121
	c-2.6-1.5-4.3-4.4-4.3-7.4V66.8c0-3,1.6-5.9,4.3-7.4L96,36c2.5-1.4,6-1.4,8.5,0L145,59.4c2.6,1.5,4.3,4.4,4.3,7.4v46.8
	c0,3-1.6,5.9-4.3,7.4l-40.5,23.4C103.2,145,101.7,145.3,100.3,145.3L100.3,145.3z M112.7,113.2c-17.8,0-21.4-8.1-21.4-15
	c0-0.6,0.5-1.2,1.2-1.2h5.3c0.6,0,1.1,0.4,1.1,1c0.8,5.4,3.1,8,13.9,8c8.5,0,12.2-1.9,12.2-6.5c0-2.6-1-4.6-14.3-5.9
	c-11.1-1.1-18-3.6-18-12.4c0-8.2,6.9-13.1,18.5-13.1c13,0,19.4,4.5,20.2,14.2c0,0.3-0.1,0.6-0.3,0.9c-0.2,0.2-0.5,0.4-0.8,0.4H125
	c-0.5,0-1-0.4-1.1-0.9c-1.2-5.6-4.4-7.4-12.7-7.4c-9.3,0-10.4,3.2-10.4,5.7c0,2.9,1.3,3.9,13.9,5.5c12.5,1.6,18.4,4,18.4,12.7
	C132.9,108.1,125.6,113.2,112.7,113.2L112.7,113.2z"/>
</svg>
