<?xml version="1.0" encoding="utf-8"?>
<!-- Generator: Adobe Illustrator 25.0.1, SVG Export Plug-In . SVG Version: 6.00 Build 0)  -->
<svg version="1.1" id="Layer_1" xmlns="http://www.w3.org/2000/svg" xmlns:xlink="http://www.w3.org/1999/xlink" x="0px" y="0px"
	 viewBox="0 0 200 180" enable-background="new 0 0 200 180" xml:space="preserve">
<g id="photoshop">
	<path id="photoshop_x5F_bg" fill="#001E36" d="M63.6,35h72.9c11,0,20,8.9,20,20v70c0,11-8.9,20-20,20H63.6c-11,0-20-8.9-20-20V55
		C43.6,43.9,52.5,35,63.6,35z"/>
	<path id="photoshop_x5F_s" fill="#31A8FF" d="M133.8,85.3c-1.4-0.8-2.9-1.3-4.5-1.6c-1.7-0.4-3.5-0.6-5.3-0.6
		c-0.9,0-1.9,0.1-2.8,0.3c-0.6,0.1-1.1,0.5-1.5,0.9c-0.2,0.4-0.4,0.8-0.4,1.3c0,0.4,0.2,0.8,0.5,1.2c0.4,0.5,1,0.9,1.6,1.3
		c1.1,0.6,2.2,1.1,3.3,1.6c2.5,0.8,5,2,7.2,3.4c1.6,1,2.8,2.3,3.7,3.9c0.8,1.5,1.1,3.1,1.1,4.8c0,2.2-0.6,4.4-1.8,6.3
		c-1.3,1.9-3.1,3.3-5.3,4.2c-2.3,1-5.1,1.5-8.5,1.5c-2.2,0-4.3-0.2-6.4-0.6c-1.6-0.3-3.3-0.8-4.8-1.5c-0.3-0.2-0.6-0.5-0.5-0.9v-8.2
		c0-0.1,0-0.3,0.2-0.4c0.1-0.1,0.3,0,0.4,0c1.8,1.1,3.8,1.8,5.8,2.3c1.8,0.5,3.7,0.7,5.5,0.7c1.8,0,3.1-0.2,3.9-0.7
		c0.8-0.3,1.3-1.1,1.3-2c0-0.7-0.4-1.3-1.1-1.9s-2.3-1.3-4.6-2.2c-2.4-0.8-4.6-2-6.7-3.4c-1.5-1-2.7-2.4-3.6-4
		c-0.8-1.5-1.1-3.1-1.1-4.8c0-2,0.6-3.9,1.6-5.7c1.2-1.9,2.9-3.4,4.9-4.3c2.2-1.1,5-1.6,8.3-1.6c1.9,0,3.9,0.1,5.8,0.4
		c1.4,0.2,2.8,0.6,4,1.1c0.2,0,0.4,0.2,0.5,0.4c0,0.2,0.1,0.4,0.1,0.6v7.7c0,0.2-0.1,0.4-0.2,0.5C134.3,85.3,134,85.3,133.8,85.3z"
		/>
	<path id="photoshop_x5F_p" fill="#31A8FF" d="M69,112.1V63.8c0-0.3,0.1-0.5,0.5-0.5c0.8,0,1.6,0,2.6,0c1.1,0,2.3,0,3.6-0.1
		c1.3,0,2.6,0,4.1-0.1c1.5,0,2.9,0,4.3,0c3.9,0,7.1,0.5,9.7,1.5c2.4,0.8,4.5,2.1,6.3,3.9c1.5,1.5,2.7,3.3,3.4,5.4
		c0.7,2,1.1,4,1.1,6.1c0,4-0.9,7.4-2.8,10c-1.9,2.6-4.5,4.6-7.6,5.7c-3.2,1.2-6.7,1.6-10.6,1.6c-1.1,0-1.9,0-2.4,0s-1.1,0-2,0v15.1
		c0,0.3-0.2,0.6-0.5,0.7c0,0-0.1,0-0.2,0h-8.9C69.2,112.8,69,112.6,69,112.1z M79.2,72.3v15.8c0.7,0,1.3,0.1,1.8,0.1h2.5
		c1.8,0,3.7-0.3,5.4-0.8c1.5-0.4,2.8-1.3,3.9-2.5c1-1.2,1.5-2.8,1.5-4.8c0-1.5-0.3-2.9-1.1-4.2c-0.8-1.2-1.9-2.2-3.3-2.7
		c-1.7-0.7-3.6-1-5.5-0.9c-1.2,0-2.3,0-3.2,0C80.2,72.2,79.6,72.3,79.2,72.3L79.2,72.3z"/>
</g>
</svg>
