<?xml version="1.0" encoding="utf-8"?>
<!-- Generator: Adobe Illustrator 25.0.1, SVG Export Plug-In . SVG Version: 6.00 Build 0)  -->
<svg version="1.1" id="Layer_1" xmlns="http://www.w3.org/2000/svg" xmlns:xlink="http://www.w3.org/1999/xlink" x="0px" y="0px"
	 viewBox="0 0 200 180" enable-background="new 0 0 200 180" xml:space="preserve">
<g id="premiere">
	<rect id="premiere_x5F_bg" x="48.4" y="39.9" fill="#2A0034" width="103.1" height="100.3"/>
	<path id="premiere_x5F_shape" fill="#EA77FF" d="M43.8,35.2v109.7h112.5V35.2H43.8z M48.4,39.9h103.1v100.3H48.4V39.9z M73,60.9
		c0-0.3,0.1-0.6,0.5-0.6c3-0.1,7.4-0.2,12-0.2c13,0,18.7,7.1,18.7,16.3c0,11.9-8.6,17-19.2,17c-1.8,0-2.4-0.1-3.7-0.1v18
		c0,0.4-0.1,0.6-0.6,0.6h-7.2c-0.4,0-0.6-0.1-0.6-0.6C72.9,111.2,72.9,60.9,73,60.9z M81.3,85.7c1.1,0.1,1.9,0.1,3.8,0.1
		c5.5,0,10.6-1.9,10.6-9.4c0-6-3.7-9-9.9-9c-1.9,0-3.7,0.1-4.5,0.1C81.3,67.6,81.3,85.7,81.3,85.7z M111.2,81.5c0-0.6,0-1.9-0.2-4.5
		c0-0.4,0-0.5,0.4-0.6c2.9-1.2,9.6-3.2,17.2-3.2c0.4,0,0.6,0.1,0.6,0.5v6.8c0,0.4-0.1,0.5-0.5,0.5c-3-0.1-7.2,0.2-8.9,0.9v29.5
		c0,0.4-0.1,0.6-0.6,0.6h-7.4c-0.4,0-0.6-0.1-0.6-0.6V81.5L111.2,81.5z"/>
</g>
</svg>
