<?xml version="1.0" encoding="utf-8"?>
<!-- Generator: Adobe Illustrator 25.0.1, SVG Export Plug-In . SVG Version: 6.00 Build 0)  -->
<svg version="1.1" id="Layer_1" xmlns="http://www.w3.org/2000/svg" xmlns:xlink="http://www.w3.org/1999/xlink" x="0px" y="0px"
	 viewBox="0 0 200 180" enable-background="new 0 0 200 180" xml:space="preserve">
<g id="responsively">
	
		<path vector-effect="non-scaling-stroke" fill-rule="evenodd" clip-rule="evenodd" fill="#FFFFFF" stroke="#414345" stroke-width="4" stroke-linecap="square" stroke-miterlimit="3" d="
		M46,82.7V43.3c0-1,0.8-1.8,1.8-1.8h66.7c1,0,1.8,0.8,1.8,1.8v93.4c0,1-0.8,1.8-1.8,1.8H47.8c-1,0-1.8-0.8-1.8-1.8V82.7L46,82.7z"/>
	<path fill="#414345" d="M55.6,122.2L55.6,122.2L55.6,122.2c-2.1,0-3.1-0.6-3.1-1.8l0,0l0,0c0-0.9,0.6-1.4,1.7-1.4l0,0l2.3,0.2l0,0
		c1.9,0,3.2-1.1,3.9-3.2l0,0l0,0c0.5-1.8,0.8-5.1,0.8-9.7l0,0V72.7l0,0c0-4.7-0.2-7.7-0.7-9.2l0,0l0,0c-0.4-1.4-1-2.4-1.6-3l0,0l0,0
		c-0.6-0.5-1.4-0.8-2.4-0.8l0,0L54.2,60l0,0c-1.1,0-1.7-0.5-1.7-1.4l0,0l0,0c0-1.2,0.9-1.8,2.6-1.8l0,0l0,0c1.7,0,3.4,0.1,5,0.4l0,0
		l0,0c1.6,0.3,3.2,0.4,4.9,0.4l0,0l0,0c1.7,0,3.4-0.1,4.9-0.4l0,0l0,0c1.6-0.3,3.6-0.4,6.1-0.4l0,0l0,0c2.5,0,5.1,0.4,7.9,1.2l0,0
		l0,0c2.8,0.8,5.2,1.9,7.2,3.4l0,0l0,0c4,3,6.1,7,6.1,12l0,0l0,0c0,5.5-2.3,10.3-6.8,14.3l0,0l0,0c-1.5,1.3-3.1,2.4-4.9,3.2l0,0
		l15.5,22.5l0,0c1.7,2.6,3.7,4.1,5.8,4.7l0,0l0,0c0.6,0.2,1.4,0.3,2.3,0.4l0,0l0,0c1.6,0.2,2.4,0.7,2.4,1.6l0,0l0,0
		c0,0.9-0.9,1.4-2.6,1.4l0,0h-9.2l0,0c-2.2,0-4.2-1.4-6-4.3l0,0L81.7,98l0,0c-1.1-1.7-2.1-2.9-3.1-3.6l0,0l0,0
		c-1-0.7-2.5-1.1-4.6-1.1l0,0l0,0c-2.1,0-3.8,0-5.4,0.1l0,0v12.9l0,0c0,4.8,0.2,7.9,0.6,9.3l0,0l0,0c0.4,1.4,1,2.3,1.6,2.9l0,0l0,0
		c0.6,0.5,1.4,0.8,2.5,0.8l0,0l2.3-0.2l0,0c1.1,0,1.7,0.5,1.7,1.4l0,0l0,0c0,1.2-1,1.8-3.1,1.8l0,0l0,0c-1,0-2.2-0.1-3.3-0.3l0,0
		l0,0c-3.8-0.6-7.1-0.7-9.8-0.3l0,0l0,0C58.5,122,56.6,122.2,55.6,122.2z M68.7,63.1v26.1l0,0c2.1,0.2,4.1,0.3,6,0.3l0,0h3l0,0
		c3.1,0,5.7-1,7.8-3.1l0,0l0,0c2.5-2.4,3.7-5.8,3.7-10l0,0l0,0c0-5.1-1.5-9.1-4.6-12.1l0,0l0,0c-2.9-2.8-6.6-4.2-11.2-4.2l0,0l0,0
		c-1.6,0-2.8,0.2-3.6,0.7l0,0l0,0C69.1,61.3,68.7,62,68.7,63.1L68.7,63.1L68.7,63.1z"/>
	<g>
		<path fill="#FFFFFF" d="M123.1,82.7h28.8c1.2,0,2.2,1,2.2,2.2v51.4c0,1.2-1,2.2-2.2,2.2h-28.8c-1.2,0-2.2-1-2.2-2.2V84.9
			C120.9,83.7,121.9,82.7,123.1,82.7z"/>
		<path fill="none" stroke="#414345" stroke-width="4" stroke-linecap="square" stroke-miterlimit="2" d="M123.1,82.7h28.8
			c1.2,0,2.2,1,2.2,2.2v51.4c0,1.2-1,2.2-2.2,2.2h-28.8c-1.2,0-2.2-1-2.2-2.2V84.9C120.9,83.7,121.9,82.7,123.1,82.7z"/>
		<path fill="#414345" d="M122.5,138.4h29.9c0.9,0,1.6-0.7,1.6-1.6V136h-33.1v0.8C120.9,137.7,121.6,138.4,122.5,138.4z"/>
		<path fill="none" stroke="#414345" stroke-width="4" stroke-linecap="square" stroke-miterlimit="2" d="M122.5,138.4h29.9
			c0.9,0,1.6-0.7,1.6-1.6V136h-33.1v0.8C120.9,137.7,121.6,138.4,122.5,138.4z"/>
		<path fill="#414345" d="M122.5,82.7h29.9c0.9,0,1.6,0.7,1.6,1.6v0.8h-33.1v-0.8C120.9,83.5,121.6,82.7,122.5,82.7z"/>
		<path fill="none" stroke="#414345" stroke-width="4" stroke-linecap="square" stroke-miterlimit="2" d="M122.5,82.7h29.9
			c0.9,0,1.6,0.7,1.6,1.6v0.8h-33.1v-0.8C120.9,83.5,121.6,82.7,122.5,82.7z"/>
		<path fill="#414345" d="M141.1,103.6L141.1,103.6L141.1,103.6c0.9,0,1.8,0.1,2.5,0.2l0,0l-0.4,3l0,0c-0.9-0.2-1.6-0.3-2.3-0.3l0,0
			l0,0c-1.7,0-3.2,0.7-4.4,2.1l0,0l0,0c-1.2,1.4-1.8,3.1-1.8,5.2l0,0v11.4h-3.2V104h2.6l0.4,3.9h0.2l0,0c0.8-1.4,1.7-2.4,2.8-3.2
			l0,0l0,0C138.6,103.9,139.8,103.6,141.1,103.6z"/>
	</g>
</g>
</svg>
