<?xml version="1.0" encoding="utf-8"?>
<!-- Generator: Adobe Illustrator 25.0.1, SVG Export Plug-In . SVG Version: 6.00 Build 0)  -->
<svg version="1.1" id="Layer_1" xmlns="http://www.w3.org/2000/svg" xmlns:xlink="http://www.w3.org/1999/xlink" x="0px" y="0px"
	 viewBox="0 0 200 180" enable-background="new 0 0 200 180" xml:space="preserve">
<g id="safari" transform="translate(-318.88562,-180.59501)">
	<path id="path2226" opacity="0.53" enable-background="new    " d="M468.7,274.6c0,26.5-22.3,48-49.9,48c-27.5,0-49.9-21.5-49.9-48
		c0-26.5,22.3-48,49.9-48C446.4,226.6,468.7,248.1,468.7,274.6z"/>
	
		<linearGradient id="path826_1_" gradientUnits="userSpaceOnUse" x1="738.1006" y1="161.3612" x2="738.1006" y2="265.2336" gradientTransform="matrix(0.9965 0 0 -0.9965 -316.631 482.9)">
		<stop  offset="0" style="stop-color:#BDBDBD"/>
		<stop  offset="1" style="stop-color:#FFFFFF"/>
	</linearGradient>
	
		<path id="path826" fill="url(#path826_1_)" stroke="#CDCDCD" stroke-width="0.2637" stroke-linecap="round" stroke-linejoin="round" stroke-miterlimit="11.3386" d="
		M470.6,270.3c0,28.6-23.2,51.8-51.8,51.8l0,0c-28.6,0-51.8-23.2-51.8-51.8c0-28.6,23.2-51.8,51.8-51.8l0,0
		C447.5,218.6,470.6,241.8,470.6,270.3L470.6,270.3L470.6,270.3z"/>
	
		<radialGradient id="circle828_1_" cx="737.6325" cy="220.3598" r="47.8665" gradientTransform="matrix(1.0812 0 0 -1.0812 -378.4459 501.654)" gradientUnits="userSpaceOnUse">
		<stop  offset="0" style="stop-color:#06C2E7"/>
		<stop  offset="0.25" style="stop-color:#0DB8EC"/>
		<stop  offset="0.5" style="stop-color:#12AEF1"/>
		<stop  offset="0.75" style="stop-color:#1F86F9"/>
		<stop  offset="1" style="stop-color:#107DDD"/>
	</radialGradient>
	<path id="circle828" fill="url(#circle828_1_)" d="M466.6,270.3c0,26.3-21.4,47.7-47.7,47.7l0,0c-26.3,0-47.7-21.4-47.7-47.7l0,0
		c0-26.3,21.4-47.7,47.7-47.7l0,0C445.2,222.7,466.6,244,466.6,270.3L466.6,270.3z"/>
	<path id="rect830" fill="#F4F2F3" d="M418.9,225.1c-0.4,0-0.7,0.3-0.7,0.7v8c0,0.4,0.3,0.7,0.7,0.7c0.4,0,0.7-0.3,0.7-0.7v-8
		C419.6,225.4,419.3,225.1,418.9,225.1z M414.3,225.4c0,0-0.1,0-0.1,0c-0.4,0-0.7,0.4-0.6,0.8l0.4,3.4c0,0.4,0.4,0.7,0.8,0.6
		c0.4,0,0.7-0.4,0.6-0.8L415,226C414.9,225.7,414.7,225.5,414.3,225.4z M423.5,225.4c-0.3,0-0.6,0.3-0.6,0.6l-0.4,3.4
		c0,0.4,0.2,0.7,0.6,0.8c0.4,0,0.7-0.2,0.8-0.6l0.4-3.4c0-0.4-0.2-0.7-0.6-0.8C423.6,225.4,423.5,225.4,423.5,225.4L423.5,225.4z
		 M409.7,226.1c0,0-0.1,0-0.1,0c-0.4,0.1-0.6,0.4-0.5,0.8l1.7,7.8c0.1,0.4,0.4,0.6,0.8,0.5c0.4-0.1,0.6-0.4,0.5-0.8l-1.7-7.8
		C410.3,226.3,410,226.1,409.7,226.1L409.7,226.1z M428.1,226.1c-0.3,0-0.6,0.2-0.7,0.6l-1.7,7.8c-0.1,0.4,0.2,0.7,0.5,0.8
		c0.4,0.1,0.7-0.2,0.8-0.5l1.7-7.8c0.1-0.4-0.2-0.7-0.5-0.8C428.2,226.1,428.2,226.1,428.1,226.1L428.1,226.1z M405.2,227.4
		c-0.1,0-0.2,0-0.3,0c-0.4,0.1-0.6,0.5-0.4,0.9l1,3.2c0.1,0.4,0.5,0.6,0.9,0.4c0.4-0.1,0.6-0.5,0.4-0.9l-1-3.2
		C405.7,227.6,405.5,227.4,405.2,227.4L405.2,227.4z M432.6,227.4c-0.3,0-0.5,0.2-0.6,0.5l-1,3.2c-0.1,0.4,0.1,0.8,0.4,0.9
		c0.4,0.1,0.8-0.1,0.9-0.4l1-3.2c0.1-0.4-0.1-0.8-0.4-0.9C432.8,227.4,432.7,227.4,432.6,227.4L432.6,227.4z M400.8,229
		c-0.1,0-0.2,0-0.3,0.1c-0.4,0.2-0.5,0.6-0.4,0.9l3.3,7.3c0.2,0.4,0.6,0.5,0.9,0.4c0.4-0.2,0.5-0.6,0.4-0.9l-3.3-7.3
		C401.3,229.1,401.1,229,400.8,229z M437,229c-0.3,0-0.5,0.1-0.6,0.4l-3.3,7.3c-0.2,0.4,0,0.8,0.4,0.9c0.4,0.2,0.8,0,0.9-0.4
		l3.3-7.3c0.2-0.4,0-0.8-0.4-0.9C437.2,229,437.1,229,437,229z M396.7,231.1c-0.1,0-0.3,0-0.4,0.1c-0.3,0.2-0.4,0.6-0.3,0.9l1.7,2.9
		c0.2,0.3,0.6,0.4,0.9,0.3c0.3-0.2,0.4-0.6,0.3-0.9l-1.7-2.9C397.1,231.3,396.9,231.2,396.7,231.1L396.7,231.1z M441.1,231.1
		c-0.2,0-0.4,0.1-0.6,0.3l-1.7,2.9c-0.2,0.3-0.1,0.8,0.3,0.9c0.3,0.2,0.8,0.1,0.9-0.3l1.7-2.9c0.2-0.3,0.1-0.8-0.3-0.9
		C441.3,231.2,441.2,231.1,441.1,231.1L441.1,231.1z M392.7,233.6c-0.1,0-0.3,0-0.4,0.1c-0.3,0.2-0.4,0.7-0.2,1l4.7,6.5
		c0.2,0.3,0.7,0.4,1,0.2c0.3-0.2,0.4-0.7,0.2-1l-4.7-6.5C393.2,233.7,392.9,233.6,392.7,233.6L392.7,233.6z M445.1,233.7
		c-0.2,0-0.4,0.1-0.6,0.3l-4.7,6.5c-0.2,0.3-0.2,0.7,0.2,1c0.3,0.2,0.7,0.2,1-0.2l4.7-6.5c0.2-0.3,0.2-0.7-0.2-1
		C445.4,233.7,445.2,233.7,445.1,233.7L445.1,233.7z M389.2,236.6c-0.2,0-0.4,0-0.5,0.2c-0.3,0.3-0.3,0.7-0.1,1l2.3,2.5
		c0.3,0.3,0.7,0.3,1,0.1c0.3-0.3,0.3-0.7,0.1-1l-2.3-2.5C389.5,236.7,389.3,236.6,389.2,236.6L389.2,236.6z M448.6,236.6
		c-0.2,0-0.4,0.1-0.5,0.2l-2.3,2.5c-0.3,0.3-0.2,0.7,0.1,1c0.3,0.3,0.7,0.2,1-0.1l2.3-2.5c0.3-0.3,0.2-0.7-0.1-1
		C449,236.7,448.8,236.6,448.6,236.6L448.6,236.6z M385.8,239.9c-0.2,0-0.4,0.1-0.5,0.2c-0.3,0.3-0.2,0.7,0.1,1l6,5.4
		c0.3,0.3,0.7,0.2,1-0.1c0.3-0.3,0.2-0.7-0.1-1l-6-5.4C386.1,239.9,385.9,239.9,385.8,239.9L385.8,239.9z M452,239.9
		c-0.2,0-0.4,0-0.5,0.2l-6,5.4c-0.3,0.3-0.3,0.7-0.1,1c0.3,0.3,0.7,0.3,1,0.1l6-5.4c0.3-0.3,0.3-0.7,0.1-1
		C452.4,240,452.2,239.9,452,239.9z M382.9,243.5c-0.2,0-0.4,0.1-0.6,0.3c-0.2,0.3-0.2,0.7,0.2,1l2.7,2c0.3,0.2,0.7,0.2,1-0.2
		c0.2-0.3,0.2-0.7-0.2-1l-2.7-2C383.2,243.6,383.1,243.5,382.9,243.5L382.9,243.5z M454.9,243.5c-0.1,0-0.3,0-0.4,0.1l-2.7,2
		c-0.3,0.2-0.4,0.7-0.2,1c0.2,0.3,0.7,0.4,1,0.2l2.7-2c0.3-0.2,0.4-0.7,0.2-1C455.3,243.6,455.1,243.5,454.9,243.5L454.9,243.5z
		 M380.3,247.4c-0.2,0-0.4,0.1-0.6,0.3c-0.2,0.3-0.1,0.8,0.3,0.9l6.9,4c0.3,0.2,0.8,0.1,0.9-0.3c0.2-0.3,0.1-0.8-0.3-0.9l-6.9-4
		C380.6,247.4,380.4,247.4,380.3,247.4L380.3,247.4z M457.5,247.4c-0.1,0-0.3,0-0.4,0.1l-6.9,4c-0.3,0.2-0.4,0.6-0.3,0.9
		c0.2,0.3,0.6,0.4,0.9,0.3l6.9-4c0.3-0.2,0.4-0.6,0.3-0.9C457.9,247.5,457.7,247.4,457.5,247.4L457.5,247.4z M378.3,251.5
		c-0.3,0-0.5,0.1-0.6,0.4c-0.2,0.4,0,0.8,0.4,0.9l3.1,1.4c0.4,0.2,0.8,0,0.9-0.4s0-0.8-0.4-0.9l-3.1-1.4
		C378.5,251.6,378.4,251.5,378.3,251.5z M459.5,251.6c-0.1,0-0.2,0-0.3,0.1l-3.1,1.4c-0.4,0.2-0.5,0.6-0.4,0.9
		c0.2,0.4,0.6,0.5,0.9,0.4l3.1-1.4c0.4-0.2,0.5-0.6,0.4-0.9C460,251.7,459.8,251.6,459.5,251.6L459.5,251.6z M376.5,255.9
		c-0.3,0-0.5,0.2-0.6,0.5c-0.1,0.4,0.1,0.8,0.4,0.9l7.6,2.5c0.4,0.1,0.8-0.1,0.9-0.4c0.1-0.4-0.1-0.8-0.4-0.9l-7.6-2.5
		C376.7,255.9,376.6,255.9,376.5,255.9L376.5,255.9z M461.3,255.9c-0.1,0-0.2,0-0.3,0l-7.6,2.5c-0.4,0.1-0.6,0.5-0.4,0.9
		c0.1,0.4,0.5,0.6,0.9,0.4l7.6-2.5c0.4-0.1,0.6-0.5,0.4-0.9C461.8,256.1,461.6,255.9,461.3,255.9L461.3,255.9z M375.4,260.4
		c-0.3,0-0.6,0.2-0.7,0.6c-0.1,0.4,0.2,0.7,0.5,0.8l3.3,0.7c0.4,0.1,0.7-0.2,0.8-0.5c0.1-0.4-0.2-0.7-0.5-0.8l-3.3-0.7
		C375.5,260.4,375.4,260.4,375.4,260.4L375.4,260.4z M462.4,260.4c0,0-0.1,0-0.1,0l-3.3,0.7c-0.4,0.1-0.6,0.4-0.5,0.8
		c0.1,0.4,0.4,0.6,0.8,0.5l3.3-0.7c0.4-0.1,0.6-0.4,0.5-0.8C463,260.6,462.7,260.4,462.4,260.4L462.4,260.4z M374.5,265
		c-0.3,0-0.6,0.3-0.6,0.6c0,0.4,0.2,0.7,0.6,0.8l8,0.8c0.4,0,0.7-0.2,0.8-0.6c0-0.4-0.2-0.7-0.6-0.8l-8-0.8
		C374.6,265,374.6,265,374.5,265L374.5,265z M463.2,265c0,0-0.1,0-0.1,0l-8,0.8c-0.4,0-0.7,0.4-0.6,0.8c0,0.4,0.4,0.7,0.8,0.6l8-0.8
		c0.4,0,0.7-0.4,0.6-0.8C463.8,265.3,463.6,265.1,463.2,265L463.2,265z M374.4,269.7c-0.4,0-0.7,0.3-0.7,0.7c0,0.4,0.3,0.7,0.7,0.7
		h3.4c0.4,0,0.7-0.3,0.7-0.7s-0.3-0.7-0.7-0.7H374.4z M460,269.7c-0.4,0-0.7,0.3-0.7,0.7c0,0.4,0.3,0.7,0.7,0.7h3.4
		c0.4,0,0.7-0.3,0.7-0.7s-0.3-0.7-0.7-0.7H460z M382.7,273.4c0,0-0.1,0-0.1,0l-8,0.8c-0.4,0-0.7,0.4-0.6,0.8c0,0.4,0.4,0.7,0.8,0.6
		l8-0.8c0.4,0,0.7-0.4,0.6-0.8C383.2,273.7,383,273.5,382.7,273.4L382.7,273.4z M455.1,273.5c-0.3,0-0.6,0.3-0.6,0.6
		c0,0.4,0.2,0.7,0.6,0.8l8,0.8c0.4,0,0.7-0.2,0.8-0.6c0-0.4-0.2-0.7-0.6-0.8l-8-0.8C455.2,273.5,455.2,273.5,455.1,273.5
		L455.1,273.5z M378.7,278.2c0,0-0.1,0-0.1,0l-3.3,0.7c-0.4,0.1-0.6,0.4-0.5,0.8c0.1,0.4,0.4,0.6,0.8,0.5l3.3-0.7
		c0.4-0.1,0.6-0.4,0.5-0.8C379.3,278.4,379,278.2,378.7,278.2L378.7,278.2z M459.1,278.2c-0.3,0-0.6,0.2-0.7,0.6
		c-0.1,0.4,0.2,0.7,0.5,0.8l3.3,0.7c0.4,0.1,0.7-0.2,0.8-0.5c0.1-0.4-0.2-0.7-0.5-0.8l-3.3-0.7C459.2,278.2,459.1,278.2,459.1,278.2
		L459.1,278.2z M384.2,280.9c-0.1,0-0.2,0-0.3,0l-7.6,2.5c-0.4,0.1-0.6,0.5-0.4,0.9c0.1,0.4,0.5,0.6,0.9,0.4l7.6-2.5
		c0.4-0.1,0.6-0.5,0.4-0.9C384.8,281.1,384.5,281,384.2,280.9L384.2,280.9z M453.5,281c-0.3,0-0.5,0.2-0.6,0.5
		c-0.1,0.4,0.1,0.8,0.4,0.9l7.6,2.5c0.4,0.1,0.8-0.1,0.9-0.4c0.1-0.4-0.1-0.8-0.4-0.9l-7.6-2.5C453.7,281,453.6,281,453.5,281
		L453.5,281z M381.3,286.4c-0.1,0-0.2,0-0.3,0.1l-3.1,1.4c-0.4,0.2-0.5,0.6-0.4,0.9c0.2,0.4,0.6,0.5,0.9,0.4l3.1-1.4
		c0.4-0.2,0.5-0.6,0.4-0.9C381.9,286.5,381.6,286.4,381.3,286.4L381.3,286.4z M456.4,286.4c-0.3,0-0.5,0.1-0.6,0.4
		c-0.2,0.4,0,0.8,0.4,0.9l3.1,1.4c0.4,0.2,0.8,0,0.9-0.4c0.2-0.4,0-0.8-0.4-0.9l-3.1-1.4C456.6,286.4,456.5,286.4,456.4,286.4
		L456.4,286.4z M387.3,287.9c-0.1,0-0.3,0-0.4,0.1l-6.9,4c-0.3,0.2-0.4,0.6-0.3,0.9c0.2,0.3,0.6,0.4,0.9,0.3l6.9-4
		c0.3-0.2,0.4-0.6,0.3-1C387.8,288,387.6,287.9,387.3,287.9L387.3,287.9z M450.4,287.9c-0.2,0-0.4,0.1-0.6,0.3
		c-0.2,0.3-0.1,0.8,0.3,1l6.9,4c0.3,0.2,0.8,0.1,1-0.3s0.1-0.8-0.3-0.9l-6.9-4C450.7,287.9,450.6,287.9,450.4,287.9L450.4,287.9z
		 M385.6,293.8c-0.1,0-0.3,0-0.4,0.1l-2.7,2c-0.3,0.2-0.4,0.7-0.2,1c0.2,0.3,0.7,0.4,1,0.2l2.7-2c0.3-0.2,0.4-0.7,0.2-1
		C386,293.9,385.8,293.8,385.6,293.8L385.6,293.8z M452.2,293.8c-0.2,0-0.4,0.1-0.6,0.3c-0.2,0.3-0.2,0.7,0.2,1l2.7,2
		c0.3,0.2,0.7,0.2,1-0.2c0.2-0.3,0.2-0.7-0.2-1l-2.7-2C452.4,293.9,452.3,293.8,452.2,293.8L452.2,293.8z M391.8,294.1
		c-0.2,0-0.4,0-0.5,0.2l-6,5.4c-0.3,0.3-0.3,0.7-0.1,1c0.3,0.3,0.7,0.3,1,0.1l6-5.4c0.3-0.3,0.3-0.7,0.1-1
		C392.1,294.1,392,294.1,391.8,294.1z M446,294.1c-0.2,0-0.4,0.1-0.5,0.2c-0.3,0.3-0.2,0.7,0.1,1l6,5.4c0.3,0.3,0.7,0.2,1-0.1
		c0.3-0.3,0.2-0.7-0.1-1l-6-5.4C446.3,294.1,446.2,294.1,446,294.1L446,294.1z M397.4,299.2c-0.2,0-0.4,0.1-0.6,0.3l-4.7,6.5
		c-0.2,0.3-0.2,0.7,0.2,1c0.3,0.2,0.7,0.2,1-0.2l4.7-6.5c0.2-0.3,0.2-0.7-0.2-1C397.7,299.2,397.6,299.2,397.4,299.2z M440.3,299.2
		c-0.1,0-0.3,0-0.4,0.1c-0.3,0.2-0.4,0.7-0.2,1l4.7,6.5c0.2,0.3,0.7,0.4,1,0.2c0.3-0.2,0.4-0.7,0.2-1l-4.7-6.5
		C440.7,299.3,440.5,299.2,440.3,299.2L440.3,299.2z M391.3,300.2c-0.2,0-0.4,0.1-0.5,0.2l-2.3,2.5c-0.3,0.3-0.2,0.7,0.1,1
		c0.3,0.3,0.7,0.2,1-0.1l2.3-2.5c0.3-0.3,0.2-0.7-0.1-1C391.7,300.2,391.5,300.2,391.3,300.2L391.3,300.2z M446.4,300.2
		c-0.2,0-0.4,0-0.5,0.2c-0.3,0.3-0.3,0.7-0.1,1l2.3,2.5c0.3,0.3,0.7,0.3,1,0.1c0.3-0.3,0.3-0.7,0.1-1l-2.3-2.5
		C446.8,300.3,446.6,300.2,446.4,300.2L446.4,300.2z M404,303c-0.3,0-0.5,0.1-0.6,0.4l-3.3,7.3c-0.2,0.4,0,0.8,0.4,0.9
		c0.4,0.2,0.8,0,0.9-0.4l3.3-7.3c0.2-0.4,0-0.8-0.4-0.9C404.2,303,404.1,303,404,303L404,303z M433.7,303c-0.1,0-0.2,0-0.3,0.1
		c-0.4,0.2-0.5,0.6-0.4,0.9l3.3,7.3c0.2,0.4,0.6,0.5,0.9,0.4c0.4-0.2,0.5-0.6,0.4-0.9l-3.3-7.3C434.2,303.2,434,303,433.7,303
		L433.7,303z M398.3,305.2c-0.2,0-0.4,0.1-0.6,0.3l-1.7,2.9c-0.2,0.3-0.1,0.8,0.3,0.9c0.3,0.2,0.8,0.1,0.9-0.3l1.7-2.9
		c0.2-0.3,0.1-0.8-0.3-0.9C398.6,305.3,398.4,305.2,398.3,305.2L398.3,305.2z M439.5,305.2c-0.1,0-0.3,0-0.4,0.1
		c-0.3,0.2-0.4,0.6-0.3,0.9l1.7,2.9c0.2,0.3,0.6,0.4,0.9,0.3c0.3-0.2,0.4-0.6,0.3-0.9l-1.7-2.9C439.9,305.4,439.7,305.3,439.5,305.2
		L439.5,305.2z M411.3,305.4c-0.3,0-0.6,0.2-0.7,0.6l-1.7,7.8c-0.1,0.4,0.2,0.7,0.5,0.8c0.4,0.1,0.7-0.2,0.8-0.5l1.7-7.8
		c0.1-0.4-0.2-0.7-0.5-0.8C411.4,305.4,411.4,305.4,411.3,305.4L411.3,305.4z M426.4,305.4c0,0-0.1,0-0.1,0
		c-0.4,0.1-0.6,0.4-0.5,0.8l1.7,7.8c0.1,0.4,0.4,0.6,0.8,0.5c0.4-0.1,0.6-0.4,0.5-0.8l-1.7-7.8C427.1,305.6,426.8,305.4,426.4,305.4
		L426.4,305.4z M418.9,306.1c-0.4,0-0.7,0.3-0.7,0.7v8c0,0.4,0.3,0.7,0.7,0.7s0.7-0.3,0.7-0.7v-8
		C419.6,306.5,419.3,306.1,418.9,306.1z M406.1,308.7c-0.3,0-0.5,0.2-0.6,0.5l-1,3.2c-0.1,0.4,0.1,0.8,0.4,0.9
		c0.4,0.1,0.8-0.1,0.9-0.4l1-3.2c0.1-0.4-0.1-0.8-0.4-0.9C406.3,308.7,406.2,308.7,406.1,308.7L406.1,308.7z M431.6,308.7
		c-0.1,0-0.2,0-0.3,0c-0.4,0.1-0.6,0.5-0.4,0.9l1,3.2c0.1,0.4,0.5,0.6,0.9,0.4c0.4-0.1,0.6-0.5,0.4-0.9l-1-3.2
		C432.2,308.9,431.9,308.8,431.6,308.7L431.6,308.7z M414.5,310.5c-0.3,0-0.6,0.3-0.6,0.6l-0.4,3.4c0,0.4,0.2,0.7,0.6,0.8
		c0.4,0,0.7-0.2,0.8-0.6l0.4-3.4c0-0.4-0.2-0.7-0.6-0.8C414.6,310.5,414.6,310.5,414.5,310.5z M423.2,310.5c0,0-0.1,0-0.1,0
		c-0.4,0-0.7,0.4-0.6,0.8l0.4,3.4c0,0.4,0.4,0.7,0.8,0.6c0.4,0,0.7-0.4,0.6-0.8l-0.4-3.4C423.8,310.8,423.5,310.6,423.2,310.5
		L423.2,310.5z"/>
	<path id="path2150" opacity="0.409" enable-background="new    " d="M451.5,242.5l-38,22.1l-24.1,37.9l35.2-26.1L451.5,242.5z"/>
	<path id="path2096" fill="#FF5150" d="M424.3,276.1l-10.9-11.4l38.7-26L424.3,276.1z"/>
	<path id="path2099" fill="#F1F1F1" d="M424.3,276.1l-10.9-11.4l-27.8,37.4L424.3,276.1z"/>
	<path id="path2112" opacity="0.243" enable-background="new    " d="M385.7,302.1l38.7-26l27.8-37.4L385.7,302.1z"/>
</g>
</svg>
