<?xml version="1.0" encoding="utf-8"?>
<!-- Generator: Adobe Illustrator 25.0.1, SVG Export Plug-In . SVG Version: 6.00 Build 0)  -->
<svg version="1.1" id="Layer_1" xmlns="http://www.w3.org/2000/svg" xmlns:xlink="http://www.w3.org/1999/xlink" x="0px" y="0px"
	 viewBox="0 0 200 180" enable-background="new 0 0 200 180" xml:space="preserve">
<path id="sass_1_" fill="#CF649A" d="M154.3,98.7c-5.2,0-9.8,1.3-13.5,3.2c-1.4-2.8-2.8-5.2-3-7c-0.3-2.1-0.6-3.4-0.3-5.9
	c0.3-2.5,1.8-6.1,1.8-6.4c0-0.3-0.3-1.5-3.3-1.6s-5.6,0.6-5.9,1.4c-0.3,0.8-0.9,2.6-1.3,4.5c-0.5,2.7-6,12.5-9.1,17.6
	c-1-2-1.9-3.7-2.1-5.1c-0.3-2.1-0.6-3.4-0.3-5.9c0.3-2.5,1.8-6.1,1.8-6.4c0-0.3-0.3-1.5-3.3-1.6c-3,0-5.6,0.6-5.9,1.4
	c-0.3,0.8-0.6,2.7-1.3,4.5c-0.6,1.8-7.9,18-9.8,22.3c-1,2.2-1.8,3.9-2.4,5.1c-0.6,1.2,0,0.1-0.1,0.2c-0.5,1-0.8,1.5-0.8,1.5v0
	c-0.4,0.7-0.8,1.4-1.1,1.4c-0.1,0-0.4-2,0.1-4.6c1.1-5.6,3.7-14.4,3.7-14.7c0-0.1,0.5-1.7-1.7-2.5c-2.1-0.8-2.9,0.5-3.1,0.5
	c-0.2,0-0.3,0.5-0.3,0.5s2.4-9.9-4.5-9.9c-4.3,0-10.3,4.7-13.2,9c-1.9,1-5.8,3.2-10,5.5c-1.6,0.9-3.3,1.8-4.8,2.7l-0.3-0.4
	C51.8,99,36.3,92.7,37,80.7c0.2-4.3,1.8-15.8,29.7-29.7c22.9-11.4,41.2-8.3,44.3-1.3c4.5,9.9-9.8,28.4-33.5,31c-9,1-13.8-2.5-15-3.8
	c-1.3-1.4-1.4-1.4-1.9-1.2c-0.8,0.4-0.3,1.6,0,2.4c0.7,1.8,3.6,5.1,8.6,6.7c4.3,1.4,15,2.2,27.8-2.7c14.4-5.6,25.6-21,22.3-34
	C115.9,34.9,94.1,30.6,73.4,38c-12.3,4.4-25.6,11.2-35.2,20.2C26.9,68.8,25,78,25.8,81.9c2.7,13.7,21.6,22.7,29.2,29.3
	c-0.4,0.2-0.7,0.4-1.1,0.6c-3.8,1.9-18.2,9.4-21.9,17.4c-4.1,9,0.6,15.6,3.8,16.4c9.8,2.7,19.7-2.2,25.1-10.2
	c5.4-8,4.7-18.4,2.2-23.2l-0.1-0.2l3-1.8c1.9-1.1,3.8-2.2,5.5-3.1c-0.9,2.5-1.6,5.5-2,9.9c-0.4,5.1,1.7,11.8,4.5,14.4
	c1.2,1.1,2.7,1.2,3.6,1.2c3.2,0,4.7-2.7,6.3-5.8c2-3.9,3.7-8.4,3.7-8.4s-2.2,12.2,3.8,12.2c2.2,0,4.4-2.8,5.4-4.3v0
	c0,0,0.1-0.1,0.2-0.3c0.1-0.2,0.2-0.4,0.4-0.6v-0.1c0.9-1.5,2.8-5,5.8-10.7c3.8-7.4,7.4-16.7,7.4-16.7s0.4,2.3,1.4,6
	c0.6,2.2,2,4.6,3.1,7c-0.9,1.2-1.4,1.9-1.4,1.9l0,0c-0.7,0.9-1.5,1.9-2.3,2.9c-3,3.6-6.5,7.6-7,8.8c-0.6,1.4-0.4,2.4,0.6,3.2
	c0.8,0.6,2.2,0.7,3.7,0.6c2.7-0.2,4.6-0.8,5.5-1.3c1.5-0.5,3.1-1.3,4.7-2.5c2.9-2.2,4.7-5.2,4.5-9.3c-0.1-2.2-0.8-4.5-1.7-6.6
	c0.3-0.4,0.5-0.8,0.8-1.2c4.6-6.7,8.2-14.2,8.2-14.2s0.4,2.3,1.4,6c0.6,1.9,1.7,4,2.7,6c-4.3,3.5-7,7.6-8,10.3
	c-1.7,5-0.4,7.2,2.2,7.7c1.1,0.2,2.8-0.3,4-0.8c1.5-0.5,3.4-1.3,5.1-2.6c2.9-2.2,5.7-5.2,5.6-9.2c-0.1-1.9-0.6-3.7-1.3-5.5
	c3.7-1.5,8.4-2.4,14.5-1.7c13,1.5,15.6,9.6,15.1,13c-0.5,3.4-3.2,5.3-4.1,5.8c-0.9,0.6-1.2,0.8-1.1,1.2c0.1,0.6,0.5,0.6,1.3,0.5
	c1.1-0.2,6.8-2.8,7.1-9C175.4,107.4,167.8,98.6,154.3,98.7L154.3,98.7z M54.1,132.5c-4.3,4.7-10.3,6.5-12.9,5
	c-2.8-1.6-1.7-8.5,3.6-13.5c3.2-3,7.4-5.8,10.1-7.6c0.6-0.4,1.5-0.9,2.7-1.6c0.2-0.1,0.3-0.2,0.3-0.2c0.2-0.1,0.4-0.3,0.7-0.4
	C60.5,121.3,58.6,127.6,54.1,132.5L54.1,132.5z M85.5,111.2c-1.5,3.6-4.6,13-6.5,12.5c-1.6-0.4-2.6-7.5-0.3-14.5
	c1.2-3.5,3.6-7.7,5.1-9.4c2.4-2.6,4.9-3.5,5.6-2.4C90.1,98.7,86.4,108.9,85.5,111.2z M111.4,123.5c-0.6,0.3-1.2,0.6-1.5,0.4
	c-0.2-0.1,0.3-0.6,0.3-0.6s3.2-3.5,4.5-5.1c0.7-0.9,1.6-2,2.5-3.2v0.4C117.2,119.6,113.2,122.4,111.4,123.5L111.4,123.5z M131.4,119
	c-0.5-0.4-0.4-1.4,1.2-4.8c0.6-1.3,2-3.6,4.4-5.7c0.3,0.9,0.5,1.7,0.4,2.5C137.4,116.2,133.6,118.2,131.4,119z"/>
</svg>
