<?xml version="1.0" encoding="utf-8"?>
<!-- Generator: Adobe Illustrator 25.0.1, SVG Export Plug-In . SVG Version: 6.00 Build 0)  -->
<svg version="1.1" id="Layer_1" xmlns="http://www.w3.org/2000/svg" xmlns:xlink="http://www.w3.org/1999/xlink" x="0px" y="0px"
	 viewBox="0 0 200 180" enable-background="new 0 0 200 180" xml:space="preserve">
<g id="svgator">
	<path id="svgator_x5F_gear" fill="#3CFFFC" d="M86.5,75.7l-4.3-2.6c-1.2-0.7-1.9-2-1.9-3.4v-2.1c0-1.4,0.7-2.7,1.9-3.4l4.3-2.6
		c1.9-1,2.6-3.4,1.6-5.3c0-0.1-0.1-0.1-0.1-0.2l0,0l-2.2-3.5c-1-1.9-3.4-2.6-5.3-1.6c-0.1,0-0.1,0.1-0.2,0.1l0,0L76,53.5
		c-1.2,0.7-2.7,0.7-3.9,0l-2-1.2c-1.2-0.7-2-2-1.9-3.4v-5.2c0-2.1-1.7-3.9-3.8-3.9h-4.1c-2.2,0-3.9,1.8-3.9,3.9l0,0v5.5
		c0,1.4-0.7,2.7-1.9,3.4l-2,1.2c-1.2,0.7-2.7,0.7-3.9,0l-4.4-3c-1.8-1.2-4.3-0.6-5.4,1.2c0,0.1-0.1,0.1-0.1,0.2l0,0L36.6,56
		c-1.2,1.8-0.6,4.3,1.2,5.4c0.1,0,0.1,0.1,0.2,0.1l0,0l4.3,2.6c1.2,0.7,1.9,2,1.9,3.4v2.2c0,1.4-0.8,2.6-1.9,3.3l-4.3,2.6
		c-1.9,1-2.6,3.4-1.6,5.3c0,0.1,0.1,0.1,0.1,0.2l0,0l2.1,3.5c1,1.9,3.4,2.6,5.3,1.6c0.1,0,0.1-0.1,0.2-0.1l0,0l4.3-2.6
		c1.2-0.7,2.7-0.7,3.9,0l2,1.2c1.2,0.7,2,2,1.9,3.4v4.5c0,2.2,1.8,3.9,3.9,3.9l0,0h4c2.2,0,3.9-1.8,3.9-3.9l0,0l0,0v-4.6
		c0-1.4,0.7-2.7,1.9-3.4l2-1.2c1.2-0.7,2.7-0.7,3.9,0l4.3,2.7c1.8,1.2,4.3,0.6,5.4-1.2c0-0.1,0.1-0.1,0.1-0.2l0,0l2.1-3.5
		c1.2-1.8,0.7-4.3-1.2-5.4C86.7,75.7,86.7,75.7,86.5,75.7L86.5,75.7z M62.2,76.8c-4.6,0-8.4-3.7-8.4-8.3c0-4.6,3.7-8.4,8.3-8.4
		c4.6,0,8.4,3.7,8.4,8.3c0,0,0,0,0,0.1l0,0C70.5,73,66.8,76.8,62.2,76.8L62.2,76.8L62.2,76.8z"/>
	<g id="svgator_x5F_main">
		<circle id="svgator_x5F_main_x5F_center" fill="#172032" cx="108.8" cy="95.9" r="11.2"/>
		<path id="svgator_x5F_main_x5F_bottom" fill="#172032" d="M112.6,124c-6.1-2.3-12.9,0.7-15.2,6.8c0,0,0,0,0,0l0,0
			c-0.4,1.1-1.6,1.7-2.7,1.3l0,0c-4-1.5-7.8-3.7-11.1-6.5c-0.8-0.8-0.8-2.1,0-2.9l0,0c4.4-4.8,4-12.3-0.8-16.7
			c-2-1.8-4.7-2.9-7.4-3.1c-7.7,2.9-16.1,3.2-24,0.8c1.7,4.7,4.2,9,7.3,12.8c21.5,25.3,31.9,30,60.9,15.2c-0.1-0.2-0.2-0.3-0.3-0.5
			C118.3,127.9,115.8,125.3,112.6,124z"/>
		<path id="svgator_x5F_main_x5F_top" fill="#172032" d="M161.7,59c-9-11.1-58.1-9.4-66.5-7.8c1.7,3.4,2.8,7,3.4,10.7
			c2.8,5.9,9.8,8.4,15.6,5.6c1.2-0.6,2.3-1.3,3.2-2.2c1.3-1.3,2.3-2.8,2.9-4.5c0.4-1.1,1.6-1.7,2.7-1.3l0,0c4,1.5,7.8,3.7,11.1,6.5
			c0.8,0.8,0.8,2.1,0,2.9l0,0c-4.4,4.8-4.1,12.3,0.7,16.7c2.7,2.5,6.5,3.6,10.1,2.9c1.1-0.3,2.3,0.4,2.5,1.5l0,0c0.6,4,0.6,8,0,12
			c-0.2,1.1-1.2,1.9-2.4,1.7c0,0,0,0-0.1,0l0,0c-6.4-1.4-12.7,2.6-14.1,9c-0.8,3.6,0.2,7.4,2.6,10.2C154.2,106,170.4,69.3,161.7,59z
			"/>
	</g>
</g>
</svg>
