<?xml version="1.0" encoding="utf-8"?>
<!-- Generator: Adobe Illustrator 25.0.1, SVG Export Plug-In . SVG Version: 6.00 Build 0)  -->
<svg version="1.1" id="Layer_1" xmlns="http://www.w3.org/2000/svg" xmlns:xlink="http://www.w3.org/1999/xlink" x="0px" y="0px"
	 viewBox="0 0 200 180" enable-background="new 0 0 200 180" xml:space="preserve">
<g id="svgomg">
	<g>
		<defs>
			<path id="SVGID_117_" d="M161,94.3v-8.6l-7.5-1.4c-0.3-3.3-1-6.5-1.9-9.5l6.4-4.1l-3.3-8l-7.5,1.6c-1.6-2.9-3.4-5.6-5.4-8.1
				l4.4-6.3l-6.1-6.1l-6.3,4.4c-2.5-2-5.2-3.8-8.1-5.4l1.6-7.5l-8-3.3l-4.1,6.4c-3.1-0.9-6.3-1.5-9.5-1.9l-1.4-7.5h-8.6l-1.4,7.5
				c-3.3,0.3-6.5,1-9.5,1.9L80.6,32l-8,3.3l1.6,7.5c-2.9,1.6-5.6,3.4-8.1,5.4l-6.3-4.4l-6.1,6.1l4.4,6.3c-2,2.5-3.8,5.2-5.4,8.1
				l-7.5-1.6l-3.3,8l6.4,4.1c-0.9,3.1-1.5,6.3-1.9,9.5L39,85.7v8.6l7.5,1.4c0.3,3.3,1,6.5,1.9,9.5l-6.4,4.1l3.3,8l7.5-1.6
				c1.6,2.9,3.4,5.6,5.4,8.1l-4.4,6.3l6.1,6.1l6.3-4.4c2.5,2,5.2,3.8,8.1,5.4l-1.6,7.5l8,3.3l4.1-6.4c3.1,0.9,6.3,1.5,9.5,1.9
				l1.4,7.5h8.6l1.4-7.5c3.3-0.3,6.5-1,9.5-1.9l4.1,6.4l8-3.3l-1.6-7.5c2.9-1.6,5.6-3.4,8.1-5.4l6.3,4.4l6.1-6.1l-4.4-6.3
				c2-2.5,3.8-5.2,5.4-8.1l7.5,1.6l3.3-8l-6.4-4.1c0.9-3.1,1.5-6.3,1.9-9.5L161,94.3L161,94.3z"/>
		</defs>
		<clipPath id="SVGID_1_">
			<use xlink:href="#SVGID_117_"  overflow="visible"/>
		</clipPath>
		
			<linearGradient id="SVGID_2_" gradientUnits="userSpaceOnUse" x1="153.57" y1="62.3062" x2="46.43" y2="121.695" gradientTransform="matrix(1 0 0 -1 0 182)">
			<stop  offset="0" style="stop-color:#BDC6C9"/>
			<stop  offset="9.200000e-02" style="stop-color:#ABB4B7"/>
			<stop  offset="0.277" style="stop-color:#7D8588"/>
			<stop  offset="0.483" style="stop-color:#444A4D"/>
			<stop  offset="0.584" style="stop-color:#5E6669"/>
			<stop  offset="0.772" style="stop-color:#899396"/>
			<stop  offset="0.916" style="stop-color:#A3AFB2"/>
			<stop  offset="1" style="stop-color:#ADBABD"/>
		</linearGradient>
		<circle clip-path="url(#SVGID_1_)" fill="url(#SVGID_2_)" cx="100" cy="90" r="61.2"/>
	</g>
	<g>
		<defs>
			<path id="SVGID_120_" d="M161,94.3v-8.6l-7.5-1.4c-0.3-3.3-1-6.5-1.9-9.5l6.4-4.1l-3.3-8l-7.5,1.6c-1.6-2.9-3.4-5.6-5.4-8.1
				l4.4-6.3l-6.1-6.1l-6.3,4.4c-2.5-2-5.2-3.8-8.1-5.4l1.6-7.5l-8-3.3l-4.1,6.4c-3.1-0.9-6.3-1.5-9.5-1.9l-1.4-7.5h-8.6l-1.4,7.5
				c-3.3,0.3-6.5,1-9.5,1.9L80.6,32l-8,3.3l1.6,7.5c-2.9,1.6-5.6,3.4-8.1,5.4l-6.3-4.4l-6.1,6.1l4.4,6.3c-2,2.5-3.8,5.2-5.4,8.1
				l-7.5-1.6l-3.3,8l6.4,4.1c-0.9,3.1-1.5,6.3-1.9,9.5L39,85.7v8.6l7.5,1.4c0.3,3.3,1,6.5,1.9,9.5l-6.4,4.1l3.3,8l7.5-1.6
				c1.6,2.9,3.4,5.6,5.4,8.1l-4.4,6.3l6.1,6.1l6.3-4.4c2.5,2,5.2,3.8,8.1,5.4l-1.6,7.5l8,3.3l4.1-6.4c3.1,0.9,6.3,1.5,9.5,1.9
				l1.4,7.5h8.6l1.4-7.5c3.3-0.3,6.5-1,9.5-1.9l4.1,6.4l8-3.3l-1.6-7.5c2.9-1.6,5.6-3.4,8.1-5.4l6.3,4.4l6.1-6.1l-4.4-6.3
				c2-2.5,3.8-5.2,5.4-8.1l7.5,1.6l3.3-8l-6.4-4.1c0.9-3.1,1.5-6.3,1.9-9.5L161,94.3L161,94.3z"/>
		</defs>
		<clipPath id="SVGID_3_">
			<use xlink:href="#SVGID_120_"  overflow="visible"/>
		</clipPath>
		
			<radialGradient id="SVGID_4_" cx="100" cy="92.0016" r="61.2383" gradientTransform="matrix(1 0 0 -1 0 182.001)" gradientUnits="userSpaceOnUse">
			<stop  offset="0.73" style="stop-color:#004ED4;stop-opacity:0.4"/>
			<stop  offset="0.784" style="stop-color:#437CDE;stop-opacity:0.319"/>
			<stop  offset="0.842" style="stop-color:#83A8E7;stop-opacity:0.234"/>
			<stop  offset="0.894" style="stop-color:#B5CAEE;stop-opacity:0.157"/>
			<stop  offset="0.94" style="stop-color:#DAE3F4;stop-opacity:8.900000e-02"/>
			<stop  offset="0.977" style="stop-color:#F0F2F7;stop-opacity:3.500000e-02"/>
			<stop  offset="1" style="stop-color:#F8F8F8;stop-opacity:0"/>
		</radialGradient>
		<circle clip-path="url(#SVGID_3_)" fill="url(#SVGID_4_)" cx="100" cy="90" r="61.2"/>
	</g>
	<g>
		<defs>
			<path id="SVGID_123_" d="M161,94.3v-8.6l-7.5-1.4c-0.3-3.3-1-6.5-1.9-9.5l6.4-4.1l-3.3-8l-7.5,1.6c-1.6-2.9-3.4-5.6-5.4-8.1
				l4.4-6.3l-6.1-6.1l-6.3,4.4c-2.5-2-5.2-3.8-8.1-5.4l1.6-7.5l-8-3.3l-4.1,6.4c-3.1-0.9-6.3-1.5-9.5-1.9l-1.4-7.5h-8.6l-1.4,7.5
				c-3.3,0.3-6.5,1-9.5,1.9L80.6,32l-8,3.3l1.6,7.5c-2.9,1.6-5.6,3.4-8.1,5.4l-6.3-4.4l-6.1,6.1l4.4,6.3c-2,2.5-3.8,5.2-5.4,8.1
				l-7.5-1.6l-3.3,8l6.4,4.1c-0.9,3.1-1.5,6.3-1.9,9.5L39,85.7v8.6l7.5,1.4c0.3,3.3,1,6.5,1.9,9.5l-6.4,4.1l3.3,8l7.5-1.6
				c1.6,2.9,3.4,5.6,5.4,8.1l-4.4,6.3l6.1,6.1l6.3-4.4c2.5,2,5.2,3.8,8.1,5.4l-1.6,7.5l8,3.3l4.1-6.4c3.1,0.9,6.3,1.5,9.5,1.9
				l1.4,7.5h8.6l1.4-7.5c3.3-0.3,6.5-1,9.5-1.9l4.1,6.4l8-3.3l-1.6-7.5c2.9-1.6,5.6-3.4,8.1-5.4l6.3,4.4l6.1-6.1l-4.4-6.3
				c2-2.5,3.8-5.2,5.4-8.1l7.5,1.6l3.3-8l-6.4-4.1c0.9-3.1,1.5-6.3,1.9-9.5L161,94.3L161,94.3z"/>
		</defs>
		<clipPath id="SVGID_5_">
			<use xlink:href="#SVGID_123_"  overflow="visible"/>
		</clipPath>
		
			<linearGradient id="SVGID_6_" gradientUnits="userSpaceOnUse" x1="122.9464" y1="35.2064" x2="77.0536" y2="148.7948" gradientTransform="matrix(1 0 0 -1 0 182)">
			<stop  offset="0" style="stop-color:#FFFFFF;stop-opacity:0"/>
			<stop  offset="0.5" style="stop-color:#4D5057;stop-opacity:0.75"/>
			<stop  offset="1" style="stop-color:#FFFFFF;stop-opacity:0"/>
		</linearGradient>
		<circle clip-path="url(#SVGID_5_)" fill="url(#SVGID_6_)" cx="100" cy="90" r="61.2"/>
	</g>
	<g>
		<defs>
			<path id="SVGID_126_" d="M161,94.3v-8.6l-7.5-1.4c-0.3-3.3-1-6.5-1.9-9.5l6.4-4.1l-3.3-8l-7.5,1.6c-1.6-2.9-3.4-5.6-5.4-8.1
				l4.4-6.3l-6.1-6.1l-6.3,4.4c-2.5-2-5.2-3.8-8.1-5.4l1.6-7.5l-8-3.3l-4.1,6.4c-3.1-0.9-6.3-1.5-9.5-1.9l-1.4-7.5h-8.6l-1.4,7.5
				c-3.3,0.3-6.5,1-9.5,1.9L80.6,32l-8,3.3l1.6,7.5c-2.9,1.6-5.6,3.4-8.1,5.4l-6.3-4.4l-6.1,6.1l4.4,6.3c-2,2.5-3.8,5.2-5.4,8.1
				l-7.5-1.6l-3.3,8l6.4,4.1c-0.9,3.1-1.5,6.3-1.9,9.5L39,85.7v8.6l7.5,1.4c0.3,3.3,1,6.5,1.9,9.5l-6.4,4.1l3.3,8l7.5-1.6
				c1.6,2.9,3.4,5.6,5.4,8.1l-4.4,6.3l6.1,6.1l6.3-4.4c2.5,2,5.2,3.8,8.1,5.4l-1.6,7.5l8,3.3l4.1-6.4c3.1,0.9,6.3,1.5,9.5,1.9
				l1.4,7.5h8.6l1.4-7.5c3.3-0.3,6.5-1,9.5-1.9l4.1,6.4l8-3.3l-1.6-7.5c2.9-1.6,5.6-3.4,8.1-5.4l6.3,4.4l6.1-6.1l-4.4-6.3
				c2-2.5,3.8-5.2,5.4-8.1l7.5,1.6l3.3-8l-6.4-4.1c0.9-3.1,1.5-6.3,1.9-9.5L161,94.3L161,94.3z"/>
		</defs>
		<clipPath id="SVGID_7_">
			<use xlink:href="#SVGID_126_"  overflow="visible"/>
		</clipPath>
		
			<radialGradient id="SVGID_8_" cx="100" cy="92.0016" r="61.2383" gradientTransform="matrix(1 0 0 -1 0 182.001)" gradientUnits="userSpaceOnUse">
			<stop  offset="0.8" style="stop-color:#6B6B6B;stop-opacity:0"/>
			<stop  offset="0.826" style="stop-color:#848484;stop-opacity:2.000000e-02"/>
			<stop  offset="0.883" style="stop-color:#B5B5B5;stop-opacity:6.600000e-02"/>
			<stop  offset="0.933" style="stop-color:#DADADA;stop-opacity:0.107"/>
			<stop  offset="0.974" style="stop-color:#F0F0F0;stop-opacity:0.139"/>
			<stop  offset="1" style="stop-color:#F8F8F8;stop-opacity:0.16"/>
		</radialGradient>
		<circle clip-path="url(#SVGID_7_)" fill="url(#SVGID_8_)" cx="100" cy="90" r="61.2"/>
	</g>
	<g>
		<defs>
			<path id="SVGID_129_" d="M161,94.3v-8.6l-7.5-1.4c-0.3-3.3-1-6.5-1.9-9.5l6.4-4.1l-3.3-8l-7.5,1.6c-1.6-2.9-3.4-5.6-5.4-8.1
				l4.4-6.3l-6.1-6.1l-6.3,4.4c-2.5-2-5.2-3.8-8.1-5.4l1.6-7.5l-8-3.3l-4.1,6.4c-3.1-0.9-6.3-1.5-9.5-1.9l-1.4-7.5h-8.6l-1.4,7.5
				c-3.3,0.3-6.5,1-9.5,1.9L80.6,32l-8,3.3l1.6,7.5c-2.9,1.6-5.6,3.4-8.1,5.4l-6.3-4.4l-6.1,6.1l4.4,6.3c-2,2.5-3.8,5.2-5.4,8.1
				l-7.5-1.6l-3.3,8l6.4,4.1c-0.9,3.1-1.5,6.3-1.9,9.5L39,85.7v8.6l7.5,1.4c0.3,3.3,1,6.5,1.9,9.5l-6.4,4.1l3.3,8l7.5-1.6
				c1.6,2.9,3.4,5.6,5.4,8.1l-4.4,6.3l6.1,6.1l6.3-4.4c2.5,2,5.2,3.8,8.1,5.4l-1.6,7.5l8,3.3l4.1-6.4c3.1,0.9,6.3,1.5,9.5,1.9
				l1.4,7.5h8.6l1.4-7.5c3.3-0.3,6.5-1,9.5-1.9l4.1,6.4l8-3.3l-1.6-7.5c2.9-1.6,5.6-3.4,8.1-5.4l6.3,4.4l6.1-6.1l-4.4-6.3
				c2-2.5,3.8-5.2,5.4-8.1l7.5,1.6l3.3-8l-6.4-4.1c0.9-3.1,1.5-6.3,1.9-9.5L161,94.3L161,94.3z"/>
		</defs>
		<clipPath id="SVGID_9_">
			<use xlink:href="#SVGID_129_"  overflow="visible"/>
		</clipPath>
		
			<linearGradient id="SVGID_10_" gradientUnits="userSpaceOnUse" x1="56.698" y1="48.6986" x2="143.302" y2="135.3026" gradientTransform="matrix(1 0 0 -1 0 182)">
			<stop  offset="0" style="stop-color:#FFFFFF;stop-opacity:0"/>
			<stop  offset="0.5" style="stop-color:#828282;stop-opacity:0.6"/>
			<stop  offset="1" style="stop-color:#FFFFFF;stop-opacity:0"/>
		</linearGradient>
		<circle clip-path="url(#SVGID_9_)" fill="url(#SVGID_10_)" cx="100" cy="90" r="61.2"/>
	</g>
	<g>
		<defs>
			<path id="SVGID_132_" d="M161,94.3v-8.6l-7.5-1.4c-0.3-3.3-1-6.5-1.9-9.5l6.4-4.1l-3.3-8l-7.5,1.6c-1.6-2.9-3.4-5.6-5.4-8.1
				l4.4-6.3l-6.1-6.1l-6.3,4.4c-2.5-2-5.2-3.8-8.1-5.4l1.6-7.5l-8-3.3l-4.1,6.4c-3.1-0.9-6.3-1.5-9.5-1.9l-1.4-7.5h-8.6l-1.4,7.5
				c-3.3,0.3-6.5,1-9.5,1.9L80.6,32l-8,3.3l1.6,7.5c-2.9,1.6-5.6,3.4-8.1,5.4l-6.3-4.4l-6.1,6.1l4.4,6.3c-2,2.5-3.8,5.2-5.4,8.1
				l-7.5-1.6l-3.3,8l6.4,4.1c-0.9,3.1-1.5,6.3-1.9,9.5L39,85.7v8.6l7.5,1.4c0.3,3.3,1,6.5,1.9,9.5l-6.4,4.1l3.3,8l7.5-1.6
				c1.6,2.9,3.4,5.6,5.4,8.1l-4.4,6.3l6.1,6.1l6.3-4.4c2.5,2,5.2,3.8,8.1,5.4l-1.6,7.5l8,3.3l4.1-6.4c3.1,0.9,6.3,1.5,9.5,1.9
				l1.4,7.5h8.6l1.4-7.5c3.3-0.3,6.5-1,9.5-1.9l4.1,6.4l8-3.3l-1.6-7.5c2.9-1.6,5.6-3.4,8.1-5.4l6.3,4.4l6.1-6.1l-4.4-6.3
				c2-2.5,3.8-5.2,5.4-8.1l7.5,1.6l3.3-8l-6.4-4.1c0.9-3.1,1.5-6.3,1.9-9.5L161,94.3L161,94.3z"/>
		</defs>
		<clipPath id="SVGID_11_">
			<use xlink:href="#SVGID_132_"  overflow="visible"/>
		</clipPath>
		
			<linearGradient id="SVGID_12_" gradientUnits="userSpaceOnUse" x1="49.8323" y1="56.8727" x2="150.1677" y2="127.1285" gradientTransform="matrix(1 0 0 -1 0 182)">
			<stop  offset="0.2" style="stop-color:#FFFFFF;stop-opacity:0"/>
			<stop  offset="0.5" style="stop-color:#FFFFFF;stop-opacity:0.36"/>
			<stop  offset="0.8" style="stop-color:#FFFFFF;stop-opacity:0"/>
		</linearGradient>
		<circle clip-path="url(#SVGID_11_)" fill="url(#SVGID_12_)" cx="100" cy="90" r="61.2"/>
	</g>
	<g>
		<defs>
			
				<ellipse id="SVGID_135_" transform="matrix(0.9868 -0.162 0.162 0.9868 -13.2605 17.3912)" cx="100" cy="90" rx="48.8" ry="48.8"/>
		</defs>
		<clipPath id="SVGID_13_">
			<use xlink:href="#SVGID_135_"  overflow="visible"/>
		</clipPath>
		
			<linearGradient id="SVGID_14_" gradientUnits="userSpaceOnUse" x1="468.1199" y1="57.543" x2="379.879" y2="106.4559" gradientTransform="matrix(0 -1 -1 0 182 514)">
			<stop  offset="0" style="stop-color:#BDC6C9"/>
			<stop  offset="9.200000e-02" style="stop-color:#ABB4B7"/>
			<stop  offset="0.277" style="stop-color:#7D8588"/>
			<stop  offset="0.483" style="stop-color:#444A4D"/>
			<stop  offset="0.584" style="stop-color:#5E6669"/>
			<stop  offset="0.772" style="stop-color:#899396"/>
			<stop  offset="0.916" style="stop-color:#A3AFB2"/>
			<stop  offset="1" style="stop-color:#ADBABD"/>
		</linearGradient>
		<path clip-path="url(#SVGID_13_)" fill="url(#SVGID_14_)" d="M100,39.6c27.9,0,50.4,22.6,50.4,50.4s-22.6,50.4-50.4,50.4
			c-27.9,0-50.4-22.6-50.4-50.4S72.1,39.6,100,39.6z"/>
	</g>
	<g>
		<defs>
			
				<ellipse id="SVGID_138_" transform="matrix(0.9868 -0.162 0.162 0.9868 -13.2605 17.3912)" cx="100" cy="90" rx="48.8" ry="48.8"/>
		</defs>
		<clipPath id="SVGID_15_">
			<use xlink:href="#SVGID_138_"  overflow="visible"/>
		</clipPath>
		
			<radialGradient id="SVGID_16_" cx="429.0127" cy="86.6588" r="51.9433" gradientTransform="matrix(0 -0.971 -0.971 0 184.147 506.572)" gradientUnits="userSpaceOnUse">
			<stop  offset="0.86" style="stop-color:#0058D4;stop-opacity:0.6"/>
			<stop  offset="1" style="stop-color:#F8F8F8;stop-opacity:0"/>
		</radialGradient>
		<path clip-path="url(#SVGID_15_)" fill="url(#SVGID_16_)" d="M100,39.6c27.9,0,50.4,22.6,50.4,50.4s-22.6,50.4-50.4,50.4
			c-27.9,0-50.4-22.6-50.4-50.4S72.1,39.6,100,39.6z"/>
	</g>
	<g>
		<defs>
			
				<ellipse id="SVGID_141_" transform="matrix(0.9868 -0.162 0.162 0.9868 -13.2605 17.3912)" cx="100" cy="90" rx="48.8" ry="48.8"/>
		</defs>
		<clipPath id="SVGID_17_">
			<use xlink:href="#SVGID_141_"  overflow="visible"/>
		</clipPath>
		
			<linearGradient id="SVGID_18_" gradientUnits="userSpaceOnUse" x1="442.8989" y1="35.2224" x2="405.101" y2="128.7749" gradientTransform="matrix(0 -1 -1 0 182 514)">
			<stop  offset="0" style="stop-color:#FFFFFF;stop-opacity:0"/>
			<stop  offset="0.5" style="stop-color:#4D5057;stop-opacity:0.75"/>
			<stop  offset="1" style="stop-color:#FFFFFF;stop-opacity:0"/>
		</linearGradient>
		<path clip-path="url(#SVGID_17_)" fill="url(#SVGID_18_)" d="M100,39.6c27.9,0,50.4,22.6,50.4,50.4s-22.6,50.4-50.4,50.4
			c-27.9,0-50.4-22.6-50.4-50.4S72.1,39.6,100,39.6z"/>
	</g>
	<g>
		<defs>
			
				<ellipse id="SVGID_144_" transform="matrix(0.9868 -0.162 0.162 0.9868 -13.2605 17.3912)" cx="100" cy="90" rx="48.8" ry="48.8"/>
		</defs>
		<clipPath id="SVGID_19_">
			<use xlink:href="#SVGID_144_"  overflow="visible"/>
		</clipPath>
		
			<linearGradient id="SVGID_20_" gradientUnits="userSpaceOnUse" x1="388.3364" y1="46.3358" x2="459.6635" y2="117.6628" gradientTransform="matrix(0 -1 -1 0 182 514)">
			<stop  offset="0" style="stop-color:#FFFFFF;stop-opacity:0"/>
			<stop  offset="0.5" style="stop-color:#828282;stop-opacity:0.6"/>
			<stop  offset="1" style="stop-color:#FFFFFF;stop-opacity:0"/>
		</linearGradient>
		<path clip-path="url(#SVGID_19_)" fill="url(#SVGID_20_)" d="M100,39.6c27.9,0,50.4,22.6,50.4,50.4s-22.6,50.4-50.4,50.4
			c-27.9,0-50.4-22.6-50.4-50.4S72.1,39.6,100,39.6z"/>
	</g>
	<g>
		<defs>
			
				<ellipse id="SVGID_147_" transform="matrix(0.9868 -0.162 0.162 0.9868 -13.2605 17.3912)" cx="100" cy="90" rx="48.8" ry="48.8"/>
		</defs>
		<clipPath id="SVGID_21_">
			<use xlink:href="#SVGID_147_"  overflow="visible"/>
		</clipPath>
		
			<linearGradient id="SVGID_22_" gradientUnits="userSpaceOnUse" x1="382.6818" y1="53.0677" x2="465.3183" y2="110.9303" gradientTransform="matrix(0 -1 -1 0 182 514)">
			<stop  offset="0.2" style="stop-color:#FFFFFF;stop-opacity:0"/>
			<stop  offset="0.5" style="stop-color:#FFFFFF;stop-opacity:0.36"/>
			<stop  offset="0.8" style="stop-color:#FFFFFF;stop-opacity:0"/>
		</linearGradient>
		<path clip-path="url(#SVGID_21_)" fill="url(#SVGID_22_)" d="M100,39.6c27.9,0,50.4,22.6,50.4,50.4s-22.6,50.4-50.4,50.4
			c-27.9,0-50.4-22.6-50.4-50.4S72.1,39.6,100,39.6z"/>
	</g>
	<g>
		<defs>
			<path id="SVGID_150_" d="M145.3,90c0-25-20.3-45.3-45.3-45.3S54.7,65,54.7,90c0,25,20.3,45.3,45.3,45.3S145.3,115,145.3,90
				L145.3,90z"/>
		</defs>
		<clipPath id="SVGID_23_">
			<use xlink:href="#SVGID_150_"  overflow="visible"/>
		</clipPath>
		
			<linearGradient id="SVGID_24_" gradientUnits="userSpaceOnUse" x1="140.8913" y1="69.3319" x2="59.1079" y2="114.6654" gradientTransform="matrix(1 0 0 -1 0 182)">
			<stop  offset="0" style="stop-color:#BDC6C9"/>
			<stop  offset="9.200000e-02" style="stop-color:#ABB4B7"/>
			<stop  offset="0.277" style="stop-color:#7D8588"/>
			<stop  offset="0.483" style="stop-color:#444A4D"/>
			<stop  offset="0.584" style="stop-color:#5E6669"/>
			<stop  offset="0.772" style="stop-color:#899396"/>
			<stop  offset="0.916" style="stop-color:#A3AFB2"/>
			<stop  offset="1" style="stop-color:#ADBABD"/>
		</linearGradient>
		<path clip-path="url(#SVGID_23_)" fill="url(#SVGID_24_)" d="M146.7,90c0,25.8-20.9,46.7-46.7,46.7c-25.8,0-46.7-20.9-46.7-46.7
			S74.2,43.3,100,43.3C125.8,43.3,146.7,64.2,146.7,90L146.7,90z"/>
	</g>
	<g>
		<defs>
			<path id="SVGID_153_" d="M145.3,90c0-25-20.3-45.3-45.3-45.3S54.7,65,54.7,90c0,25,20.3,45.3,45.3,45.3S145.3,115,145.3,90
				L145.3,90z"/>
		</defs>
		<clipPath id="SVGID_25_">
			<use xlink:href="#SVGID_153_"  overflow="visible"/>
		</clipPath>
		
			<radialGradient id="SVGID_26_" cx="96.5043" cy="95.7934" r="45.6264" gradientTransform="matrix(0.971 0 0 -0.971 7.426 184.149)" gradientUnits="userSpaceOnUse">
			<stop  offset="0.88" style="stop-color:#0037D4"/>
			<stop  offset="1" style="stop-color:#F8F8F8;stop-opacity:0"/>
		</radialGradient>
		<path clip-path="url(#SVGID_25_)" fill="url(#SVGID_26_)" d="M145.4,91.1c0,24.5-19.8,44.3-44.3,44.3c-24.5,0-44.3-19.8-44.3-44.3
			c0-24.5,19.8-44.3,44.3-44.3S145.4,66.7,145.4,91.1z"/>
	</g>
	<g>
		<defs>
			<path id="SVGID_156_" d="M145.3,90c0-25-20.3-45.3-45.3-45.3S54.7,65,54.7,90c0,25,20.3,45.3,45.3,45.3S145.3,115,145.3,90
				L145.3,90z"/>
		</defs>
		<clipPath id="SVGID_27_">
			<use xlink:href="#SVGID_156_"  overflow="visible"/>
		</clipPath>
		
			<radialGradient id="SVGID_28_" cx="95.593" cy="96.6836" r="47.0195" gradientTransform="matrix(0.973 0 0 -0.973 6.988 184.073)" gradientUnits="userSpaceOnUse">
			<stop  offset="0.88" style="stop-color:#0066D4"/>
			<stop  offset="1" style="stop-color:#F8F8F8;stop-opacity:0"/>
		</radialGradient>
		<path clip-path="url(#SVGID_27_)" fill="url(#SVGID_28_)" d="M145.8,90c0,25.3-20.5,45.8-45.8,45.8c-25.3,0-45.7-20.5-45.7-45.8
			c0-25.3,20.5-45.7,45.7-45.7C125.3,44.2,145.8,64.7,145.8,90z"/>
	</g>
	<g>
		<defs>
			<path id="SVGID_159_" d="M145.3,90c0-25-20.3-45.3-45.3-45.3S54.7,65,54.7,90c0,25,20.3,45.3,45.3,45.3S145.3,115,145.3,90
				L145.3,90z"/>
		</defs>
		<clipPath id="SVGID_29_">
			<use xlink:href="#SVGID_159_"  overflow="visible"/>
		</clipPath>
		
			<linearGradient id="SVGID_30_" gradientUnits="userSpaceOnUse" x1="117.5167" y1="48.6458" x2="82.4852" y2="135.3512" gradientTransform="matrix(1 0 0 -1 0 182)">
			<stop  offset="0" style="stop-color:#FFFFFF;stop-opacity:0"/>
			<stop  offset="0.5" style="stop-color:#4D5057;stop-opacity:0.75"/>
			<stop  offset="1" style="stop-color:#FFFFFF;stop-opacity:0"/>
		</linearGradient>
		<path clip-path="url(#SVGID_29_)" fill="url(#SVGID_30_)" d="M146.7,90c0,25.8-20.9,46.7-46.7,46.7c-25.8,0-46.7-20.9-46.7-46.7
			S74.2,43.3,100,43.3C125.8,43.3,146.7,64.2,146.7,90L146.7,90z"/>
	</g>
	<g>
		<defs>
			<path id="SVGID_162_" d="M145.3,90c0-25-20.3-45.3-45.3-45.3S54.7,65,54.7,90c0,25,20.3,45.3,45.3,45.3S145.3,115,145.3,90
				L145.3,90z"/>
		</defs>
		<clipPath id="SVGID_31_">
			<use xlink:href="#SVGID_162_"  overflow="visible"/>
		</clipPath>
		
			<linearGradient id="SVGID_32_" gradientUnits="userSpaceOnUse" x1="66.9467" y1="58.9457" x2="133.0536" y2="125.0526" gradientTransform="matrix(1 0 0 -1 0 182)">
			<stop  offset="0" style="stop-color:#FFFFFF;stop-opacity:0"/>
			<stop  offset="0.5" style="stop-color:#828282;stop-opacity:0.6"/>
			<stop  offset="1" style="stop-color:#FFFFFF;stop-opacity:0"/>
		</linearGradient>
		<path clip-path="url(#SVGID_31_)" fill="url(#SVGID_32_)" d="M146.7,90c0,25.8-20.9,46.7-46.7,46.7c-25.8,0-46.7-20.9-46.7-46.7
			S74.2,43.3,100,43.3C125.8,43.3,146.7,64.2,146.7,90L146.7,90z"/>
	</g>
	<g>
		<defs>
			<path id="SVGID_165_" d="M145.3,90c0-25-20.3-45.3-45.3-45.3S54.7,65,54.7,90c0,25,20.3,45.3,45.3,45.3S145.3,115,145.3,90
				L145.3,90z"/>
		</defs>
		<clipPath id="SVGID_33_">
			<use xlink:href="#SVGID_165_"  overflow="visible"/>
		</clipPath>
		
			<linearGradient id="SVGID_34_" gradientUnits="userSpaceOnUse" x1="61.7061" y1="65.185" x2="138.2951" y2="118.8131" gradientTransform="matrix(1 0 0 -1 0 182)">
			<stop  offset="0.2" style="stop-color:#FFFFFF;stop-opacity:0"/>
			<stop  offset="0.5" style="stop-color:#FFFFFF;stop-opacity:0.36"/>
			<stop  offset="0.8" style="stop-color:#FFFFFF;stop-opacity:0"/>
		</linearGradient>
		<path clip-path="url(#SVGID_33_)" fill="url(#SVGID_34_)" d="M146.7,90c0,25.8-20.9,46.7-46.7,46.7c-25.8,0-46.7-20.9-46.7-46.7
			S74.2,43.3,100,43.3C125.8,43.3,146.7,64.2,146.7,90L146.7,90z"/>
	</g>
	<g>
		<defs>
			
				<ellipse id="SVGID_168_" transform="matrix(0.9868 -0.162 0.162 0.9868 -13.2605 17.3913)" cx="100" cy="90" rx="41.7" ry="41.7"/>
		</defs>
		<clipPath id="SVGID_35_">
			<use xlink:href="#SVGID_168_"  overflow="visible"/>
		</clipPath>
		
			<linearGradient id="SVGID_36_" gradientUnits="userSpaceOnUse" x1="70.4305" y1="121.5702" x2="129.5696" y2="62.4311" gradientTransform="matrix(1 0 0 -1 0 182)">
			<stop  offset="0" style="stop-color:#14B9FF"/>
			<stop  offset="1" style="stop-color:#48007F"/>
		</linearGradient>
		<path clip-path="url(#SVGID_35_)" fill="url(#SVGID_36_)" d="M100,48.2c-23.1,0-41.8,18.7-41.8,41.8c0,23.1,18.7,41.8,41.8,41.8
			c23.1,0,41.8-18.7,41.8-41.8C141.8,66.9,123.1,48.2,100,48.2z"/>
	</g>
	<g>
		<defs>
			
				<ellipse id="SVGID_171_" transform="matrix(0.9868 -0.162 0.162 0.9868 -13.2605 17.3913)" cx="100" cy="90" rx="41.7" ry="41.7"/>
		</defs>
		<clipPath id="SVGID_37_">
			<use xlink:href="#SVGID_171_"  overflow="visible"/>
		</clipPath>
		
			<radialGradient id="SVGID_38_" cx="100" cy="92.0016" r="41.8182" gradientTransform="matrix(1 0 0 -1 0 182.001)" gradientUnits="userSpaceOnUse">
			<stop  offset="0.33" style="stop-color:#006CC2;stop-opacity:0"/>
			<stop  offset="0.628" style="stop-color:#016EC3;stop-opacity:0.232"/>
			<stop  offset="0.736" style="stop-color:#0575C7;stop-opacity:0.315"/>
			<stop  offset="0.813" style="stop-color:#0D80CE;stop-opacity:0.374"/>
			<stop  offset="0.874" style="stop-color:#1791D8;stop-opacity:0.422"/>
			<stop  offset="0.927" style="stop-color:#25A7E4;stop-opacity:0.464"/>
			<stop  offset="0.974" style="stop-color:#36C2F4;stop-opacity:0.499"/>
			<stop  offset="1" style="stop-color:#42D5FF;stop-opacity:0.52"/>
		</radialGradient>
		<path clip-path="url(#SVGID_37_)" fill="url(#SVGID_38_)" d="M100,48.2c-23.1,0-41.8,18.7-41.8,41.8c0,23.1,18.7,41.8,41.8,41.8
			c23.1,0,41.8-18.7,41.8-41.8C141.8,66.9,123.1,48.2,100,48.2z"/>
	</g>
	<g>
		<defs>
			
				<ellipse id="SVGID_174_" transform="matrix(0.9868 -0.162 0.162 0.9868 -13.2605 17.3913)" cx="100" cy="90" rx="41.7" ry="41.7"/>
		</defs>
		<clipPath id="SVGID_39_">
			<use xlink:href="#SVGID_174_"  overflow="visible"/>
		</clipPath>
		
			<radialGradient id="SVGID_40_" cx="87.1328" cy="107.0132" r="30.2617" gradientTransform="matrix(1 0 0 -1 0 182.001)" gradientUnits="userSpaceOnUse">
			<stop  offset="0" style="stop-color:#E1FFFF;stop-opacity:0.5"/>
			<stop  offset="9.300000e-02" style="stop-color:#D9F9FD;stop-opacity:0.453"/>
			<stop  offset="0.239" style="stop-color:#C3E7F6;stop-opacity:0.38"/>
			<stop  offset="0.42" style="stop-color:#9ECAEC;stop-opacity:0.29"/>
			<stop  offset="0.628" style="stop-color:#6CA2DE;stop-opacity:0.186"/>
			<stop  offset="0.855" style="stop-color:#2C6FCC;stop-opacity:7.200000e-02"/>
			<stop  offset="1" style="stop-color:#004CBF;stop-opacity:0"/>
		</radialGradient>
		<path clip-path="url(#SVGID_39_)" fill="url(#SVGID_40_)" d="M87.1,44.7c-16.7,0-30.3,13.6-30.3,30.3c0,16.7,13.6,30.3,30.3,30.3
			c16.7,0,30.3-13.6,30.3-30.3C117.4,58.3,103.8,44.7,87.1,44.7z"/>
	</g>
	<g>
		<defs>
			
				<ellipse id="SVGID_177_" transform="matrix(0.9868 -0.162 0.162 0.9868 -13.2605 17.3913)" cx="100" cy="90" rx="41.7" ry="41.7"/>
		</defs>
		<clipPath id="SVGID_41_">
			<use xlink:href="#SVGID_177_"  overflow="visible"/>
		</clipPath>
		<path opacity="0.31" clip-path="url(#SVGID_41_)" fill="#191919" enable-background="new    " d="M100,45c-24.9,0-45,20.2-45,45
			s20.2,45,45,45s45-20.2,45-45S124.9,45,100,45z M100,131.1c-22.7,0-41.1-18.4-41.1-41.1S77.3,48.9,100,48.9s41.1,18.4,41.1,41.1
			S122.7,131.1,100,131.1L100,131.1z"/>
	</g>
	<line fill="none" stroke="#E4EAF4" stroke-width="3" stroke-miterlimit="10" x1="94.1" y1="86.7" x2="109.7" y2="73.7"/>
	<line fill="none" stroke="#E4EAF4" stroke-width="3" stroke-miterlimit="10" x1="109.7" y1="73.7" x2="97.6" y2="61.5"/>
	<line fill="none" stroke="#E4EAF4" stroke-width="3" stroke-miterlimit="10" x1="109.7" y1="73.7" x2="114.3" y2="62"/>
	<line fill="none" stroke="#E4EAF4" stroke-width="3" stroke-miterlimit="10" x1="94.1" y1="86.7" x2="73.8" y2="81"/>
	<line fill="none" stroke="#E4EAF4" stroke-width="3" stroke-miterlimit="10" x1="94.1" y1="86.7" x2="82" y2="103.5"/>
	<line fill="none" stroke="#E4EAF4" stroke-width="3" stroke-miterlimit="10" x1="94.1" y1="86.7" x2="107.6" y2="101.8"/>
	<line fill="none" stroke="#E4EAF4" stroke-width="3" stroke-miterlimit="10" x1="107.6" y1="101.8" x2="124.8" y2="107.6"/>
	<line fill="none" stroke="#E4EAF4" stroke-width="3" stroke-miterlimit="10" x1="107.6" y1="101.8" x2="99.4" y2="117.1"/>
	<g>
		<defs>
			<circle id="SVGID_179_" cx="94.1" cy="86.7" r="8.2"/>
		</defs>
		<clipPath id="SVGID_42_">
			<use xlink:href="#SVGID_179_"  overflow="visible"/>
		</clipPath>
		
			<radialGradient id="SVGID_43_" cx="91.2875" cy="98.1156" r="12.271" gradientTransform="matrix(1 0 0 -1 0 182)" gradientUnits="userSpaceOnUse">
			<stop  offset="0" style="stop-color:#FFFFFF"/>
			<stop  offset="1" style="stop-color:#B8C4D1"/>
		</radialGradient>
		<circle clip-path="url(#SVGID_42_)" fill="url(#SVGID_43_)" cx="91.3" cy="83.9" r="12.3"/>
	</g>
	<g>
		<defs>
			<circle id="SVGID_182_" cx="94.1" cy="86.7" r="8.2"/>
		</defs>
		<clipPath id="SVGID_44_">
			<use xlink:href="#SVGID_182_"  overflow="visible"/>
		</clipPath>
		
			<radialGradient id="SVGID_45_" cx="100.4892" cy="89.542" r="8.2565" gradientTransform="matrix(1.063 0 0 -1.063 -13.031 181.569)" gradientUnits="userSpaceOnUse">
			<stop  offset="0" style="stop-color:#FFFFFF;stop-opacity:0"/>
			<stop  offset="0.265" style="stop-color:#FCFDFE;stop-opacity:0.212"/>
			<stop  offset="0.449" style="stop-color:#F3F6FD;stop-opacity:0.359"/>
			<stop  offset="0.609" style="stop-color:#E4EBF9;stop-opacity:0.487"/>
			<stop  offset="0.755" style="stop-color:#CEDBF5;stop-opacity:0.604"/>
			<stop  offset="0.89" style="stop-color:#B2C7EF;stop-opacity:0.712"/>
			<stop  offset="1" style="stop-color:#95B2E9;stop-opacity:0.8"/>
		</radialGradient>
		<circle clip-path="url(#SVGID_44_)" fill="url(#SVGID_45_)" cx="93.8" cy="86.4" r="8.8"/>
	</g>
	<g>
		<defs>
			<circle id="SVGID_185_" cx="82" cy="103.5" r="5.7"/>
		</defs>
		<clipPath id="SVGID_46_">
			<use xlink:href="#SVGID_185_"  overflow="visible"/>
		</clipPath>
		
			<radialGradient id="SVGID_47_" cx="80.0523" cy="80.5104" r="8.5896" gradientTransform="matrix(1 0 0 -1 0 182)" gradientUnits="userSpaceOnUse">
			<stop  offset="0" style="stop-color:#FFFFFF"/>
			<stop  offset="1" style="stop-color:#B8C4D1"/>
		</radialGradient>
		<circle clip-path="url(#SVGID_46_)" fill="url(#SVGID_47_)" cx="80.1" cy="101.5" r="8.6"/>
	</g>
	<g>
		<defs>
			<circle id="SVGID_188_" cx="82" cy="103.5" r="5.7"/>
		</defs>
		<clipPath id="SVGID_48_">
			<use xlink:href="#SVGID_188_"  overflow="visible"/>
		</clipPath>
		
			<radialGradient id="SVGID_49_" cx="89.2139" cy="73.6865" r="5.7795" gradientTransform="matrix(1.063 0 0 -1.063 -13.031 181.569)" gradientUnits="userSpaceOnUse">
			<stop  offset="0" style="stop-color:#FFFFFF;stop-opacity:0"/>
			<stop  offset="0.265" style="stop-color:#FCFDFE;stop-opacity:0.212"/>
			<stop  offset="0.449" style="stop-color:#F3F6FD;stop-opacity:0.359"/>
			<stop  offset="0.609" style="stop-color:#E4EAF9;stop-opacity:0.487"/>
			<stop  offset="0.755" style="stop-color:#CED9F5;stop-opacity:0.604"/>
			<stop  offset="0.89" style="stop-color:#B2C4EF;stop-opacity:0.712"/>
			<stop  offset="1" style="stop-color:#95AEE9;stop-opacity:0.8"/>
		</radialGradient>
		<circle clip-path="url(#SVGID_48_)" fill="url(#SVGID_49_)" cx="81.8" cy="103.2" r="6.1"/>
	</g>
	<g>
		<defs>
			<circle id="SVGID_191_" cx="107.8" cy="102" r="5.7"/>
		</defs>
		<clipPath id="SVGID_50_">
			<use xlink:href="#SVGID_191_"  overflow="visible"/>
		</clipPath>
		
			<radialGradient id="SVGID_51_" cx="105.8424" cy="81.9401" r="8.5896" gradientTransform="matrix(1 0 0 -1 0 182)" gradientUnits="userSpaceOnUse">
			<stop  offset="0" style="stop-color:#FFFFFF"/>
			<stop  offset="1" style="stop-color:#B8C4D1"/>
		</radialGradient>
		<circle clip-path="url(#SVGID_50_)" fill="url(#SVGID_51_)" cx="105.8" cy="100.1" r="8.6"/>
	</g>
	<g>
		<defs>
			<circle id="SVGID_194_" cx="107.8" cy="102" r="5.7"/>
		</defs>
		<clipPath id="SVGID_52_">
			<use xlink:href="#SVGID_194_"  overflow="visible"/>
		</clipPath>
		
			<radialGradient id="SVGID_53_" cx="113.4754" cy="75.0315" r="5.7795" gradientTransform="matrix(1.063 0 0 -1.063 -13.031 181.569)" gradientUnits="userSpaceOnUse">
			<stop  offset="0" style="stop-color:#FFFFFF;stop-opacity:0"/>
			<stop  offset="0.265" style="stop-color:#FCFDFE;stop-opacity:0.212"/>
			<stop  offset="0.449" style="stop-color:#F3F5FD;stop-opacity:0.359"/>
			<stop  offset="0.609" style="stop-color:#E4E7F9;stop-opacity:0.487"/>
			<stop  offset="0.755" style="stop-color:#CED4F5;stop-opacity:0.604"/>
			<stop  offset="0.89" style="stop-color:#B2BBEF;stop-opacity:0.712"/>
			<stop  offset="1" style="stop-color:#95A2E9;stop-opacity:0.8"/>
		</radialGradient>
		<circle clip-path="url(#SVGID_52_)" fill="url(#SVGID_53_)" cx="107.6" cy="101.8" r="6.1"/>
	</g>
	<g>
		<defs>
			<circle id="SVGID_197_" cx="73.8" cy="81" r="4.1"/>
		</defs>
		<clipPath id="SVGID_54_">
			<use xlink:href="#SVGID_197_"  overflow="visible"/>
		</clipPath>
		
			<radialGradient id="SVGID_55_" cx="72.3877" cy="102.4244" r="6.1355" gradientTransform="matrix(1 0 0 -1 0 182)" gradientUnits="userSpaceOnUse">
			<stop  offset="0" style="stop-color:#FFFFFF"/>
			<stop  offset="1" style="stop-color:#B8C4D1"/>
		</radialGradient>
		<circle clip-path="url(#SVGID_54_)" fill="url(#SVGID_55_)" cx="72.4" cy="79.6" r="6.1"/>
	</g>
	<g>
		<defs>
			<circle id="SVGID_200_" cx="73.8" cy="81" r="4.1"/>
		</defs>
		<clipPath id="SVGID_56_">
			<use xlink:href="#SVGID_200_"  overflow="visible"/>
		</clipPath>
		
			<radialGradient id="SVGID_57_" cx="81.5329" cy="94.7723" r="4.1281" gradientTransform="matrix(1.063 0 0 -1.063 -13.031 181.569)" gradientUnits="userSpaceOnUse">
			<stop  offset="0" style="stop-color:#FFFFFF;stop-opacity:0"/>
			<stop  offset="0.265" style="stop-color:#FCFEFE;stop-opacity:0.212"/>
			<stop  offset="0.449" style="stop-color:#F3F9FD;stop-opacity:0.359"/>
			<stop  offset="0.609" style="stop-color:#E4F1F9;stop-opacity:0.487"/>
			<stop  offset="0.755" style="stop-color:#CEE5F5;stop-opacity:0.604"/>
			<stop  offset="0.89" style="stop-color:#B2D6EF;stop-opacity:0.712"/>
			<stop  offset="1" style="stop-color:#95C7E9;stop-opacity:0.8"/>
		</radialGradient>
		<circle clip-path="url(#SVGID_56_)" fill="url(#SVGID_57_)" cx="73.6" cy="80.8" r="4.4"/>
	</g>
	<g>
		<defs>
			<circle id="SVGID_203_" cx="109.7" cy="73.7" r="4.1"/>
		</defs>
		<clipPath id="SVGID_58_">
			<use xlink:href="#SVGID_203_"  overflow="visible"/>
		</clipPath>
		
			<radialGradient id="SVGID_59_" cx="108.2653" cy="109.6923" r="6.1355" gradientTransform="matrix(1 0 0 -1 0 182)" gradientUnits="userSpaceOnUse">
			<stop  offset="0" style="stop-color:#FFFFFF"/>
			<stop  offset="1" style="stop-color:#B8C4D1"/>
		</radialGradient>
		<circle clip-path="url(#SVGID_58_)" fill="url(#SVGID_59_)" cx="108.3" cy="72.3" r="6.1"/>
	</g>
	<g>
		<defs>
			<circle id="SVGID_206_" cx="109.7" cy="73.7" r="4.1"/>
		</defs>
		<clipPath id="SVGID_60_">
			<use xlink:href="#SVGID_206_"  overflow="visible"/>
		</clipPath>
		
			<radialGradient id="SVGID_61_" cx="115.2841" cy="101.6091" r="4.1281" gradientTransform="matrix(1.063 0 0 -1.063 -13.031 181.569)" gradientUnits="userSpaceOnUse">
			<stop  offset="0" style="stop-color:#FFFFFF;stop-opacity:0"/>
			<stop  offset="0.265" style="stop-color:#FCFDFE;stop-opacity:0.212"/>
			<stop  offset="0.449" style="stop-color:#F3F7FD;stop-opacity:0.359"/>
			<stop  offset="0.609" style="stop-color:#E4ECF9;stop-opacity:0.487"/>
			<stop  offset="0.755" style="stop-color:#CEDEF5;stop-opacity:0.604"/>
			<stop  offset="0.89" style="stop-color:#B2CBEF;stop-opacity:0.712"/>
			<stop  offset="1" style="stop-color:#95B7E9;stop-opacity:0.8"/>
		</radialGradient>
		<circle clip-path="url(#SVGID_60_)" fill="url(#SVGID_61_)" cx="109.5" cy="73.6" r="4.4"/>
	</g>
	<g>
		<defs>
			<circle id="SVGID_209_" cx="99.4" cy="117.1" r="4.1"/>
		</defs>
		<clipPath id="SVGID_62_">
			<use xlink:href="#SVGID_209_"  overflow="visible"/>
		</clipPath>
		
			<radialGradient id="SVGID_63_" cx="97.9479" cy="66.3565" r="6.1355" gradientTransform="matrix(1 0 0 -1 0 182)" gradientUnits="userSpaceOnUse">
			<stop  offset="0" style="stop-color:#FFFFFF"/>
			<stop  offset="1" style="stop-color:#B8C4D1"/>
		</radialGradient>
		<circle clip-path="url(#SVGID_62_)" fill="url(#SVGID_63_)" cx="97.9" cy="115.6" r="6.1"/>
	</g>
	<g>
		<defs>
			<circle id="SVGID_212_" cx="99.4" cy="117.1" r="4.1"/>
		</defs>
		<clipPath id="SVGID_64_">
			<use xlink:href="#SVGID_212_"  overflow="visible"/>
		</clipPath>
		
			<radialGradient id="SVGID_65_" cx="105.5782" cy="60.8511" r="4.1236" gradientTransform="matrix(1.063 0 0 -1.063 -13.031 181.569)" gradientUnits="userSpaceOnUse">
			<stop  offset="0" style="stop-color:#FFFFFF;stop-opacity:0"/>
			<stop  offset="0.265" style="stop-color:#FCFCFE;stop-opacity:0.212"/>
			<stop  offset="0.449" style="stop-color:#F3F3FD;stop-opacity:0.359"/>
			<stop  offset="0.609" style="stop-color:#E4E4F9;stop-opacity:0.487"/>
			<stop  offset="0.755" style="stop-color:#CECFF5;stop-opacity:0.604"/>
			<stop  offset="0.89" style="stop-color:#B2B4EF;stop-opacity:0.712"/>
			<stop  offset="1" style="stop-color:#9598E9;stop-opacity:0.8"/>
		</radialGradient>
		<circle clip-path="url(#SVGID_64_)" fill="url(#SVGID_65_)" cx="99.2" cy="116.9" r="4.4"/>
	</g>
	<g>
		<defs>
			<circle id="SVGID_215_" cx="125" cy="107.8" r="4.1"/>
		</defs>
		<clipPath id="SVGID_66_">
			<use xlink:href="#SVGID_215_"  overflow="visible"/>
		</clipPath>
		
			<radialGradient id="SVGID_67_" cx="123.5784" cy="75.6495" r="6.1355" gradientTransform="matrix(1 0 0 -1 0 182)" gradientUnits="userSpaceOnUse">
			<stop  offset="0" style="stop-color:#FFFFFF"/>
			<stop  offset="1" style="stop-color:#B8C4D1"/>
		</radialGradient>
		<circle clip-path="url(#SVGID_66_)" fill="url(#SVGID_67_)" cx="123.6" cy="106.4" r="6.1"/>
	</g>
	<g>
		<defs>
			<circle id="SVGID_218_" cx="125" cy="107.8" r="4.1"/>
		</defs>
		<clipPath id="SVGID_68_">
			<use xlink:href="#SVGID_218_"  overflow="visible"/>
		</clipPath>
		
			<radialGradient id="SVGID_69_" cx="129.6897" cy="69.5925" r="4.124" gradientTransform="matrix(1.063 0 0 -1.063 -13.031 181.569)" gradientUnits="userSpaceOnUse">
			<stop  offset="0" style="stop-color:#FFFFFF;stop-opacity:0"/>
			<stop  offset="0.265" style="stop-color:#FDFCFE;stop-opacity:0.212"/>
			<stop  offset="0.449" style="stop-color:#F5F3FD;stop-opacity:0.359"/>
			<stop  offset="0.609" style="stop-color:#E9E4F9;stop-opacity:0.487"/>
			<stop  offset="0.755" style="stop-color:#D7CEF5;stop-opacity:0.604"/>
			<stop  offset="0.89" style="stop-color:#C0B2EF;stop-opacity:0.712"/>
			<stop  offset="1" style="stop-color:#A995E9;stop-opacity:0.8"/>
		</radialGradient>
		<circle clip-path="url(#SVGID_68_)" fill="url(#SVGID_69_)" cx="124.8" cy="107.6" r="4.4"/>
	</g>
	<g>
		<defs>
			<circle id="SVGID_221_" cx="97.6" cy="61.5" r="3.3"/>
		</defs>
		<clipPath id="SVGID_70_">
			<use xlink:href="#SVGID_221_"  overflow="visible"/>
		</clipPath>
		
			<radialGradient id="SVGID_71_" cx="96.4579" cy="121.6023" r="4.9084" gradientTransform="matrix(1 0 0 -1 0 182)" gradientUnits="userSpaceOnUse">
			<stop  offset="0" style="stop-color:#FFFFFF"/>
			<stop  offset="1" style="stop-color:#B8C4D1"/>
		</radialGradient>
		<circle clip-path="url(#SVGID_70_)" fill="url(#SVGID_71_)" cx="96.5" cy="60.4" r="4.9"/>
	</g>
	<g>
		<defs>
			<circle id="SVGID_224_" cx="97.6" cy="61.5" r="3.3"/>
		</defs>
		<clipPath id="SVGID_72_">
			<use xlink:href="#SVGID_224_"  overflow="visible"/>
		</clipPath>
		
			<radialGradient id="SVGID_73_" cx="103.9412" cy="113.0487" r="3.3025" gradientTransform="matrix(1.063 0 0 -1.063 -13.031 181.569)" gradientUnits="userSpaceOnUse">
			<stop  offset="0" style="stop-color:#FFFFFF;stop-opacity:0"/>
			<stop  offset="0.265" style="stop-color:#FCFEFE;stop-opacity:0.212"/>
			<stop  offset="0.449" style="stop-color:#F3F9FD;stop-opacity:0.359"/>
			<stop  offset="0.609" style="stop-color:#E4F1F9;stop-opacity:0.487"/>
			<stop  offset="0.755" style="stop-color:#CEE5F5;stop-opacity:0.604"/>
			<stop  offset="0.89" style="stop-color:#B2D6EF;stop-opacity:0.712"/>
			<stop  offset="1" style="stop-color:#95C7E9;stop-opacity:0.8"/>
		</radialGradient>
		<circle clip-path="url(#SVGID_72_)" fill="url(#SVGID_73_)" cx="97.5" cy="61.4" r="3.5"/>
	</g>
	<g>
		<defs>
			<circle id="SVGID_227_" cx="114.3" cy="62" r="3.3"/>
		</defs>
		<clipPath id="SVGID_74_">
			<use xlink:href="#SVGID_227_"  overflow="visible"/>
		</clipPath>
		
			<radialGradient id="SVGID_75_" cx="113.1934" cy="121.1402" r="4.9084" gradientTransform="matrix(1 0 0 -1 0 182)" gradientUnits="userSpaceOnUse">
			<stop  offset="0" style="stop-color:#FFFFFF"/>
			<stop  offset="1" style="stop-color:#B8C4D1"/>
		</radialGradient>
		<circle clip-path="url(#SVGID_74_)" fill="url(#SVGID_75_)" cx="113.2" cy="60.9" r="4.9"/>
	</g>
	<g>
		<defs>
			<circle id="SVGID_230_" cx="114.3" cy="62" r="3.3"/>
		</defs>
		<clipPath id="SVGID_76_">
			<use xlink:href="#SVGID_230_"  overflow="visible"/>
		</clipPath>
		
			<radialGradient id="SVGID_77_" cx="119.6777" cy="112.6142" r="3.3061" gradientTransform="matrix(1.063 0 0 -1.063 -13.031 181.569)" gradientUnits="userSpaceOnUse">
			<stop  offset="0" style="stop-color:#FFFFFF;stop-opacity:0"/>
			<stop  offset="0.265" style="stop-color:#FCFDFE;stop-opacity:0.212"/>
			<stop  offset="0.449" style="stop-color:#F3F7FD;stop-opacity:0.359"/>
			<stop  offset="0.609" style="stop-color:#E4ECF9;stop-opacity:0.487"/>
			<stop  offset="0.755" style="stop-color:#CEDDF5;stop-opacity:0.604"/>
			<stop  offset="0.89" style="stop-color:#B2C9EF;stop-opacity:0.712"/>
			<stop  offset="1" style="stop-color:#95B5E9;stop-opacity:0.8"/>
		</radialGradient>
		<circle clip-path="url(#SVGID_76_)" fill="url(#SVGID_77_)" cx="114.2" cy="61.9" r="3.5"/>
	</g>
</g>
</svg>
