<?xml version="1.0" encoding="utf-8"?>
<!-- Generator: Adobe Illustrator 25.0.1, SVG Export Plug-In . SVG Version: 6.00 Build 0)  -->
<svg version="1.1" id="Layer_1" xmlns="http://www.w3.org/2000/svg" xmlns:xlink="http://www.w3.org/1999/xlink" x="0px" y="0px"
	 viewBox="0 0 200 180" enable-background="new 0 0 200 180" xml:space="preserve">
<defs>
	<filter id="Adobe_OpacityMaskFilter" filterUnits="userSpaceOnUse" x="44" y="34.3" width="112" height="111.3">
		<feColorMatrix  type="matrix" values="1 0 0 0 0  0 1 0 0 0  0 0 1 0 0  0 0 0 1 0"/>
	</filter>
</defs>
<mask maskUnits="userSpaceOnUse" x="44" y="34.3" width="112" height="111.3" id="mask0_1_">
	<path fill-rule="evenodd" clip-rule="evenodd" fill="#FFFFFF" filter="url(#Adobe_OpacityMaskFilter)" d="M123.4,145.2
		c1.8,0.7,3.8,0.6,5.6-0.2l23-11.1c2.4-1.2,4-3.6,4-6.3V52.4c0-2.7-1.5-5.1-4-6.3L129,35c-2.3-1.1-5.1-0.8-7.1,0.6
		c-0.3,0.2-0.6,0.5-0.8,0.7L76.9,76.6L57.7,62c-1.8-1.4-4.3-1.2-6,0.3l-6.2,5.6c-2,1.8-2,5,0,6.9L62.3,90l-16.7,15.2
		c-2,1.9-2,5,0,6.9l6.2,5.6c1.7,1.5,4.2,1.6,6,0.3l19.2-14.6l44.1,40.2C121.7,144.3,122.6,144.8,123.4,145.2z M128,64.6L94.6,90
		l33.5,25.4V64.6z"/>
</mask>
<g id="vscode" mask="url(#mask0_1_)">
	<path fill="#0065A9" d="M152,46.1L129,35c-2.7-1.3-5.9-0.7-8,1.4l-75.5,68.8c-2,1.9-2,5,0,6.9l6.2,5.6c1.7,1.5,4.2,1.6,6,0.3
		l90.9-69c3-2.3,7.4-0.1,7.4,3.7v-0.3C156,49.7,154.4,47.3,152,46.1z"/>
	<g>
		<path fill="#007ACC" d="M152,133.9L129,145c-2.7,1.3-5.9,0.7-8-1.4L45.5,74.8c-2-1.9-2-5,0-6.9l6.2-5.6c1.7-1.5,4.2-1.6,6-0.3
			l90.9,69c3,2.3,7.4,0.1,7.4-3.7v0.3C156,130.3,154.4,132.7,152,133.9z"/>
	</g>
	<g>
		<path fill="#1F9CF0" d="M129,145c-2.7,1.3-5.9,0.7-8-1.4c2.6,2.6,7,0.8,7-2.9V39.3c0-3.7-4.4-5.5-7-2.9c2.1-2.1,5.3-2.6,8-1.4
			L152,46.1c2.4,1.2,4,3.6,4,6.3v75.2c0,2.7-1.5,5.1-4,6.3L129,145z"/>
	</g>
	<g opacity="0.25">
		
			<linearGradient id="SVGID_1_" gradientUnits="userSpaceOnUse" x1="99.9659" y1="147.6665" x2="99.9659" y2="36.3334" gradientTransform="matrix(1 0 0 -1 0 182)">
			<stop  offset="0" style="stop-color:#FFFFFF"/>
			<stop  offset="1" style="stop-color:#FFFFFF;stop-opacity:0"/>
		</linearGradient>
		<path fill-rule="evenodd" clip-rule="evenodd" fill="url(#SVGID_1_)" d="M123.4,145.2c1.8,0.7,3.8,0.6,5.6-0.2l23-11.1
			c2.4-1.2,4-3.6,4-6.3V52.4c0-2.7-1.5-5.1-4-6.3l-23-11.1c-2.3-1.1-5.1-0.8-7.1,0.6c-0.3,0.2-0.6,0.5-0.8,0.7L76.9,76.6L57.6,62
			c-1.8-1.4-4.3-1.2-6,0.3l-6.2,5.6c-2,1.8-2,5,0,6.9L62.2,90l-16.7,15.2c-2,1.9-2,5,0,6.9l6.2,5.6c1.7,1.5,4.2,1.6,6,0.3l19.2-14.6
			l44.1,40.2C121.7,144.3,122.5,144.8,123.4,145.2z M128,64.6L94.5,90l33.5,25.4V64.6z"/>
	</g>
</g>
</svg>
