<?xml version="1.0" encoding="utf-8"?>
<!-- Generator: Adobe Illustrator 25.0.1, SVG Export Plug-In . SVG Version: 6.00 Build 0)  -->
<svg version="1.1" id="Layer_1" xmlns="http://www.w3.org/2000/svg" xmlns:xlink="http://www.w3.org/1999/xlink" x="0px" y="0px"
	 viewBox="0 0 200 180" enable-background="new 0 0 200 180" xml:space="preserve">
<g id="xd">
	<path id="xd_x5F_bg" fill="#470137" d="M63.7,35.2h72.6c11,0,19.9,8.9,19.9,19.9v69.8c0,11-8.9,19.9-19.9,19.9H63.7
		c-11,0-19.9-8.9-19.9-19.9V55.1C43.8,44.1,52.7,35.2,63.7,35.2z"/>
	<path id="xd_x5F_d" fill="#FF61F6" d="M124.6,113.4c-3.5,0-6.9-0.7-10.1-2.1c-3-1.4-5.4-3.6-7.1-6.4c-1.7-2.9-2.6-6.4-2.6-10.7
		c0-3.5,0.8-6.9,2.6-9.9c1.8-3,4.4-5.6,7.5-7.3c3.3-1.8,7.2-2.7,11.9-2.7c0.2,0,0.6,0,1,0c0.4,0,0.9,0,1.5,0.1V59.7
		c0-0.3,0.1-0.5,0.5-0.5h9.5c0.2,0,0.4,0.1,0.5,0.3c0,0,0,0.1,0,0.1v44.6c0,0.8,0,1.8,0.1,2.8c0.1,1,0.1,1.9,0.2,2.7
		c0,0.3-0.1,0.6-0.5,0.7c-2.4,1-5,1.8-7.6,2.2C129.4,113.2,127,113.4,124.6,113.4z M129.1,104.1V83.4c-0.4-0.1-0.8-0.2-1.3-0.2
		c-0.5,0-1-0.1-1.5-0.1c-1.8,0-3.7,0.4-5.3,1.2c-1.6,0.8-3,2-4,3.5c-1,1.5-1.5,3.5-1.5,6c0,1.6,0.2,3.3,0.8,4.8
		c0.5,1.3,1.2,2.4,2.1,3.3c0.9,0.8,2,1.5,3.2,1.9c1.3,0.4,2.6,0.6,3.9,0.6c0.7,0,1.4,0,2-0.1C128.1,104.3,128.6,104.2,129.1,104.1z"
		/>
	<path id="xd_x5F_x" fill="#FF61F6" d="M102.9,64L88.8,87.2l15,24.6c0.1,0.2,0.1,0.4,0.1,0.6c0,0.2-0.2,0-0.5,0.1H92.7
		c-0.7,0-1.3,0-1.6-0.5c-1-2-2-3.9-3-5.9c-1-1.9-2.1-3.9-3.2-5.9s-2.2-4-3.4-6.1h-0.1c-1,2-2.1,4-3.1,6c-1.1,2-2.2,4-3.2,6
		c-1.1,2-2.2,4-3.2,5.9c-0.2,0.5-0.6,0.5-1.1,0.5H60.5c-0.2,0-0.3,0.1-0.3-0.1c0-0.2,0-0.4,0.1-0.5L74.8,88l-14.2-24
		c-0.1-0.2-0.2-0.4-0.1-0.5c0.1-0.1,0.3-0.2,0.5-0.2h10.6c0.2,0,0.5,0,0.7,0.1c0.2,0.1,0.3,0.2,0.5,0.4c0.9,2,1.9,4,3,6
		c1.1,2,2.2,4,3.4,6c1.1,2,2.2,3.9,3.1,6h0.1c1-2.1,2-4.1,3-6c1-2,2.1-3.9,3.2-5.9c1.1-2,2.1-4,3.1-5.9c0-0.2,0.1-0.4,0.3-0.5
		c0.2-0.1,0.4-0.1,0.6-0.1h9.9c0.2,0,0.5,0.1,0.5,0.3C103.1,63.7,103,63.9,102.9,64L102.9,64z"/>
</g>
</svg>
